{
.appVersion = "1230";
DisplayStrings = (
noHO,
n
);
copyright = "Copyright 2014 The ComicNeue Project Authors (https://github.com/crozynski/comicneue)";
customParameters = (
{
name = license;
value = "This Font Software is licensed under the SIL Open Font License, Version 1.1. This license is available with a FAQ at: http://scripts.sil.org/OFL";
},
{
name = licenseURL;
value = "http://scripts.sil.org/OFL";
},
{
name = note;
value = "";
},
{
name = codePageRanges;
value = (
1252,
1250
);
},
{
name = openTypeOS2Panose;
value = (
2,
0,
0,
0,
0,
0,
0,
0,
0,
0
);
},
{
name = unicodeRanges;
value = (
0,
1,
2
);
},
{
name = blueFuzz;
value = 1;
},
{
name = blueScale;
value = 0.03963;
},
{
name = blueShift;
value = 7;
},
{
name = trademark;
value = "-";
},
{
name = fsType;
value = (
);
},
{
name = macintoshFONDName;
value = "Comic Neue";
},
{
name = openTypeNameUniqueID;
value = "2.003;;Comic Neue Light";
},
{
name = openTypeNameVersion;
value = "Version 2.003";
},
{
name = openTypeOS2FamilyClass;
value = (
0,
0
);
},
{
name = openTypeOS2StrikeoutPosition;
value = 300;
},
{
name = openTypeOS2StrikeoutSize;
value = 50;
},
{
name = openTypeOS2SubscriptXOffset;
value = 0;
},
{
name = openTypeOS2SubscriptXSize;
value = 650;
},
{
name = openTypeOS2SubscriptYOffset;
value = 75;
},
{
name = openTypeOS2SubscriptYSize;
value = 600;
},
{
name = openTypeOS2SuperscriptXOffset;
value = 0;
},
{
name = openTypeOS2SuperscriptXSize;
value = 650;
},
{
name = openTypeOS2SuperscriptYOffset;
value = 350;
},
{
name = postscriptForceBold;
value = 0;
},
{
name = openTypeOS2SuperscriptYSize;
value = 600;
},
{
name = "New Parameter";
value = "New Value";
}
);
date = "2016-09-14 09:42:32 +0000";
designer = "Craig Rozynski";
designerURL = "http://www.craigrozynski.com";
disablesNiceNames = 1;
familyName = "Comic Neue";
featurePrefixes = (
{
code = "languagesystem DFLT dflt;\012languagesystem latn dflt;\012";
name = Languagesystems;
},
{

glyphs = (
{
glyphname = A;
layers = (
{
layerId = master01;
paths = (
{
closed = 1;
nodes = (
"122 203 LINE",
"85 194 LINE",
"73 192 OFFCURVE",
"65 202 OFFCURVE",
"65 212 CURVE SMOOTH",
"65 222 OFFCURVE",
"72 229 OFFCURVE",
"80 231 CURVE SMOOTH",
"139 244 LINE",
"309 677 LINE SMOOTH",
"312 684 OFFCURVE",
"319 689 OFFCURVE",
"328 689 CURVE SMOOTH",
"338 689 OFFCURVE",
"344 683 OFFCURVE",
"346 677 CURVE SMOOTH",
"568 32 LINE SMOOTH",
"571 23 OFFCURVE",
"571 18 OFFCURVE",
"571 15 CURVE SMOOTH",
"571 4 OFFCURVE",
"561 -1 OFFCURVE",
"550 -1 CURVE SMOOTH",
"542 -1 OFFCURVE",
"536 3 OFFCURVE",
"533 11 CURVE SMOOTH",
"444 272 LINE",
"167 211 LINE",
"89 11 LINE SMOOTH",
"86 4 OFFCURVE",
"80 0 OFFCURVE",
"72 0 CURVE SMOOTH",
"60 0 OFFCURVE",
"51 8 OFFCURVE",
"51 18 CURVE SMOOTH",
"51 21 OFFCURVE",
"52 25 OFFCURVE",
"53 27 CURVE SMOOTH"
);
},
{
closed = 1;
nodes = (
"431 307 LINE",
"325 614 LINE",
"184 253 LINE"
);
}
);
userData = {
com.fontlab.hintData = {
hhints = (
{
position = 0;
width = 20;
},
{
position = 669;
width = 20;
}
);
vhints = (
{
position = 51;
width = 38;
},
{
position = 533;
width = 38;
}
);
};
};
width = 614;
}
);
unicode = 0041;
},
{
glyphname = Aacute;
layers = (
{
layerId = master01;
paths = (
{
closed = 1;
nodes = (
"122 203 LINE",
"85 194 LINE",
"73 192 OFFCURVE",
"65 202 OFFCURVE",
"65 212 CURVE SMOOTH",
"65 222 OFFCURVE",
"72 229 OFFCURVE",
"80 231 CURVE SMOOTH",
"139 244 LINE",
"309 677 LINE SMOOTH",
"312 684 OFFCURVE",
"319 689 OFFCURVE",
"328 689 CURVE SMOOTH",
"338 689 OFFCURVE",
"344 683 OFFCURVE",
"346 677 CURVE SMOOTH",
"568 32 LINE SMOOTH",
"571 23 OFFCURVE",
"571 18 OFFCURVE",
"571 15 CURVE SMOOTH",
"571 4 OFFCURVE",
"561 -1 OFFCURVE",
"550 -1 CURVE SMOOTH",
"542 -1 OFFCURVE",
"536 3 OFFCURVE",
"533 11 CURVE SMOOTH",
"444 272 LINE",
"167 211 LINE",
"89 11 LINE SMOOTH",
"86 4 OFFCURVE",
"80 0 OFFCURVE",
"72 0 CURVE SMOOTH",
"60 0 OFFCURVE",
"51 8 OFFCURVE",
"51 18 CURVE SMOOTH",
"51 21 OFFCURVE",
"52 25 OFFCURVE",
"53 27 CURVE SMOOTH"
);
},
{
closed = 1;
nodes = (
"431 307 LINE",
"325 614 LINE",
"184 253 LINE"
);
},
{
closed = 1;
nodes = (
"285 759 LINE SMOOTH",
"278 754 OFFCURVE",
"273 752 OFFCURVE",
"269 752 CURVE SMOOTH",
"260 752 OFFCURVE",
"252 760 OFFCURVE",
"252 769 CURVE SMOOTH",
"252 772 OFFCURVE",
"252 777 OFFCURVE",
"258 782 CURVE SMOOTH",
"386 886 LINE SMOOTH",
"395 893 OFFCURVE",
"402 900 OFFCURVE",
"412 900 CURVE SMOOTH",
"423 900 OFFCURVE",
"436 887 OFFCURVE",
"436 873 CURVE SMOOTH",
"436 866 OFFCURVE",
"435 862 OFFCURVE",
"428 857 CURVE SMOOTH"
);
}
);
userData = {
com.fontlab.hintData = {
hhints = (
{
position = 0;
width = 20;
},
{
position = 669;
width = 20;
}
);
vhints = (
{
position = 51;
width = 38;
},
{
position = 533;
width = 38;
}
);
};
};
width = 614;
}
);
unicode = 00C1;
},
{
glyphname = Abreve;
layers = (
{
layerId = master01;
paths = (
{
closed = 1;
nodes = (
"122 203 LINE",
"85 194 LINE",
"73 192 OFFCURVE",
"65 202 OFFCURVE",
"65 212 CURVE SMOOTH",
"65 222 OFFCURVE",
"72 229 OFFCURVE",
"80 231 CURVE SMOOTH",
"139 244 LINE",
"309 677 LINE SMOOTH",
"312 684 OFFCURVE",
"319 689 OFFCURVE",
"328 689 CURVE SMOOTH",
"338 689 OFFCURVE",
"344 683 OFFCURVE",
"346 677 CURVE SMOOTH",
"568 32 LINE SMOOTH",
"571 23 OFFCURVE",
"571 18 OFFCURVE",
"571 15 CURVE SMOOTH",
"571 4 OFFCURVE",
"561 -1 OFFCURVE",
"550 -1 CURVE SMOOTH",
"542 -1 OFFCURVE",
"536 3 OFFCURVE",
"533 11 CURVE SMOOTH",
"444 272 LINE",
"167 211 LINE",
"89 11 LINE SMOOTH",
"86 4 OFFCURVE",
"80 0 OFFCURVE",
"72 0 CURVE SMOOTH",
"60 0 OFFCURVE",
"51 8 OFFCURVE",
"51 18 CURVE SMOOTH",
"51 21 OFFCURVE",
"52 25 OFFCURVE",
"53 27 CURVE SMOOTH"
);
},
{
closed = 1;
nodes = (
"431 307 LINE",
"325 614 LINE",
"184 253 LINE"
);
},
{
closed = 1;
nodes = (
"220 807 OFFCURVE",
"282 790 OFFCURVE",
"324 790 CURVE SMOOTH",
"380 790 OFFCURVE",
"420 816 OFFCURVE",
"443 868 CURVE SMOOTH",
"447 876 OFFCURVE",
"451 883 OFFCURVE",
"458 883 CURVE SMOOTH",
"462 883 OFFCURVE",
"465 880 OFFCURVE",
"465 876 CURVE SMOOTH",
"465 833 OFFCURVE",
"414 762 OFFCURVE",
"321 762 CURVE SMOOTH",
"206 762 OFFCURVE",
"167 849 OFFCURVE",
"167 869 CURVE SMOOTH",
"167 873 OFFCURVE",
"168 878 OFFCURVE",
"175 878 CURVE SMOOTH",
"181 878 OFFCURVE",
"186 870 OFFCURVE",
"189 865 CURVE SMOOTH"
);
}
);
userData = {
com.fontlab.hintData = {
hhints = (
{
position = 0;
width = 20;
},
{
position = 669;
width = 20;
},
{
position = 762;
width = 28;
}
);
vhints = (
{
position = 51;
width = 38;
},
{
position = 533;
width = 38;
}
);
};
};
width = 614;
}
);
unicode = 0102;
},
{
glyphname = Acircumflex;
layers = (
{
layerId = master01;
paths = (
{
closed = 1;
nodes = (
"341 902 OFFCURVE",
"347 900 OFFCURVE",
"351 896 CURVE SMOOTH",
"463 783 LINE SMOOTH",
"467 779 OFFCURVE",
"469 776 OFFCURVE",
"469 771 CURVE SMOOTH",
"469 762 OFFCURVE",
"461 753 OFFCURVE",
"452 753 CURVE SMOOTH",
"447 753 OFFCURVE",
"443 755 OFFCURVE",
"439 758 CURVE SMOOTH",
"334 853 LINE",
"210 757 LINE SMOOTH",
"207 755 OFFCURVE",
"203 753 OFFCURVE",
"199 753 CURVE SMOOTH",
"189 753 OFFCURVE",
"181 762 OFFCURVE",
"181 771 CURVE SMOOTH",
"181 776 OFFCURVE",
"184 781 OFFCURVE",
"188 784 CURVE SMOOTH",
"323 897 LINE SMOOTH",
"327 900 OFFCURVE",
"332 902 OFFCURVE",
"336 902 CURVE SMOOTH"
);
},
{
closed = 1;
nodes = (
"122 203 LINE",
"85 194 LINE",
"73 192 OFFCURVE",
"65 202 OFFCURVE",
"65 212 CURVE SMOOTH",
"65 222 OFFCURVE",
"72 229 OFFCURVE",
"80 231 CURVE SMOOTH",
"139 244 LINE",
"309 677 LINE SMOOTH",
"312 684 OFFCURVE",
"319 689 OFFCURVE",
"328 689 CURVE SMOOTH",
"338 689 OFFCURVE",
"344 683 OFFCURVE",
"346 677 CURVE SMOOTH",
"568 32 LINE SMOOTH",
"571 23 OFFCURVE",
"571 18 OFFCURVE",
"571 15 CURVE SMOOTH",
"571 4 OFFCURVE",
"561 -1 OFFCURVE",
"550 -1 CURVE SMOOTH",
"542 -1 OFFCURVE",
"536 3 OFFCURVE",
"533 11 CURVE SMOOTH",
"444 272 LINE",
"167 211 LINE",
"89 11 LINE SMOOTH",
"86 4 OFFCURVE",
"80 0 OFFCURVE",
"72 0 CURVE SMOOTH",
"60 0 OFFCURVE",
"51 8 OFFCURVE",
"51 18 CURVE SMOOTH",
"51 21 OFFCURVE",
"52 25 OFFCURVE",
"53 27 CURVE SMOOTH"
);
},
{
closed = 1;
nodes = (
"431 307 LINE",
"325 614 LINE",
"184 253 LINE"
);
}
);
userData = {
com.fontlab.hintData = {
hhints = (
{
position = 0;
width = 20;
},
{
position = 669;
width = 20;
}
);
vhints = (
{
position = 51;
width = 38;
},
{
position = 533;
width = 38;
}
);
};
};
width = 614;
}
);
unicode = 00C2;
},
{
glyphname = Adieresis;
layers = (
{
layerId = master01;
paths = (
{
closed = 1;
nodes = (
"283 771 OFFCURVE",
"264 755 OFFCURVE",
"241 755 CURVE SMOOTH",
"221 755 OFFCURVE",
"205 768 OFFCURVE",
"205 785 CURVE SMOOTH",
"205 804 OFFCURVE",
"223 820 OFFCURVE",
"247 820 CURVE SMOOTH",
"265 820 OFFCURVE",
"283 807 OFFCURVE",
"283 790 CURVE SMOOTH"
);
},
{
closed = 1;
nodes = (
"447 771 OFFCURVE",
"428 755 OFFCURVE",
"404 755 CURVE SMOOTH",
"385 755 OFFCURVE",
"368 768 OFFCURVE",
"368 785 CURVE SMOOTH",
"368 804 OFFCURVE",
"387 820 OFFCURVE",
"411 820 CURVE SMOOTH",
"429 820 OFFCURVE",
"447 807 OFFCURVE",
"447 790 CURVE SMOOTH"
);
},
{
closed = 1;
nodes = (
"122 203 LINE",
"85 194 LINE",
"73 192 OFFCURVE",
"65 202 OFFCURVE",
"65 212 CURVE SMOOTH",
"65 222 OFFCURVE",
"72 229 OFFCURVE",
"80 231 CURVE SMOOTH",
"139 244 LINE",
"309 677 LINE SMOOTH",
"312 684 OFFCURVE",
"319 689 OFFCURVE",
"328 689 CURVE SMOOTH",
"338 689 OFFCURVE",
"344 683 OFFCURVE",
"346 677 CURVE SMOOTH",
"568 32 LINE SMOOTH",
"571 23 OFFCURVE",
"571 18 OFFCURVE",
"571 15 CURVE SMOOTH",
"571 4 OFFCURVE",
"561 -1 OFFCURVE",
"550 -1 CURVE SMOOTH",
"542 -1 OFFCURVE",
"536 3 OFFCURVE",
"533 11 CURVE SMOOTH",
"444 272 LINE",
"167 211 LINE",
"89 11 LINE SMOOTH",
"86 4 OFFCURVE",
"80 0 OFFCURVE",
"72 0 CURVE SMOOTH",
"60 0 OFFCURVE",
"51 8 OFFCURVE",
"51 18 CURVE SMOOTH",
"51 21 OFFCURVE",
"52 25 OFFCURVE",
"53 27 CURVE SMOOTH"
);
},
{
closed = 1;
nodes = (
"431 307 LINE",
"325 614 LINE",
"184 253 LINE"
);
}
);
userData = {
com.fontlab.hintData = {
hhints = (
{
position = 0;
width = 20;
},
{
position = 669;
width = 20;
},
{
position = 755;
width = 65;
}
);
vhints = (
{
position = 51;
width = 38;
},
{
position = 205;
width = 78;
},
{
position = 368;
width = 79;
},
{
position = 533;
width = 38;
}
);
};
};
width = 614;
}
);
unicode = 00C4;
},
{
glyphname = Agrave;
layers = (
{
layerId = master01;
paths = (
{
closed = 1;
nodes = (
"122 203 LINE",
"85 194 LINE",
"73 192 OFFCURVE",
"65 202 OFFCURVE",
"65 212 CURVE SMOOTH",
"65 222 OFFCURVE",
"72 229 OFFCURVE",
"80 231 CURVE SMOOTH",
"139 244 LINE",
"309 677 LINE SMOOTH",
"312 684 OFFCURVE",
"319 689 OFFCURVE",
"328 689 CURVE SMOOTH",
"338 689 OFFCURVE",
"344 683 OFFCURVE",
"346 677 CURVE SMOOTH",
"568 32 LINE SMOOTH",
"571 23 OFFCURVE",
"571 18 OFFCURVE",
"571 15 CURVE SMOOTH",
"571 4 OFFCURVE",
"561 -1 OFFCURVE",
"550 -1 CURVE SMOOTH",
"542 -1 OFFCURVE",
"536 3 OFFCURVE",
"533 11 CURVE SMOOTH",
"444 272 LINE",
"167 211 LINE",
"89 11 LINE SMOOTH",
"86 4 OFFCURVE",
"80 0 OFFCURVE",
"72 0 CURVE SMOOTH",
"60 0 OFFCURVE",
"51 8 OFFCURVE",
"51 18 CURVE SMOOTH",
"51 21 OFFCURVE",
"52 25 OFFCURVE",
"53 27 CURVE SMOOTH"
);
},
{
closed = 1;
nodes = (
"431 307 LINE",
"325 614 LINE",
"184 253 LINE"
);
},
{
closed = 1;
nodes = (
"382 765 LINE SMOOTH",
"386 760 OFFCURVE",
"388 756 OFFCURVE",
"388 752 CURVE SMOOTH",
"388 742 OFFCURVE",
"378 736 OFFCURVE",
"369 736 CURVE SMOOTH",
"365 736 OFFCURVE",
"360 738 OFFCURVE",
"356 742 CURVE SMOOTH",
"233 868 LINE SMOOTH",
"228 874 OFFCURVE",
"225 880 OFFCURVE",
"225 887 CURVE SMOOTH",
"225 901 OFFCURVE",
"238 912 OFFCURVE",
"252 912 CURVE SMOOTH",
"260 912 OFFCURVE",
"267 909 OFFCURVE",
"273 901 CURVE SMOOTH"
);
}
);
userData = {
com.fontlab.hintData = {
hhints = (
{
position = 0;
width = 20;
},
{
position = 669;
width = 20;
}
);
vhints = (
{
position = 51;
width = 38;
},
{
position = 533;
width = 38;
}
);
};
};
width = 614;
}
);
unicode = 00C0;
},
{
glyphname = Aogonek;
layers = (
{
layerId = master01;
paths = (
{
closed = 1;
nodes = (
"490 -206 OFFCURVE",
"449 -164 OFFCURVE",
"449 -109 CURVE SMOOTH",
"449 -55 OFFCURVE",
"489 -12 OFFCURVE",
"531 15 CURVE",
"444 272 LINE",
"167 211 LINE",
"89 11 LINE SMOOTH",
"86 4 OFFCURVE",
"80 0 OFFCURVE",
"72 0 CURVE SMOOTH",
"60 0 OFFCURVE",
"51 8 OFFCURVE",
"51 18 CURVE SMOOTH",
"51 21 OFFCURVE",
"52 25 OFFCURVE",
"53 27 CURVE SMOOTH",
"122 203 LINE",
"85 194 LINE",
"73 192 OFFCURVE",
"65 202 OFFCURVE",
"65 212 CURVE SMOOTH",
"65 222 OFFCURVE",
"72 229 OFFCURVE",
"80 231 CURVE SMOOTH",
"139 244 LINE",
"309 677 LINE SMOOTH",
"312 684 OFFCURVE",
"319 689 OFFCURVE",
"328 689 CURVE SMOOTH",
"338 689 OFFCURVE",
"344 683 OFFCURVE",
"346 677 CURVE SMOOTH",
"568 32 LINE SMOOTH",
"570.09 25.73 OFFCURVE",
"571.452 21.037 OFFCURVE",
"571.452 16.908 CURVE SMOOTH",
"571.452 9.182 OFFCURVE",
"566.685 3.427 OFFCURVE",
"553 -7 CURVE SMOOTH",
"518 -33 OFFCURVE",
"480 -61 OFFCURVE",
"480 -110 CURVE SMOOTH",
"480 -149 OFFCURVE",
"510 -174 OFFCURVE",
"548 -174 CURVE SMOOTH",
"571 -174 OFFCURVE",
"594 -166 OFFCURVE",
"616 -150 CURVE SMOOTH",
"619 -148 OFFCURVE",
"622 -147 OFFCURVE",
"625 -147 CURVE SMOOTH",
"632 -147 OFFCURVE",
"640 -154 OFFCURVE",
"640 -162 CURVE SMOOTH",
"640 -186 OFFCURVE",
"581 -206 OFFCURVE",
"547 -206 CURVE SMOOTH"
);
},
{
closed = 1;
nodes = (
"431 307 LINE",
"325 614 LINE",
"184 253 LINE"
);
}
);
userData = {
com.fontlab.hintData = {
hhints = (
{
position = -206;
width = 32;
},
{
position = 0;
width = 21;
},
{
position = 669;
width = 20;
}
);
vhints = (
{
position = 51;
width = 38;
},
{
position = 449;
width = 31;
}
);
};
};
width = 614;
}
);
unicode = 0104;
},
{
glyphname = Aring;
layers = (
{
layerId = master01;
paths = (
{
closed = 1;
nodes = (
"263 743 OFFCURVE",
"215 785 OFFCURVE",
"215 838 CURVE SMOOTH",
"215 902 OFFCURVE",
"280 948 OFFCURVE",
"345 948 CURVE SMOOTH",
"401 948 OFFCURVE",
"451 906 OFFCURVE",
"451 852 CURVE SMOOTH",
"451 787 OFFCURVE",
"386 743 OFFCURVE",
"322 743 CURVE SMOOTH"
);
},
{
closed = 1;
nodes = (
"279 920 OFFCURVE",
"238 873 OFFCURVE",
"238 838 CURVE SMOOTH",
"238 795 OFFCURVE",
"278 770 OFFCURVE",
"331 770 CURVE SMOOTH",
"371 770 OFFCURVE",
"428 801 OFFCURVE",
"428 850 CURVE SMOOTH",
"428 885 OFFCURVE",
"391 920 OFFCURVE",
"341 920 CURVE SMOOTH"
);
},
{
closed = 1;
nodes = (
"122 203 LINE",
"85 194 LINE",
"73 192 OFFCURVE",
"65 202 OFFCURVE",
"65 212 CURVE SMOOTH",
"65 222 OFFCURVE",
"72 229 OFFCURVE",
"80 231 CURVE SMOOTH",
"139 244 LINE",
"309 677 LINE SMOOTH",
"312 684 OFFCURVE",
"319 689 OFFCURVE",
"328 689 CURVE SMOOTH",
"338 689 OFFCURVE",
"344 683 OFFCURVE",
"346 677 CURVE SMOOTH",
"568 32 LINE SMOOTH",
"571 23 OFFCURVE",
"571 18 OFFCURVE",
"571 15 CURVE SMOOTH",
"571 4 OFFCURVE",
"561 -1 OFFCURVE",
"550 -1 CURVE SMOOTH",
"542 -1 OFFCURVE",
"536 3 OFFCURVE",
"533 11 CURVE SMOOTH",
"444 272 LINE",
"167 211 LINE",
"89 11 LINE SMOOTH",
"86 4 OFFCURVE",
"80 0 OFFCURVE",
"72 0 CURVE SMOOTH",
"60 0 OFFCURVE",
"51 8 OFFCURVE",
"51 18 CURVE SMOOTH",
"51 21 OFFCURVE",
"52 25 OFFCURVE",
"53 27 CURVE SMOOTH"
);
},
{
closed = 1;
nodes = (
"431 307 LINE",
"325 614 LINE",
"184 253 LINE"
);
}
);
userData = {
com.fontlab.hintData = {
hhints = (
{
position = 0;
width = 20;
},
{
position = 669;
width = 20;
},
{
position = 743;
width = 27;
},
{
position = 920;
width = 28;
}
);
vhints = (
{
position = 51;
width = 38;
},
{
position = 215;
width = 23;
},
{
position = 428;
width = 23;
},
{
position = 533;
width = 38;
}
);
};
};
width = 614;
}
);
unicode = 00C5;
},
{
glyphname = Atilde;
layers = (
{
layerId = master01;
paths = (
{
closed = 1;
nodes = (
"469 850 OFFCURVE",
"474 855 OFFCURVE",
"483 855 CURVE SMOOTH",
"492 855 OFFCURVE",
"497 849 OFFCURVE",
"497 841 CURVE SMOOTH",
"497 803 OFFCURVE",
"448 735 OFFCURVE",
"394 735 CURVE SMOOTH",
"353 735 OFFCURVE",
"332 766 OFFCURVE",
"313 792 CURVE SMOOTH",
"287 829 OFFCURVE",
"276 842 OFFCURVE",
"256 842 CURVE SMOOTH",
"240 842 OFFCURVE",
"200 829 OFFCURVE",
"183 771 CURVE SMOOTH",
"180 762 OFFCURVE",
"175 758 OFFCURVE",
"168 758 CURVE SMOOTH",
"158 758 OFFCURVE",
"155 766 OFFCURVE",
"155 774 CURVE SMOOTH",
"155 816 OFFCURVE",
"209 869 OFFCURVE",
"256 869 CURVE SMOOTH",
"297 869 OFFCURVE",
"318 839 OFFCURVE",
"337 811 CURVE SMOOTH",
"354 786 OFFCURVE",
"375 761 OFFCURVE",
"396 761 CURVE SMOOTH",
"434 761 OFFCURVE",
"455 812 OFFCURVE",
"467 844 CURVE SMOOTH"
);
},
{
closed = 1;
nodes = (
"122 203 LINE",
"85 194 LINE",
"73 192 OFFCURVE",
"65 202 OFFCURVE",
"65 212 CURVE SMOOTH",
"65 222 OFFCURVE",
"72 229 OFFCURVE",
"80 231 CURVE SMOOTH",
"139 244 LINE",
"309 677 LINE SMOOTH",
"312 684 OFFCURVE",
"319 689 OFFCURVE",
"328 689 CURVE SMOOTH",
"338 689 OFFCURVE",
"344 683 OFFCURVE",
"346 677 CURVE SMOOTH",
"568 32 LINE SMOOTH",
"571 23 OFFCURVE",
"571 18 OFFCURVE",
"571 15 CURVE SMOOTH",
"571 4 OFFCURVE",
"561 -1 OFFCURVE",
"550 -1 CURVE SMOOTH",
"542 -1 OFFCURVE",
"536 3 OFFCURVE",
"533 11 CURVE SMOOTH",
"444 272 LINE",
"167 211 LINE",
"89 11 LINE SMOOTH",
"86 4 OFFCURVE",
"80 0 OFFCURVE",
"72 0 CURVE SMOOTH",
"60 0 OFFCURVE",
"51 8 OFFCURVE",
"51 18 CURVE SMOOTH",
"51 21 OFFCURVE",
"52 25 OFFCURVE",
"53 27 CURVE SMOOTH"
);
},
{
closed = 1;
nodes = (
"431 307 LINE",
"325 614 LINE",
"184 253 LINE"
);
}
);
userData = {
com.fontlab.hintData = {
hhints = (
{
position = 0;
width = 20;
},
{
position = 669;
width = 20;
},
{
position = 735;
width = 26;
},
{
position = 842;
width = 27;
}
);
vhints = (
{
position = 51;
width = 38;
},
{
position = 155;
width = 28;
},
{
position = 467;
width = 30;
},
{
position = 533;
width = 38;
}
);
};
};
width = 614;
}
);
unicode = 00C3;
},
{
glyphname = AE;
layers = (
{
layerId = master01;
paths = (
{
closed = 1;
nodes = (
"969 35 LINE SMOOTH",
"979 35 OFFCURVE",
"987 28 OFFCURVE",
"987 18 CURVE SMOOTH",
"987 8 OFFCURVE",
"979 0 OFFCURVE",
"969 0 CURVE SMOOTH",
"527 0 LINE SMOOTH",
"518 0 OFFCURVE",
"510 8 OFFCURVE",
"510 18 CURVE SMOOTH",
"510 315 LINE",
"266 265 LINE",
"81 4 LINE SMOOTH",
"77 -1 OFFCURVE",
"72 -3 OFFCURVE",
"67 -3 CURVE SMOOTH",
"57 -3 OFFCURVE",
"49 5 OFFCURVE",
"49 13 CURVE SMOOTH",
"49 18 OFFCURVE",
"50 21 OFFCURVE",
"52 24 CURVE SMOOTH",
"217 255 LINE",
"171 246 LINE SMOOTH",
"161 244 OFFCURVE",
"154 254 OFFCURVE",
"154 262 CURVE SMOOTH",
"154 272 OFFCURVE",
"159 279 OFFCURVE",
"170 281 CURVE SMOOTH",
"246 297 LINE",
"513 674 LINE SMOOTH",
"515 677 OFFCURVE",
"519 681 OFFCURVE",
"524 681 CURVE SMOOTH",
"969 681 LINE SMOOTH",
"979 681 OFFCURVE",
"987 674 OFFCURVE",
"987 664 CURVE SMOOTH",
"987 654 OFFCURVE",
"979 646 OFFCURVE",
"969 646 CURVE SMOOTH",
"545 646 LINE",
"545 354 LINE",
"918 354 LINE SMOOTH",
"927 354 OFFCURVE",
"935 346 OFFCURVE",
"935 337 CURVE SMOOTH",
"935 327 OFFCURVE",
"927 318 OFFCURVE",
"918 318 CURVE SMOOTH",
"545 319 LINE",
"545 35 LINE"
);
},
{
closed = 1;
nodes = (
"510 351 LINE",
"510 608 LINE",
"296 307 LINE"
);
}
);
userData = {
com.fontlab.hintData = {
hhints = (
{
position = 0;
width = 35;
},
{
position = 319;
width = 35;
},
{
position = 646;
width = 35;
}
);
vhints = (
{
position = 510;
width = 35;
}
);
};
};
width = 1030;
}
);
unicode = 00C6;
},
{
glyphname = B;
layers = (
{
layerId = master01;
paths = (
{
closed = 1;
nodes = (
"80 -2 OFFCURVE",
"68 2 OFFCURVE",
"68 23 CURVE SMOOTH",
"68 662 LINE SMOOTH",
"68 673 OFFCURVE",
"76 681 OFFCURVE",
"86 681 CURVE SMOOTH",
"274 681 LINE SMOOTH",
"467 681 OFFCURVE",
"489 547 OFFCURVE",
"489 518 CURVE SMOOTH",
"489 446 OFFCURVE",
"447 398 OFFCURVE",
"406 368 CURVE",
"498 335 OFFCURVE",
"550 279 OFFCURVE",
"550 200 CURVE SMOOTH",
"550 72 OFFCURVE",
"403 -2 OFFCURVE",
"97 -2 CURVE SMOOTH"
);
},
{
closed = 1;
nodes = (
"106 35 LINE",
"326 35 OFFCURVE",
"513 84 OFFCURVE",
"513 200 CURVE SMOOTH",
"513 300 OFFCURVE",
"411 340 OFFCURVE",
"328 340 CURVE SMOOTH",
"106 340 LINE"
);
},
{
closed = 1;
nodes = (
"106 378 LINE",
"318 378 LINE SMOOTH",
"395 378 OFFCURVE",
"452 446 OFFCURVE",
"452 515 CURVE SMOOTH",
"452 536 OFFCURVE",
"440 643 OFFCURVE",
"274 643 CURVE SMOOTH",
"106 643 LINE"
);
}
);
userData = {
com.fontlab.hintData = {
hhints = (
{
position = -2;
width = 37;
},
{
position = 340;
width = 38;
},
{
position = 643;
width = 38;
}
);
vhints = (
{
position = 68;
width = 38;
},
{
position = 452;
width = 37;
},
{
position = 513;
width = 37;
}
);
};
};
width = 593;
}
);
unicode = 0042;
},
{
glyphname = C;
layers = (
{
layerId = master01;
paths = (
{
closed = 1;
nodes = (
"569 145 OFFCURVE",
"579 139 OFFCURVE",
"579 127 CURVE SMOOTH",
"579 123 OFFCURVE",
"577 118 OFFCURVE",
"575 115 CURVE SMOOTH",
"519 40 OFFCURVE",
"434 -2 OFFCURVE",
"338 -2 CURVE SMOOTH",
"182 -2 OFFCURVE",
"52 126 OFFCURVE",
"52 295 CURVE SMOOTH",
"52 500 OFFCURVE",
"210 684 OFFCURVE",
"347 684 CURVE SMOOTH",
"416 684 OFFCURVE",
"466 661 OFFCURVE",
"501 639 CURVE",
"506 650 OFFCURVE",
"515 658 OFFCURVE",
"523 658 CURVE SMOOTH",
"533 658 OFFCURVE",
"541 650 OFFCURVE",
"541 640 CURVE SMOOTH",
"541 574 LINE SMOOTH",
"541 564 OFFCURVE",
"532 554 OFFCURVE",
"522 554 CURVE SMOOTH",
"512 554 OFFCURVE",
"503 564 OFFCURVE",
"503 574 CURVE SMOOTH",
"503 583 LINE",
"481 607 OFFCURVE",
"438 646 OFFCURVE",
"347 646 CURVE SMOOTH",
"226 646 OFFCURVE",
"90 469 OFFCURVE",
"90 295 CURVE SMOOTH",
"90 110 OFFCURVE",
"242 36 OFFCURVE",
"338 36 CURVE SMOOTH",
"414 36 OFFCURVE",
"489 68 OFFCURVE",
"545 138 CURVE SMOOTH",
"549 142 OFFCURVE",
"554 145 OFFCURVE",
"559 145 CURVE SMOOTH"
);
}
);
userData = {
com.fontlab.hintData = {
hhints = (
{
position = -2;
width = 38;
},
{
position = 646;
width = 38;
}
);
vhints = (
{
position = 52;
width = 38;
},
{
position = 503;
width = 38;
}
);
};
};
width = 622;
}
);
unicode = 0043;
},
{
glyphname = Cacute;
layers = (
{
layerId = master01;
paths = (
{
closed = 1;
nodes = (
"569 145 OFFCURVE",
"579 139 OFFCURVE",
"579 127 CURVE SMOOTH",
"579 123 OFFCURVE",
"577 118 OFFCURVE",
"575 115 CURVE SMOOTH",
"519 40 OFFCURVE",
"434 -2 OFFCURVE",
"338 -2 CURVE SMOOTH",
"182 -2 OFFCURVE",
"52 126 OFFCURVE",
"52 295 CURVE SMOOTH",
"52 500 OFFCURVE",
"210 684 OFFCURVE",
"347 684 CURVE SMOOTH",
"416 684 OFFCURVE",
"466 661 OFFCURVE",
"501 639 CURVE",
"506 650 OFFCURVE",
"515 658 OFFCURVE",
"523 658 CURVE SMOOTH",
"533 658 OFFCURVE",
"541 650 OFFCURVE",
"541 640 CURVE SMOOTH",
"541 574 LINE SMOOTH",
"541 564 OFFCURVE",
"532 554 OFFCURVE",
"522 554 CURVE SMOOTH",
"512 554 OFFCURVE",
"503 564 OFFCURVE",
"503 574 CURVE SMOOTH",
"503 583 LINE",
"481 607 OFFCURVE",
"438 646 OFFCURVE",
"347 646 CURVE SMOOTH",
"226 646 OFFCURVE",
"90 469 OFFCURVE",
"90 295 CURVE SMOOTH",
"90 110 OFFCURVE",
"242 36 OFFCURVE",
"338 36 CURVE SMOOTH",
"414 36 OFFCURVE",
"489 68 OFFCURVE",
"545 138 CURVE SMOOTH",
"549 142 OFFCURVE",
"554 145 OFFCURVE",
"559 145 CURVE SMOOTH"
);
},
{
closed = 1;
nodes = (
"289 759 LINE SMOOTH",
"282 754 OFFCURVE",
"277 752 OFFCURVE",
"273 752 CURVE SMOOTH",
"264 752 OFFCURVE",
"256 760 OFFCURVE",
"256 769 CURVE SMOOTH",
"256 772 OFFCURVE",
"256 777 OFFCURVE",
"262 782 CURVE SMOOTH",
"390 886 LINE SMOOTH",
"399 893 OFFCURVE",
"406 900 OFFCURVE",
"416 900 CURVE SMOOTH",
"427 900 OFFCURVE",
"440 887 OFFCURVE",
"440 873 CURVE SMOOTH",
"440 866 OFFCURVE",
"439 862 OFFCURVE",
"432 857 CURVE SMOOTH"
);
}
);
userData = {
com.fontlab.hintData = {
hhints = (
{
position = -2;
width = 38;
},
{
position = 646;
width = 38;
}
);
vhints = (
{
position = 52;
width = 38;
},
{
position = 503;
width = 38;
}
);
};
};
width = 622;
}
);
unicode = 0106;
},
{
glyphname = Ccaron;
layers = (
{
layerId = master01;
paths = (
{
closed = 1;
nodes = (
"347 743 OFFCURVE",
"341 745 OFFCURVE",
"337 749 CURVE SMOOTH",
"225 862 LINE SMOOTH",
"221 866 OFFCURVE",
"219 869 OFFCURVE",
"219 874 CURVE SMOOTH",
"219 883 OFFCURVE",
"227 892 OFFCURVE",
"236 892 CURVE SMOOTH",
"241 892 OFFCURVE",
"245 890 OFFCURVE",
"249 887 CURVE SMOOTH",
"354 792 LINE",
"478 888 LINE SMOOTH",
"481 890 OFFCURVE",
"485 892 OFFCURVE",
"489 892 CURVE SMOOTH",
"499 892 OFFCURVE",
"507 883 OFFCURVE",
"507 874 CURVE SMOOTH",
"507 869 OFFCURVE",
"504 864 OFFCURVE",
"500 861 CURVE SMOOTH",
"365 748 LINE SMOOTH",
"361 745 OFFCURVE",
"356 743 OFFCURVE",
"352 743 CURVE SMOOTH"
);
},
{
closed = 1;
nodes = (
"569 145 OFFCURVE",
"579 139 OFFCURVE",
"579 127 CURVE SMOOTH",
"579 123 OFFCURVE",
"577 118 OFFCURVE",
"575 115 CURVE SMOOTH",
"519 40 OFFCURVE",
"434 -2 OFFCURVE",
"338 -2 CURVE SMOOTH",
"182 -2 OFFCURVE",
"52 126 OFFCURVE",
"52 295 CURVE SMOOTH",
"52 500 OFFCURVE",
"210 684 OFFCURVE",
"347 684 CURVE SMOOTH",
"416 684 OFFCURVE",
"466 661 OFFCURVE",
"501 639 CURVE",
"506 650 OFFCURVE",
"515 658 OFFCURVE",
"523 658 CURVE SMOOTH",
"533 658 OFFCURVE",
"541 650 OFFCURVE",
"541 640 CURVE SMOOTH",
"541 574 LINE SMOOTH",
"541 564 OFFCURVE",
"532 554 OFFCURVE",
"522 554 CURVE SMOOTH",
"512 554 OFFCURVE",
"503 564 OFFCURVE",
"503 574 CURVE SMOOTH",
"503 583 LINE",
"481 607 OFFCURVE",
"438 646 OFFCURVE",
"347 646 CURVE SMOOTH",
"226 646 OFFCURVE",
"90 469 OFFCURVE",
"90 295 CURVE SMOOTH",
"90 110 OFFCURVE",
"242 36 OFFCURVE",
"338 36 CURVE SMOOTH",
"414 36 OFFCURVE",
"489 68 OFFCURVE",
"545 138 CURVE SMOOTH",
"549 142 OFFCURVE",
"554 145 OFFCURVE",
"559 145 CURVE SMOOTH"
);
}
);
userData = {
com.fontlab.hintData = {
hhints = (
{
position = -2;
width = 38;
},
{
position = 646;
width = 38;
}
);
vhints = (
{
position = 52;
width = 38;
},
{
position = 503;
width = 38;
}
);
};
};
width = 622;
}
);
unicode = 010C;
},
{
glyphname = Ccedilla;
layers = (
{
layerId = master01;
paths = (
{
closed = 1;
nodes = (
"155 26 OFFCURVE",
"52 144 OFFCURVE",
"52 295 CURVE SMOOTH",
"52 500 OFFCURVE",
"210 684 OFFCURVE",
"347 684 CURVE SMOOTH",
"416 684 OFFCURVE",
"466 661 OFFCURVE",
"501 639 CURVE",
"506 650 OFFCURVE",
"515 658 OFFCURVE",
"523 658 CURVE SMOOTH",
"533 658 OFFCURVE",
"541 650 OFFCURVE",
"541 640 CURVE SMOOTH",
"541 574 LINE SMOOTH",
"541 564 OFFCURVE",
"532 554 OFFCURVE",
"522 554 CURVE SMOOTH",
"512 554 OFFCURVE",
"503 564 OFFCURVE",
"503 574 CURVE SMOOTH",
"503 583 LINE",
"481 607 OFFCURVE",
"438 646 OFFCURVE",
"347 646 CURVE SMOOTH",
"226 646 OFFCURVE",
"90 469 OFFCURVE",
"90 295 CURVE SMOOTH",
"90 110 OFFCURVE",
"242 36 OFFCURVE",
"338 36 CURVE SMOOTH",
"414 36 OFFCURVE",
"489 68 OFFCURVE",
"545 138 CURVE SMOOTH",
"549 142 OFFCURVE",
"554 145 OFFCURVE",
"559 145 CURVE SMOOTH",
"569 145 OFFCURVE",
"579 139 OFFCURVE",
"579 127 CURVE SMOOTH",
"579 123 OFFCURVE",
"577 118 OFFCURVE",
"575 115 CURVE SMOOTH",
"519 40 OFFCURVE",
"434 -2 OFFCURVE",
"338 -2 CURVE SMOOTH",
"325 -2 OFFCURVE",
"313 -1 OFFCURVE",
"301 0 CURVE",
"300 -41 LINE",
"371 -41 OFFCURVE",
"406 -78 OFFCURVE",
"406 -123 CURVE SMOOTH",
"406 -170 OFFCURVE",
"369 -209 OFFCURVE",
"322 -209 CURVE SMOOTH",
"291 -209 OFFCURVE",
"250 -189 OFFCURVE",
"250 -163 CURVE SMOOTH",
"250 -157 OFFCURVE",
"255 -154 OFFCURVE",
"260 -154 CURVE SMOOTH",
"265 -154 OFFCURVE",
"268 -159 OFFCURVE",
"272 -164 CURVE SMOOTH",
"281 -174 OFFCURVE",
"293 -187 OFFCURVE",
"322 -187 CURVE SMOOTH",
"356 -187 OFFCURVE",
"383 -159 OFFCURVE",
"383 -125 CURVE SMOOTH",
"383 -91 OFFCURVE",
"356 -64 OFFCURVE",
"322 -64 CURVE SMOOTH",
"304 -64 OFFCURVE",
"293 -70 OFFCURVE",
"286 -75 CURVE SMOOTH",
"282 -78 OFFCURVE",
"279 -79 OFFCURVE",
"276 -79 CURVE SMOOTH",
"269 -79 OFFCURVE",
"266 -74 OFFCURVE",
"266 -70 CURVE SMOOTH",
"266 -64 OFFCURVE",
"284 -8 OFFCURVE",
"288 2 CURVE"
);
}
);
userData = {
com.fontlab.hintData = {
hhints = (
{
position = -209;
width = 22;
},
{
position = -64;
width = 23;
},
{
position = -2;
width = 38;
},
{
position = 646;
width = 38;
}
);
vhints = (
{
position = 52;
width = 38;
},
{
position = 266;
width = 34;
},
{
position = 383;
width = 23;
},
{
position = 503;
width = 38;
}
);
};
};
width = 622;
}
);
unicode = 00C7;
},
{
glyphname = Ccircumflex;
layers = (
{
layerId = master01;
paths = (
{
closed = 1;
nodes = (
"569 145 OFFCURVE",
"579 139 OFFCURVE",
"579 127 CURVE SMOOTH",
"579 123 OFFCURVE",
"577 118 OFFCURVE",
"575 115 CURVE SMOOTH",
"519 40 OFFCURVE",
"434 -2 OFFCURVE",
"338 -2 CURVE SMOOTH",
"182 -2 OFFCURVE",
"52 126 OFFCURVE",
"52 295 CURVE SMOOTH",
"52 500 OFFCURVE",
"210 684 OFFCURVE",
"347 684 CURVE SMOOTH",
"416 684 OFFCURVE",
"466 661 OFFCURVE",
"501 639 CURVE",
"506 650 OFFCURVE",
"515 658 OFFCURVE",
"523 658 CURVE SMOOTH",
"533 658 OFFCURVE",
"541 650 OFFCURVE",
"541 640 CURVE SMOOTH",
"541 574 LINE SMOOTH",
"541 564 OFFCURVE",
"532 554 OFFCURVE",
"522 554 CURVE SMOOTH",
"512 554 OFFCURVE",
"503 564 OFFCURVE",
"503 574 CURVE SMOOTH",
"503 583 LINE",
"481 607 OFFCURVE",
"438 646 OFFCURVE",
"347 646 CURVE SMOOTH",
"226 646 OFFCURVE",
"90 469 OFFCURVE",
"90 295 CURVE SMOOTH",
"90 110 OFFCURVE",
"242 36 OFFCURVE",
"338 36 CURVE SMOOTH",
"414 36 OFFCURVE",
"489 68 OFFCURVE",
"545 138 CURVE SMOOTH",
"549 142 OFFCURVE",
"554 145 OFFCURVE",
"559 145 CURVE SMOOTH"
);
},
{
closed = 1;
nodes = (
"371 902 OFFCURVE",
"377 900 OFFCURVE",
"381 896 CURVE SMOOTH",
"493 783 LINE SMOOTH",
"497 779 OFFCURVE",
"499 776 OFFCURVE",
"499 771 CURVE SMOOTH",
"499 762 OFFCURVE",
"491 753 OFFCURVE",
"482 753 CURVE SMOOTH",
"477 753 OFFCURVE",
"473 755 OFFCURVE",
"469 758 CURVE SMOOTH",
"364 853 LINE",
"240 757 LINE SMOOTH",
"237 755 OFFCURVE",
"233 753 OFFCURVE",
"229 753 CURVE SMOOTH",
"219 753 OFFCURVE",
"211 762 OFFCURVE",
"211 771 CURVE SMOOTH",
"211 776 OFFCURVE",
"214 781 OFFCURVE",
"218 784 CURVE SMOOTH",
"353 897 LINE SMOOTH",
"357 900 OFFCURVE",
"362 902 OFFCURVE",
"366 902 CURVE SMOOTH"
);
}
);
userData = {
com.fontlab.hintData = {
hhints = (
{
position = -2;
width = 38;
},
{
position = 646;
width = 38;
}
);
vhints = (
{
position = 52;
width = 38;
},
{
position = 503;
width = 38;
}
);
};
};
width = 622;
}
);
unicode = 0108;
},
{
glyphname = D;
layers = (
{
layerId = master01;
paths = (
{
closed = 1;
nodes = (
"148 -21 OFFCURVE",
"90 -5 OFFCURVE",
"82 -3 CURVE SMOOTH",
"74 -1 OFFCURVE",
"68 7 OFFCURVE",
"68 15 CURVE SMOOTH",
"68 662 LINE SMOOTH",
"68 673 OFFCURVE",
"77 681 OFFCURVE",
"87 681 CURVE SMOOTH",
"252 681 OFFCURVE",
"557 625 OFFCURVE",
"557 299 CURVE SMOOTH",
"557 76 OFFCURVE",
"399 -21 OFFCURVE",
"207 -21 CURVE SMOOTH"
);
},
{
closed = 1;
nodes = (
"106 31 LINE",
"132 25 OFFCURVE",
"173 18 OFFCURVE",
"207 18 CURVE SMOOTH",
"396 18 OFFCURVE",
"519 109 OFFCURVE",
"519 299 CURVE SMOOTH",
"519 545 OFFCURVE",
"326 633 OFFCURVE",
"106 643 CURVE"
);
}
);
userData = {
com.fontlab.hintData = {
hhints = (
{
position = -21;
width = 39;
},
{
position = 643;
width = 38;
}
);
vhints = (
{
position = 68;
width = 38;
},
{
position = 519;
width = 38;
}
);
};
};
width = 610;
}
);
unicode = 0044;
},
{
glyphname = Eth;
layers = (
{
layerId = master01;
paths = (
{
closed = 1;
nodes = (
"211 -21 OFFCURVE",
"153 -5 OFFCURVE",
"145 -3 CURVE SMOOTH",
"136 -1 OFFCURVE",
"130 7 OFFCURVE",
"130 15 CURVE SMOOTH",
"130 290 LINE",
"55 290 LINE SMOOTH",
"45 290 OFFCURVE",
"37 298 OFFCURVE",
"37 308 CURVE SMOOTH",
"37 318 OFFCURVE",
"45 328 OFFCURVE",
"55 328 CURVE SMOOTH",
"130 328 LINE",
"130 662 LINE SMOOTH",
"130 673 OFFCURVE",
"140 681 OFFCURVE",
"150 681 CURVE SMOOTH",
"314 681 OFFCURVE",
"602 625 OFFCURVE",
"602 299 CURVE SMOOTH",
"602 76 OFFCURVE",
"462 -21 OFFCURVE",
"269 -21 CURVE SMOOTH"
);
},
{
closed = 1;
nodes = (
"165 31 LINE",
"192 25 OFFCURVE",
"235 18 OFFCURVE",
"269 18 CURVE SMOOTH",
"459 18 OFFCURVE",
"566 109 OFFCURVE",
"566 299 CURVE SMOOTH",
"566 545 OFFCURVE",
"386 634 OFFCURVE",
"165 643 CURVE",
"165 328 LINE",
"283 328 LINE SMOOTH",
"293 328 OFFCURVE",
"301 318 OFFCURVE",
"301 308 CURVE SMOOTH",
"301 298 OFFCURVE",
"293 290 OFFCURVE",
"283 290 CURVE SMOOTH",
"165 290 LINE"
);
}
);
userData = {
com.fontlab.hintData = {
hhints = (
{
position = -21;
width = 39;
},
{
position = 290;
width = 38;
},
{
position = 643;
width = 38;
}
);
vhints = (
{
position = 130;
width = 35;
},
{
position = 566;
width = 36;
}
);
};
};
width = 645;
}
);
unicode = 00D0;
},
{
glyphname = Dcaron;
layers = (
{
layerId = master01;
paths = (
{
closed = 1;
nodes = (
"148 -21 OFFCURVE",
"90 -5 OFFCURVE",
"82 -3 CURVE SMOOTH",
"74 -1 OFFCURVE",
"68 7 OFFCURVE",
"68 15 CURVE SMOOTH",
"68 662 LINE SMOOTH",
"68 673 OFFCURVE",
"77 681 OFFCURVE",
"87 681 CURVE SMOOTH",
"252 681 OFFCURVE",
"557 625 OFFCURVE",
"557 299 CURVE SMOOTH",
"557 76 OFFCURVE",
"399 -21 OFFCURVE",
"207 -21 CURVE SMOOTH"
);
},
{
closed = 1;
nodes = (
"106 31 LINE",
"132 25 OFFCURVE",
"173 18 OFFCURVE",
"207 18 CURVE SMOOTH",
"396 18 OFFCURVE",
"519 109 OFFCURVE",
"519 299 CURVE SMOOTH",
"519 545 OFFCURVE",
"326 633 OFFCURVE",
"106 643 CURVE"
);
},
{
closed = 1;
nodes = (
"258 743 OFFCURVE",
"252 745 OFFCURVE",
"248 749 CURVE SMOOTH",
"136 862 LINE SMOOTH",
"132 866 OFFCURVE",
"130 869 OFFCURVE",
"130 874 CURVE SMOOTH",
"130 883 OFFCURVE",
"138 892 OFFCURVE",
"147 892 CURVE SMOOTH",
"152 892 OFFCURVE",
"156 890 OFFCURVE",
"160 887 CURVE SMOOTH",
"265 792 LINE",
"389 888 LINE SMOOTH",
"392 890 OFFCURVE",
"396 892 OFFCURVE",
"400 892 CURVE SMOOTH",
"410 892 OFFCURVE",
"418 883 OFFCURVE",
"418 874 CURVE SMOOTH",
"418 869 OFFCURVE",
"415 864 OFFCURVE",
"411 861 CURVE SMOOTH",
"276 748 LINE SMOOTH",
"272 745 OFFCURVE",
"267 743 OFFCURVE",
"263 743 CURVE SMOOTH"
);
}
);
userData = {
com.fontlab.hintData = {
hhints = (
{
position = -21;
width = 39;
},
{
position = 643;
width = 38;
}
);
vhints = (
{
position = 68;
width = 38;
},
{
position = 519;
width = 38;
}
);
};
};
width = 610;
}
);
unicode = 010E;
},
{
glyphname = Dcroat;
layers = (
{
layerId = master01;
paths = (
{
closed = 1;
nodes = (
"211 -21 OFFCURVE",
"153 -5 OFFCURVE",
"145 -3 CURVE SMOOTH",
"136 -1 OFFCURVE",
"130 7 OFFCURVE",
"130 15 CURVE SMOOTH",
"130 290 LINE",
"55 290 LINE SMOOTH",
"45 290 OFFCURVE",
"37 298 OFFCURVE",
"37 308 CURVE SMOOTH",
"37 318 OFFCURVE",
"45 328 OFFCURVE",
"55 328 CURVE SMOOTH",
"130 328 LINE",
"130 662 LINE SMOOTH",
"130 673 OFFCURVE",
"140 681 OFFCURVE",
"150 681 CURVE SMOOTH",
"314 681 OFFCURVE",
"602 625 OFFCURVE",
"602 299 CURVE SMOOTH",
"602 76 OFFCURVE",
"462 -21 OFFCURVE",
"269 -21 CURVE SMOOTH"
);
},
{
closed = 1;
nodes = (
"165 31 LINE",
"192 25 OFFCURVE",
"235 18 OFFCURVE",
"269 18 CURVE SMOOTH",
"459 18 OFFCURVE",
"566 109 OFFCURVE",
"566 299 CURVE SMOOTH",
"566 545 OFFCURVE",
"386 634 OFFCURVE",
"165 643 CURVE",
"165 328 LINE",
"283 328 LINE SMOOTH",
"293 328 OFFCURVE",
"301 318 OFFCURVE",
"301 308 CURVE SMOOTH",
"301 298 OFFCURVE",
"293 290 OFFCURVE",
"283 290 CURVE SMOOTH",
"165 290 LINE"
);
}
);
userData = {
com.fontlab.hintData = {
hhints = (
{
position = -21;
width = 39;
},
{
position = 290;
width = 38;
},
{
position = 643;
width = 38;
}
);
vhints = (
{
position = 130;
width = 35;
},
{
position = 566;
width = 36;
}
);
};
};
width = 645;
}
);
unicode = 0110;
},
{
glyphname = E;
layers = (
{
layerId = master01;
paths = (
{
closed = 1;
nodes = (
"526 38 LINE SMOOTH",
"536 38 OFFCURVE",
"545 30 OFFCURVE",
"545 20 CURVE SMOOTH",
"545 9 OFFCURVE",
"536 0 OFFCURVE",
"526 0 CURVE SMOOTH",
"87 0 LINE SMOOTH",
"77 0 OFFCURVE",
"68 9 OFFCURVE",
"68 20 CURVE SMOOTH",
"68 664 LINE SMOOTH",
"68 674 OFFCURVE",
"77 682 OFFCURVE",
"87 682 CURVE SMOOTH",
"528 682 LINE SMOOTH",
"538 682 OFFCURVE",
"547 674 OFFCURVE",
"547 664 CURVE SMOOTH",
"547 653 OFFCURVE",
"538 644 OFFCURVE",
"528 644 CURVE SMOOTH",
"106 644 LINE",
"106 372 LINE",
"478 372 LINE SMOOTH",
"488 372 OFFCURVE",
"496 364 OFFCURVE",
"496 353 CURVE SMOOTH",
"496 343 OFFCURVE",
"488 334 OFFCURVE",
"478 334 CURVE SMOOTH",
"106 334 LINE",
"106 38 LINE"
);
}
);
userData = {
com.fontlab.hintData = {
hhints = (
{
position = 0;
width = 38;
},
{
position = 334;
width = 38;
},
{
position = 644;
width = 38;
}
);
vhints = (
{
position = 68;
width = 38;
}
);
};
};
width = 600;
}
);
unicode = 0045;
},
{
glyphname = Eacute;
layers = (
{
layerId = master01;
paths = (
{
closed = 1;
nodes = (
"526 38 LINE SMOOTH",
"536 38 OFFCURVE",
"545 30 OFFCURVE",
"545 20 CURVE SMOOTH",
"545 9 OFFCURVE",
"536 0 OFFCURVE",
"526 0 CURVE SMOOTH",
"87 0 LINE SMOOTH",
"77 0 OFFCURVE",
"68 9 OFFCURVE",
"68 20 CURVE SMOOTH",
"68 664 LINE SMOOTH",
"68 674 OFFCURVE",
"77 682 OFFCURVE",
"87 682 CURVE SMOOTH",
"528 682 LINE SMOOTH",
"538 682 OFFCURVE",
"547 674 OFFCURVE",
"547 664 CURVE SMOOTH",
"547 653 OFFCURVE",
"538 644 OFFCURVE",
"528 644 CURVE SMOOTH",
"106 644 LINE",
"106 372 LINE",
"478 372 LINE SMOOTH",
"488 372 OFFCURVE",
"496 364 OFFCURVE",
"496 353 CURVE SMOOTH",
"496 343 OFFCURVE",
"488 334 OFFCURVE",
"478 334 CURVE SMOOTH",
"106 334 LINE",
"106 38 LINE"
);
},
{
closed = 1;
nodes = (
"251 759 LINE SMOOTH",
"244 754 OFFCURVE",
"239 752 OFFCURVE",
"235 752 CURVE SMOOTH",
"226 752 OFFCURVE",
"218 760 OFFCURVE",
"218 769 CURVE SMOOTH",
"218 772 OFFCURVE",
"218 777 OFFCURVE",
"224 782 CURVE SMOOTH",
"352 886 LINE SMOOTH",
"361 893 OFFCURVE",
"368 900 OFFCURVE",
"378 900 CURVE SMOOTH",
"389 900 OFFCURVE",
"402 887 OFFCURVE",
"402 873 CURVE SMOOTH",
"402 866 OFFCURVE",
"401 862 OFFCURVE",
"394 857 CURVE SMOOTH"
);
}
);
userData = {
com.fontlab.hintData = {
hhints = (
{
position = 0;
width = 38;
},
{
position = 334;
width = 38;
},
{
position = 644;
width = 38;
}
);
vhints = (
{
position = 68;
width = 38;
}
);
};
};
width = 600;
}
);
unicode = 00C9;
},
{
glyphname = Ecaron;
layers = (
{
layerId = master01;
paths = (
{
closed = 1;
nodes = (
"526 38 LINE SMOOTH",
"536 38 OFFCURVE",
"545 30 OFFCURVE",
"545 20 CURVE SMOOTH",
"545 9 OFFCURVE",
"536 0 OFFCURVE",
"526 0 CURVE SMOOTH",
"87 0 LINE SMOOTH",
"77 0 OFFCURVE",
"68 9 OFFCURVE",
"68 20 CURVE SMOOTH",
"68 664 LINE SMOOTH",
"68 674 OFFCURVE",
"77 682 OFFCURVE",
"87 682 CURVE SMOOTH",
"528 682 LINE SMOOTH",
"538 682 OFFCURVE",
"547 674 OFFCURVE",
"547 664 CURVE SMOOTH",
"547 653 OFFCURVE",
"538 644 OFFCURVE",
"528 644 CURVE SMOOTH",
"106 644 LINE",
"106 372 LINE",
"478 372 LINE SMOOTH",
"488 372 OFFCURVE",
"496 364 OFFCURVE",
"496 353 CURVE SMOOTH",
"496 343 OFFCURVE",
"488 334 OFFCURVE",
"478 334 CURVE SMOOTH",
"106 334 LINE",
"106 38 LINE"
);
},
{
closed = 1;
nodes = (
"296 743 OFFCURVE",
"290 745 OFFCURVE",
"286 749 CURVE SMOOTH",
"174 862 LINE SMOOTH",
"170 866 OFFCURVE",
"168 869 OFFCURVE",
"168 874 CURVE SMOOTH",
"168 883 OFFCURVE",
"176 892 OFFCURVE",
"185 892 CURVE SMOOTH",
"190 892 OFFCURVE",
"194 890 OFFCURVE",
"198 887 CURVE SMOOTH",
"303 792 LINE",
"427 888 LINE SMOOTH",
"430 890 OFFCURVE",
"434 892 OFFCURVE",
"438 892 CURVE SMOOTH",
"448 892 OFFCURVE",
"456 883 OFFCURVE",
"456 874 CURVE SMOOTH",
"456 869 OFFCURVE",
"453 864 OFFCURVE",
"449 861 CURVE SMOOTH",
"314 748 LINE SMOOTH",
"310 745 OFFCURVE",
"305 743 OFFCURVE",
"301 743 CURVE SMOOTH"
);
}
);
userData = {
com.fontlab.hintData = {
hhints = (
{
position = 0;
width = 38;
},
{
position = 334;
width = 38;
},
{
position = 644;
width = 38;
}
);
vhints = (
{
position = 68;
width = 38;
}
);
};
};
width = 600;
}
);
unicode = 011A;
},
{
glyphname = Ecircumflex;
layers = (
{
layerId = master01;
paths = (
{
closed = 1;
nodes = (
"333 902 OFFCURVE",
"339 900 OFFCURVE",
"343 896 CURVE SMOOTH",
"455 783 LINE SMOOTH",
"459 779 OFFCURVE",
"461 776 OFFCURVE",
"461 771 CURVE SMOOTH",
"461 762 OFFCURVE",
"453 753 OFFCURVE",
"444 753 CURVE SMOOTH",
"439 753 OFFCURVE",
"435 755 OFFCURVE",
"431 758 CURVE SMOOTH",
"326 853 LINE",
"202 757 LINE SMOOTH",
"199 755 OFFCURVE",
"195 753 OFFCURVE",
"191 753 CURVE SMOOTH",
"181 753 OFFCURVE",
"173 762 OFFCURVE",
"173 771 CURVE SMOOTH",
"173 776 OFFCURVE",
"176 781 OFFCURVE",
"180 784 CURVE SMOOTH",
"315 897 LINE SMOOTH",
"319 900 OFFCURVE",
"324 902 OFFCURVE",
"328 902 CURVE SMOOTH"
);
},
{
closed = 1;
nodes = (
"526 38 LINE SMOOTH",
"536 38 OFFCURVE",
"545 30 OFFCURVE",
"545 20 CURVE SMOOTH",
"545 9 OFFCURVE",
"536 0 OFFCURVE",
"526 0 CURVE SMOOTH",
"87 0 LINE SMOOTH",
"77 0 OFFCURVE",
"68 9 OFFCURVE",
"68 20 CURVE SMOOTH",
"68 664 LINE SMOOTH",
"68 674 OFFCURVE",
"77 682 OFFCURVE",
"87 682 CURVE SMOOTH",
"528 682 LINE SMOOTH",
"538 682 OFFCURVE",
"547 674 OFFCURVE",
"547 664 CURVE SMOOTH",
"547 653 OFFCURVE",
"538 644 OFFCURVE",
"528 644 CURVE SMOOTH",
"106 644 LINE",
"106 372 LINE",
"478 372 LINE SMOOTH",
"488 372 OFFCURVE",
"496 364 OFFCURVE",
"496 353 CURVE SMOOTH",
"496 343 OFFCURVE",
"488 334 OFFCURVE",
"478 334 CURVE SMOOTH",
"106 334 LINE",
"106 38 LINE"
);
}
);
userData = {
com.fontlab.hintData = {
hhints = (
{
position = 0;
width = 38;
},
{
position = 334;
width = 38;
},
{
position = 644;
width = 38;
}
);
vhints = (
{
position = 68;
width = 38;
}
);
};
};
width = 600;
}
);
unicode = 00CA;
},
{
glyphname = Edieresis;
layers = (
{
layerId = master01;
paths = (
{
closed = 1;
nodes = (
"270 771 OFFCURVE",
"251 755 OFFCURVE",
"227 755 CURVE SMOOTH",
"208 755 OFFCURVE",
"191 768 OFFCURVE",
"191 785 CURVE SMOOTH",
"191 804 OFFCURVE",
"210 820 OFFCURVE",
"233 820 CURVE SMOOTH",
"252 820 OFFCURVE",
"270 807 OFFCURVE",
"270 790 CURVE SMOOTH"
);
},
{
closed = 1;
nodes = (
"433 771 OFFCURVE",
"415 755 OFFCURVE",
"391 755 CURVE SMOOTH",
"372 755 OFFCURVE",
"355 768 OFFCURVE",
"355 785 CURVE SMOOTH",
"355 804 OFFCURVE",
"374 820 OFFCURVE",
"397 820 CURVE SMOOTH",
"416 820 OFFCURVE",
"433 807 OFFCURVE",
"433 790 CURVE SMOOTH"
);
},
{
closed = 1;
nodes = (
"526 38 LINE SMOOTH",
"536 38 OFFCURVE",
"545 30 OFFCURVE",
"545 20 CURVE SMOOTH",
"545 9 OFFCURVE",
"536 0 OFFCURVE",
"526 0 CURVE SMOOTH",
"87 0 LINE SMOOTH",
"77 0 OFFCURVE",
"68 9 OFFCURVE",
"68 20 CURVE SMOOTH",
"68 664 LINE SMOOTH",
"68 674 OFFCURVE",
"77 682 OFFCURVE",
"87 682 CURVE SMOOTH",
"528 682 LINE SMOOTH",
"538 682 OFFCURVE",
"547 674 OFFCURVE",
"547 664 CURVE SMOOTH",
"547 653 OFFCURVE",
"538 644 OFFCURVE",
"528 644 CURVE SMOOTH",
"106 644 LINE",
"106 372 LINE",
"478 372 LINE SMOOTH",
"488 372 OFFCURVE",
"496 364 OFFCURVE",
"496 353 CURVE SMOOTH",
"496 343 OFFCURVE",
"488 334 OFFCURVE",
"478 334 CURVE SMOOTH",
"106 334 LINE",
"106 38 LINE"
);
}
);
userData = {
com.fontlab.hintData = {
hhints = (
{
position = 0;
width = 38;
},
{
position = 334;
width = 38;
},
{
position = 644;
width = 38;
},
{
position = 755;
width = 65;
}
);
vhints = (
{
position = 68;
width = 38;
},
{
position = 191;
width = 79;
},
{
position = 355;
width = 78;
}
);
};
};
width = 600;
}
);
unicode = 00CB;
},
{
glyphname = Egrave;
layers = (
{
layerId = master01;
paths = (
{
closed = 1;
nodes = (
"526 38 LINE SMOOTH",
"536 38 OFFCURVE",
"545 30 OFFCURVE",
"545 20 CURVE SMOOTH",
"545 9 OFFCURVE",
"536 0 OFFCURVE",
"526 0 CURVE SMOOTH",
"87 0 LINE SMOOTH",
"77 0 OFFCURVE",
"68 9 OFFCURVE",
"68 20 CURVE SMOOTH",
"68 664 LINE SMOOTH",
"68 674 OFFCURVE",
"77 682 OFFCURVE",
"87 682 CURVE SMOOTH",
"528 682 LINE SMOOTH",
"538 682 OFFCURVE",
"547 674 OFFCURVE",
"547 664 CURVE SMOOTH",
"547 653 OFFCURVE",
"538 644 OFFCURVE",
"528 644 CURVE SMOOTH",
"106 644 LINE",
"106 372 LINE",
"478 372 LINE SMOOTH",
"488 372 OFFCURVE",
"496 364 OFFCURVE",
"496 353 CURVE SMOOTH",
"496 343 OFFCURVE",
"488 334 OFFCURVE",
"478 334 CURVE SMOOTH",
"106 334 LINE",
"106 38 LINE"
);
},
{
closed = 1;
nodes = (
"354 765 LINE SMOOTH",
"358 760 OFFCURVE",
"360 756 OFFCURVE",
"360 752 CURVE SMOOTH",
"360 742 OFFCURVE",
"350 736 OFFCURVE",
"341 736 CURVE SMOOTH",
"337 736 OFFCURVE",
"332 738 OFFCURVE",
"328 742 CURVE SMOOTH",
"205 868 LINE SMOOTH",
"200 874 OFFCURVE",
"197 880 OFFCURVE",
"197 887 CURVE SMOOTH",
"197 901 OFFCURVE",
"210 912 OFFCURVE",
"224 912 CURVE SMOOTH",
"232 912 OFFCURVE",
"239 909 OFFCURVE",
"245 901 CURVE SMOOTH"
);
}
);
userData = {
com.fontlab.hintData = {
hhints = (
{
position = 0;
width = 38;
},
{
position = 334;
width = 38;
},
{
position = 644;
width = 38;
}
);
vhints = (
{
position = 68;
width = 38;
}
);
};
};
width = 600;
}
);
unicode = 00C8;
},
{
glyphname = Eogonek;
layers = (
{
layerId = master01;
paths = (
{
closed = 1;
nodes = (
"410 -206 OFFCURVE",
"369 -164 OFFCURVE",
"369 -109 CURVE SMOOTH",
"369 -64 OFFCURVE",
"397 -27 OFFCURVE",
"430 0 CURVE",
"87 0 LINE SMOOTH",
"77 0 OFFCURVE",
"68 9 OFFCURVE",
"68 20 CURVE SMOOTH",
"68 664 LINE SMOOTH",
"68 674 OFFCURVE",
"77 682 OFFCURVE",
"87 682 CURVE SMOOTH",
"528 682 LINE SMOOTH",
"538 682 OFFCURVE",
"547 674 OFFCURVE",
"547 664 CURVE SMOOTH",
"547 653 OFFCURVE",
"538 644 OFFCURVE",
"528 644 CURVE SMOOTH",
"106 644 LINE",
"106 372 LINE",
"478 372 LINE SMOOTH",
"488 372 OFFCURVE",
"496 364 OFFCURVE",
"496 353 CURVE SMOOTH",
"496 343 OFFCURVE",
"488 334 OFFCURVE",
"478 334 CURVE SMOOTH",
"106 334 LINE",
"106 38 LINE",
"526 38 LINE SMOOTH",
"536 38 OFFCURVE",
"545 30 OFFCURVE",
"545 20 CURVE SMOOTH",
"545 9 OFFCURVE",
"536 0 OFFCURVE",
"526 0 CURVE SMOOTH",
"482 0 LINE",
"466 -12 LINE SMOOTH",
"438 -33 OFFCURVE",
"400 -61 OFFCURVE",
"400 -110 CURVE SMOOTH",
"400 -149 OFFCURVE",
"430 -174 OFFCURVE",
"468 -174 CURVE SMOOTH",
"491 -174 OFFCURVE",
"514 -166 OFFCURVE",
"536 -150 CURVE SMOOTH",
"539 -148 OFFCURVE",
"542 -147 OFFCURVE",
"545 -147 CURVE SMOOTH",
"552 -147 OFFCURVE",
"560 -154 OFFCURVE",
"560 -162 CURVE SMOOTH",
"560 -186 OFFCURVE",
"501 -206 OFFCURVE",
"467 -206 CURVE SMOOTH"
);
}
);
userData = {
com.fontlab.hintData = {
hhints = (
{
position = -206;
width = 32;
},
{
position = 0;
width = 38;
},
{
position = 334;
width = 38;
},
{
position = 644;
width = 38;
}
);
vhints = (
{
position = 68;
width = 38;
},
{
position = 369;
width = 31;
}
);
};
};
width = 600;
}
);
unicode = 0118;
},
{
glyphname = F;
layers = (
{
layerId = master01;
paths = (
{
closed = 1;
nodes = (
"101 19 LINE SMOOTH",
"101 8 OFFCURVE",
"92 -1 OFFCURVE",
"82 -1 CURVE SMOOTH",
"72 -1 OFFCURVE",
"63 8 OFFCURVE",
"63 19 CURVE SMOOTH",
"63 661 LINE SMOOTH",
"63 672 OFFCURVE",
"72 681 OFFCURVE",
"82 681 CURVE SMOOTH",
"523 681 LINE SMOOTH",
"533 681 OFFCURVE",
"542 672 OFFCURVE",
"542 661 CURVE SMOOTH",
"542 651 OFFCURVE",
"533 643 OFFCURVE",
"523 643 CURVE SMOOTH",
"101 643 LINE",
"101 371 LINE",
"431 371 LINE SMOOTH",
"442 371 OFFCURVE",
"450 362 OFFCURVE",
"450 351 CURVE SMOOTH",
"450 341 OFFCURVE",
"442 333 OFFCURVE",
"431 333 CURVE SMOOTH",
"101 333 LINE"
);
}
);
userData = {
com.fontlab.hintData = {
hhints = (
{
position = -1;
width = 21;
},
{
position = 333;
width = 38;
},
{
position = 643;
width = 38;
}
);
vhints = (
{
position = 63;
width = 38;
}
);
};
};
width = 535;
}
);
unicode = 0046;
},
{
glyphname = G;
layers = (
{
layerId = master01;
paths = (
{
closed = 1;
nodes = (
"686 265 OFFCURVE",
"691 260 OFFCURVE",
"691 250 CURVE SMOOTH",
"691 239 OFFCURVE",
"684 231 OFFCURVE",
"674 231 CURVE SMOOTH",
"668 231 OFFCURVE",
"661 234 OFFCURVE",
"648 237 CURVE",
"616 104 OFFCURVE",
"516 -1 OFFCURVE",
"361 -1 CURVE SMOOTH",
"176 -1 OFFCURVE",
"61 162 OFFCURVE",
"61 331 CURVE SMOOTH",
"61 498 OFFCURVE",
"183 683 OFFCURVE",
"378 683 CURVE SMOOTH",
"565 683 OFFCURVE",
"639 540 OFFCURVE",
"639 500 CURVE SMOOTH",
"639 490 OFFCURVE",
"631 483 OFFCURVE",
"621 483 CURVE SMOOTH",
"612 483 OFFCURVE",
"605 488 OFFCURVE",
"602 498 CURVE SMOOTH",
"576 568 OFFCURVE",
"514 645 OFFCURVE",
"378 645 CURVE SMOOTH",
"172 645 OFFCURVE",
"100 428 OFFCURVE",
"100 331 CURVE SMOOTH",
"100 204 OFFCURVE",
"183 37 OFFCURVE",
"361 37 CURVE SMOOTH",
"486 37 OFFCURVE",
"580 116 OFFCURVE",
"612 244 CURVE",
"593 246 OFFCURVE",
"582 246 OFFCURVE",
"569 246 CURVE SMOOTH",
"512 246 OFFCURVE",
"477 237 OFFCURVE",
"455 232 CURVE SMOOTH",
"445 230 OFFCURVE",
"440 228 OFFCURVE",
"434 228 CURVE SMOOTH",
"425 228 OFFCURVE",
"416 235 OFFCURVE",
"416 247 CURVE SMOOTH",
"416 254 OFFCURVE",
"421 262 OFFCURVE",
"429 265 CURVE SMOOTH",
"432 266 OFFCURVE",
"495 284 OFFCURVE",
"568 284 CURVE SMOOTH",
"631 284 OFFCURVE",
"670 271 OFFCURVE",
"679 268 CURVE SMOOTH"
);
}
);
userData = {
com.fontlab.hintData = {
hhints = (
{
position = -1;
width = 38;
},
{
position = 231;
width = 37;
},
{
position = 246;
width = 38;
},
{
position = 645;
width = 38;
}
);
vhints = (
{
position = 61;
width = 39;
},
{
position = 602;
width = 37;
}
);
};
};
width = 741;
}
);
unicode = 0047;
},
{
glyphname = Gcircumflex;
layers = (
{
layerId = master01;
paths = (
{
closed = 1;
nodes = (
"686 265 OFFCURVE",
"691 260 OFFCURVE",
"691 250 CURVE SMOOTH",
"691 239 OFFCURVE",
"684 231 OFFCURVE",
"674 231 CURVE SMOOTH",
"668 231 OFFCURVE",
"661 234 OFFCURVE",
"648 237 CURVE",
"616 104 OFFCURVE",
"516 -1 OFFCURVE",
"361 -1 CURVE SMOOTH",
"176 -1 OFFCURVE",
"61 162 OFFCURVE",
"61 331 CURVE SMOOTH",
"61 498 OFFCURVE",
"183 683 OFFCURVE",
"378 683 CURVE SMOOTH",
"565 683 OFFCURVE",
"639 540 OFFCURVE",
"639 500 CURVE SMOOTH",
"639 490 OFFCURVE",
"631 483 OFFCURVE",
"621 483 CURVE SMOOTH",
"612 483 OFFCURVE",
"605 488 OFFCURVE",
"602 498 CURVE SMOOTH",
"576 568 OFFCURVE",
"514 645 OFFCURVE",
"378 645 CURVE SMOOTH",
"172 645 OFFCURVE",
"100 428 OFFCURVE",
"100 331 CURVE SMOOTH",
"100 204 OFFCURVE",
"183 37 OFFCURVE",
"361 37 CURVE SMOOTH",
"486 37 OFFCURVE",
"580 116 OFFCURVE",
"612 244 CURVE",
"593 246 OFFCURVE",
"582 246 OFFCURVE",
"569 246 CURVE SMOOTH",
"512 246 OFFCURVE",
"477 237 OFFCURVE",
"455 232 CURVE SMOOTH",
"445 230 OFFCURVE",
"440 228 OFFCURVE",
"434 228 CURVE SMOOTH",
"425 228 OFFCURVE",
"416 235 OFFCURVE",
"416 247 CURVE SMOOTH",
"416 254 OFFCURVE",
"421 262 OFFCURVE",
"429 265 CURVE SMOOTH",
"432 266 OFFCURVE",
"495 284 OFFCURVE",
"568 284 CURVE SMOOTH",
"631 284 OFFCURVE",
"670 271 OFFCURVE",
"679 268 CURVE SMOOTH"
);
},
{
closed = 1;
nodes = (
"391 902 OFFCURVE",
"397 900 OFFCURVE",
"401 896 CURVE SMOOTH",
"513 783 LINE SMOOTH",
"517 779 OFFCURVE",
"519 776 OFFCURVE",
"519 771 CURVE SMOOTH",
"519 762 OFFCURVE",
"511 753 OFFCURVE",
"502 753 CURVE SMOOTH",
"497 753 OFFCURVE",
"493 755 OFFCURVE",
"489 758 CURVE SMOOTH",
"384 853 LINE",
"260 757 LINE SMOOTH",
"257 755 OFFCURVE",
"253 753 OFFCURVE",
"249 753 CURVE SMOOTH",
"239 753 OFFCURVE",
"231 762 OFFCURVE",
"231 771 CURVE SMOOTH",
"231 776 OFFCURVE",
"234 781 OFFCURVE",
"238 784 CURVE SMOOTH",
"373 897 LINE SMOOTH",
"377 900 OFFCURVE",
"382 902 OFFCURVE",
"386 902 CURVE SMOOTH"
);
}
);
userData = {
com.fontlab.hintData = {
hhints = (
{
position = -1;
width = 38;
},
{
position = 231;
width = 37;
},
{
position = 246;
width = 38;
},
{
position = 645;
width = 38;
}
);
vhints = (
{
position = 61;
width = 39;
},
{
position = 602;
width = 37;
}
);
};
};
width = 741;
}
);
unicode = 011C;
},
{
glyphname = H;
lastChange = "2019-10-15 22:44:25 +0000";
layers = (
{
layerId = master01;
paths = (
{
closed = 1;
nodes = (
"96 0 OFFCURVE",
"105 8 OFFCURVE",
"105 19 CURVE SMOOTH",
"105 296 LINE",
"580 361 LINE",
"580 19 LINE SMOOTH",
"580 8 OFFCURVE",
"589 0 OFFCURVE",
"600 0 CURVE SMOOTH",
"610 0 OFFCURVE",
"618 8 OFFCURVE",
"618 19 CURVE SMOOTH",
"618 662 LINE SMOOTH",
"618 673 OFFCURVE",
"610 681 OFFCURVE",
"600 681 CURVE SMOOTH",
"589 681 OFFCURVE",
"580 673 OFFCURVE",
"580 662 CURVE SMOOTH",
"580 400 LINE",
"105 335 LINE",
"105 662 LINE SMOOTH",
"105 673 OFFCURVE",
"96 681 OFFCURVE",
"86 681 CURVE SMOOTH",
"75 681 OFFCURVE",
"67 673 OFFCURVE",
"67 662 CURVE SMOOTH",
"67 19 LINE SMOOTH",
"67 8 OFFCURVE",
"75 0 OFFCURVE",
"86 0 CURVE SMOOTH"
);
}
);
userData = {
com.fontlab.hintData = {
hhints = (
{
position = 0;
width = 21;
},
{
position = 661;
width = 20;
}
);
vhints = (
{
position = 67;
width = 38;
},
{
position = 580;
width = 38;
}
);
};
};
width = 675;
}
);
unicode = 0048;
},
{
glyphname = Hcircumflex;
layers = (
{
layerId = master01;
paths = (
{
closed = 1;
nodes = (
"610 681 OFFCURVE",
"618 673 OFFCURVE",
"618 662 CURVE SMOOTH",
"618 19 LINE SMOOTH",
"618 8 OFFCURVE",
"610 0 OFFCURVE",
"600 0 CURVE SMOOTH",
"589 0 OFFCURVE",
"580 8 OFFCURVE",
"580 19 CURVE SMOOTH",
"580 361 LINE",
"105 296 LINE",
"105 19 LINE SMOOTH",
"105 8 OFFCURVE",
"96 0 OFFCURVE",
"86 0 CURVE SMOOTH",
"75 0 OFFCURVE",
"67 8 OFFCURVE",
"67 19 CURVE SMOOTH",
"67 662 LINE SMOOTH",
"67 673 OFFCURVE",
"75 681 OFFCURVE",
"86 681 CURVE SMOOTH",
"96 681 OFFCURVE",
"105 673 OFFCURVE",
"105 662 CURVE SMOOTH",
"105 335 LINE",
"580 400 LINE",
"580 662 LINE SMOOTH",
"580 673 OFFCURVE",
"589 681 OFFCURVE",
"600 681 CURVE SMOOTH"
);
},
{
closed = 1;
nodes = (
"358 902 OFFCURVE",
"364 900 OFFCURVE",
"368 896 CURVE SMOOTH",
"480 783 LINE SMOOTH",
"484 779 OFFCURVE",
"486 776 OFFCURVE",
"486 771 CURVE SMOOTH",
"486 762 OFFCURVE",
"478 753 OFFCURVE",
"469 753 CURVE SMOOTH",
"464 753 OFFCURVE",
"460 755 OFFCURVE",
"456 758 CURVE SMOOTH",
"351 853 LINE",
"227 757 LINE SMOOTH",
"224 755 OFFCURVE",
"220 753 OFFCURVE",
"216 753 CURVE SMOOTH",
"206 753 OFFCURVE",
"198 762 OFFCURVE",
"198 771 CURVE SMOOTH",
"198 776 OFFCURVE",
"201 781 OFFCURVE",
"205 784 CURVE SMOOTH",
"340 897 LINE SMOOTH",
"344 900 OFFCURVE",
"349 902 OFFCURVE",
"353 902 CURVE SMOOTH"
);
}
);
userData = {
com.fontlab.hintData = {
hhints = (
{
position = 0;
width = 21;
},
{
position = 661;
width = 20;
}
);
vhints = (
{
position = 67;
width = 38;
},
{
position = 580;
width = 38;
}
);
};
};
width = 675;
}
);
unicode = 0124;
},
{
glyphname = I;
layers = (
{
layerId = master01;
paths = (
{
closed = 1;
nodes = (
"347 37 LINE SMOOTH",
"359 37 OFFCURVE",
"366 29 OFFCURVE",
"366 19 CURVE SMOOTH",
"366 8 OFFCURVE",
"357 -1 OFFCURVE",
"347 -1 CURVE SMOOTH",
"83 -1 LINE SMOOTH",
"73 -1 OFFCURVE",
"64 8 OFFCURVE",
"64 19 CURVE SMOOTH",
"64 29 OFFCURVE",
"73 37 OFFCURVE",
"83 37 CURVE SMOOTH",
"197 37 LINE",
"197 643 LINE",
"83 643 LINE SMOOTH",
"73 643 OFFCURVE",
"64 652 OFFCURVE",
"64 662 CURVE SMOOTH",
"64 673 OFFCURVE",
"73 681 OFFCURVE",
"83 681 CURVE SMOOTH",
"347 681 LINE SMOOTH",
"357 681 OFFCURVE",
"366 673 OFFCURVE",
"366 662 CURVE SMOOTH",
"366 652 OFFCURVE",
"357 643 OFFCURVE",
"347 643 CURVE SMOOTH",
"235 643 LINE",
"235 37 LINE"
);
}
);
userData = {
com.fontlab.hintData = {
hhints = (
{
position = -1;
width = 38;
},
{
position = 643;
width = 38;
}
);
vhints = (
{
position = 197;
width = 38;
}
);
};
};
width = 423;
}
);
unicode = 0049;
},
{
glyphname = Iacute;
layers = (
{
layerId = master01;
paths = (
{
closed = 1;
nodes = (
"347 37 LINE SMOOTH",
"359 37 OFFCURVE",
"366 29 OFFCURVE",
"366 19 CURVE SMOOTH",
"366 8 OFFCURVE",
"357 -1 OFFCURVE",
"347 -1 CURVE SMOOTH",
"83 -1 LINE SMOOTH",
"73 -1 OFFCURVE",
"64 8 OFFCURVE",
"64 19 CURVE SMOOTH",
"64 29 OFFCURVE",
"73 37 OFFCURVE",
"83 37 CURVE SMOOTH",
"197 37 LINE",
"197 643 LINE",
"83 643 LINE SMOOTH",
"73 643 OFFCURVE",
"64 652 OFFCURVE",
"64 662 CURVE SMOOTH",
"64 673 OFFCURVE",
"73 681 OFFCURVE",
"83 681 CURVE SMOOTH",
"347 681 LINE SMOOTH",
"357 681 OFFCURVE",
"366 673 OFFCURVE",
"366 662 CURVE SMOOTH",
"366 652 OFFCURVE",
"357 643 OFFCURVE",
"347 643 CURVE SMOOTH",
"235 643 LINE",
"235 37 LINE"
);
},
{
closed = 1;
nodes = (
"175 759 LINE SMOOTH",
"168 754 OFFCURVE",
"163 752 OFFCURVE",
"159 752 CURVE SMOOTH",
"150 752 OFFCURVE",
"142 760 OFFCURVE",
"142 769 CURVE SMOOTH",
"142 772 OFFCURVE",
"142 777 OFFCURVE",
"148 782 CURVE SMOOTH",
"276 886 LINE SMOOTH",
"285 893 OFFCURVE",
"292 900 OFFCURVE",
"302 900 CURVE SMOOTH",
"313 900 OFFCURVE",
"326 887 OFFCURVE",
"326 873 CURVE SMOOTH",
"326 866 OFFCURVE",
"325 862 OFFCURVE",
"318 857 CURVE SMOOTH"
);
}
);
userData = {
com.fontlab.hintData = {
hhints = (
{
position = -1;
width = 38;
},
{
position = 643;
width = 38;
}
);
vhints = (
{
position = 197;
width = 38;
}
);
};
};
width = 423;
}
);
unicode = 00CD;
},
{
glyphname = Icircumflex;
layers = (
{
layerId = master01;
paths = (
{
closed = 1;
nodes = (
"237 902 OFFCURVE",
"243 900 OFFCURVE",
"247 896 CURVE SMOOTH",
"359 783 LINE SMOOTH",
"363 779 OFFCURVE",
"365 776 OFFCURVE",
"365 771 CURVE SMOOTH",
"365 762 OFFCURVE",
"357 753 OFFCURVE",
"348 753 CURVE SMOOTH",
"343 753 OFFCURVE",
"339 755 OFFCURVE",
"335 758 CURVE SMOOTH",
"230 853 LINE",
"106 757 LINE SMOOTH",
"103 755 OFFCURVE",
"99 753 OFFCURVE",
"95 753 CURVE SMOOTH",
"85 753 OFFCURVE",
"77 762 OFFCURVE",
"77 771 CURVE SMOOTH",
"77 776 OFFCURVE",
"80 781 OFFCURVE",
"84 784 CURVE SMOOTH",
"219 897 LINE SMOOTH",
"223 900 OFFCURVE",
"228 902 OFFCURVE",
"232 902 CURVE SMOOTH"
);
},
{
closed = 1;
nodes = (
"347 37 LINE SMOOTH",
"359 37 OFFCURVE",
"366 29 OFFCURVE",
"366 19 CURVE SMOOTH",
"366 8 OFFCURVE",
"357 -1 OFFCURVE",
"347 -1 CURVE SMOOTH",
"83 -1 LINE SMOOTH",
"73 -1 OFFCURVE",
"64 8 OFFCURVE",
"64 19 CURVE SMOOTH",
"64 29 OFFCURVE",
"73 37 OFFCURVE",
"83 37 CURVE SMOOTH",
"197 37 LINE",
"197 643 LINE",
"83 643 LINE SMOOTH",
"73 643 OFFCURVE",
"64 652 OFFCURVE",
"64 662 CURVE SMOOTH",
"64 673 OFFCURVE",
"73 681 OFFCURVE",
"83 681 CURVE SMOOTH",
"347 681 LINE SMOOTH",
"357 681 OFFCURVE",
"366 673 OFFCURVE",
"366 662 CURVE SMOOTH",
"366 652 OFFCURVE",
"357 643 OFFCURVE",
"347 643 CURVE SMOOTH",
"235 643 LINE",
"235 37 LINE"
);
}
);
userData = {
com.fontlab.hintData = {
hhints = (
{
position = -1;
width = 38;
},
{
position = 643;
width = 38;
}
);
vhints = (
{
position = 197;
width = 38;
}
);
};
};
width = 423;
}
);
unicode = 00CE;
},
{
glyphname = Idieresis;
layers = (
{
layerId = master01;
paths = (
{
closed = 1;
nodes = (
"177 771 OFFCURVE",
"159 755 OFFCURVE",
"135 755 CURVE SMOOTH",
"115 755 OFFCURVE",
"99 768 OFFCURVE",
"99 785 CURVE SMOOTH",
"99 804 OFFCURVE",
"117 820 OFFCURVE",
"141 820 CURVE SMOOTH",
"160 820 OFFCURVE",
"177 807 OFFCURVE",
"177 790 CURVE SMOOTH"
);
},
{
closed = 1;
nodes = (
"341 771 OFFCURVE",
"322 755 OFFCURVE",
"299 755 CURVE SMOOTH",
"279 755 OFFCURVE",
"263 768 OFFCURVE",
"263 785 CURVE SMOOTH",
"263 804 OFFCURVE",
"281 820 OFFCURVE",
"305 820 CURVE SMOOTH",
"323 820 OFFCURVE",
"341 807 OFFCURVE",
"341 790 CURVE SMOOTH"
);
},
{
closed = 1;
nodes = (
"347 37 LINE SMOOTH",
"359 37 OFFCURVE",
"366 29 OFFCURVE",
"366 19 CURVE SMOOTH",
"366 8 OFFCURVE",
"357 -1 OFFCURVE",
"347 -1 CURVE SMOOTH",
"83 -1 LINE SMOOTH",
"73 -1 OFFCURVE",
"64 8 OFFCURVE",
"64 19 CURVE SMOOTH",
"64 29 OFFCURVE",
"73 37 OFFCURVE",
"83 37 CURVE SMOOTH",
"197 37 LINE",
"197 643 LINE",
"83 643 LINE SMOOTH",
"73 643 OFFCURVE",
"64 652 OFFCURVE",
"64 662 CURVE SMOOTH",
"64 673 OFFCURVE",
"73 681 OFFCURVE",
"83 681 CURVE SMOOTH",
"347 681 LINE SMOOTH",
"357 681 OFFCURVE",
"366 673 OFFCURVE",
"366 662 CURVE SMOOTH",
"366 652 OFFCURVE",
"357 643 OFFCURVE",
"347 643 CURVE SMOOTH",
"235 643 LINE",
"235 37 LINE"
);
}
);
userData = {
com.fontlab.hintData = {
hhints = (
{
position = -1;
width = 38;
},
{
position = 643;
width = 38;
},
{
position = 755;
width = 65;
}
);
vhints = (
{
position = 99;
width = 78;
},
{
position = 197;
width = 38;
},
{
position = 263;
width = 78;
}
);
};
};
width = 423;
}
);
unicode = 00CF;
},
{
glyphname = Igrave;
layers = (
{
layerId = master01;
paths = (
{
closed = 1;
nodes = (
"347 37 LINE SMOOTH",
"359 37 OFFCURVE",
"366 29 OFFCURVE",
"366 19 CURVE SMOOTH",
"366 8 OFFCURVE",
"357 -1 OFFCURVE",
"347 -1 CURVE SMOOTH",
"83 -1 LINE SMOOTH",
"73 -1 OFFCURVE",
"64 8 OFFCURVE",
"64 19 CURVE SMOOTH",
"64 29 OFFCURVE",
"73 37 OFFCURVE",
"83 37 CURVE SMOOTH",
"197 37 LINE",
"197 643 LINE",
"83 643 LINE SMOOTH",
"73 643 OFFCURVE",
"64 652 OFFCURVE",
"64 662 CURVE SMOOTH",
"64 673 OFFCURVE",
"73 681 OFFCURVE",
"83 681 CURVE SMOOTH",
"347 681 LINE SMOOTH",
"357 681 OFFCURVE",
"366 673 OFFCURVE",
"366 662 CURVE SMOOTH",
"366 652 OFFCURVE",
"357 643 OFFCURVE",
"347 643 CURVE SMOOTH",
"235 643 LINE",
"235 37 LINE"
);
},
{
closed = 1;
nodes = (
"284 765 LINE SMOOTH",
"288 760 OFFCURVE",
"290 756 OFFCURVE",
"290 752 CURVE SMOOTH",
"290 742 OFFCURVE",
"280 736 OFFCURVE",
"271 736 CURVE SMOOTH",
"267 736 OFFCURVE",
"262 738 OFFCURVE",
"258 742 CURVE SMOOTH",
"135 868 LINE SMOOTH",
"130 874 OFFCURVE",
"127 880 OFFCURVE",
"127 887 CURVE SMOOTH",
"127 901 OFFCURVE",
"140 912 OFFCURVE",
"154 912 CURVE SMOOTH",
"162 912 OFFCURVE",
"169 909 OFFCURVE",
"175 901 CURVE SMOOTH"
);
}
);
userData = {
com.fontlab.hintData = {
hhints = (
{
position = -1;
width = 38;
},
{
position = 643;
width = 38;
}
);
vhints = (
{
position = 197;
width = 38;
}
);
};
};
width = 423;
}
);
unicode = 00CC;
},
{
glyphname = J;
layers = (
{
layerId = master01;
paths = (
{
closed = 1;
nodes = (
"428 677 LINE SMOOTH",
"438 677 OFFCURVE",
"447 669 OFFCURVE",
"447 658 CURVE SMOOTH",
"447 648 OFFCURVE",
"438 639 OFFCURVE",
"428 639 CURVE SMOOTH",
"392 639 LINE",
"392 154 LINE SMOOTH",
"392 83 OFFCURVE",
"349 0 OFFCURVE",
"226 0 CURVE SMOOTH",
"74 0 OFFCURVE",
"53 124 OFFCURVE",
"53 164 CURVE SMOOTH",
"53 176 OFFCURVE",
"60 185 OFFCURVE",
"73 185 CURVE SMOOTH",
"83 185 OFFCURVE",
"91 176 OFFCURVE",
"91 166 CURVE SMOOTH",
"91 142 OFFCURVE",
"96 38 OFFCURVE",
"226 38 CURVE SMOOTH",
"341 38 OFFCURVE",
"354 118 OFFCURVE",
"354 154 CURVE SMOOTH",
"354 639 LINE",
"217 639 LINE SMOOTH",
"207 639 OFFCURVE",
"197 648 OFFCURVE",
"197 658 CURVE SMOOTH",
"197 669 OFFCURVE",
"207 677 OFFCURVE",
"217 677 CURVE SMOOTH"
);
}
);
userData = {
com.fontlab.hintData = {
hhints = (
{
position = 0;
width = 38;
},
{
position = 639;
width = 38;
}
);
vhints = (
{
position = 53;
width = 38;
},
{
position = 354;
width = 38;
}
);
};
};
width = 462;
}
);
unicode = 004A;
},
{
glyphname = Jcircumflex;
layers = (
{
layerId = master01;
paths = (
{
closed = 1;
nodes = (
"428 677 LINE SMOOTH",
"438 677 OFFCURVE",
"447 669 OFFCURVE",
"447 658 CURVE SMOOTH",
"447 648 OFFCURVE",
"438 639 OFFCURVE",
"428 639 CURVE SMOOTH",
"392 639 LINE",
"392 154 LINE SMOOTH",
"392 83 OFFCURVE",
"349 0 OFFCURVE",
"226 0 CURVE SMOOTH",
"74 0 OFFCURVE",
"53 124 OFFCURVE",
"53 164 CURVE SMOOTH",
"53 176 OFFCURVE",
"60 185 OFFCURVE",
"73 185 CURVE SMOOTH",
"83 185 OFFCURVE",
"91 176 OFFCURVE",
"91 166 CURVE SMOOTH",
"91 142 OFFCURVE",
"96 38 OFFCURVE",
"226 38 CURVE SMOOTH",
"341 38 OFFCURVE",
"354 118 OFFCURVE",
"354 154 CURVE SMOOTH",
"354 639 LINE",
"217 639 LINE SMOOTH",
"207 639 OFFCURVE",
"197 648 OFFCURVE",
"197 658 CURVE SMOOTH",
"197 669 OFFCURVE",
"207 677 OFFCURVE",
"217 677 CURVE SMOOTH"
);
},
{
closed = 1;
nodes = (
"341 902 OFFCURVE",
"347 900 OFFCURVE",
"351 896 CURVE SMOOTH",
"463 783 LINE SMOOTH",
"467 779 OFFCURVE",
"469 776 OFFCURVE",
"469 771 CURVE SMOOTH",
"469 762 OFFCURVE",
"461 753 OFFCURVE",
"452 753 CURVE SMOOTH",
"447 753 OFFCURVE",
"443 755 OFFCURVE",
"439 758 CURVE SMOOTH",
"334 853 LINE",
"210 757 LINE SMOOTH",
"207 755 OFFCURVE",
"203 753 OFFCURVE",
"199 753 CURVE SMOOTH",
"189 753 OFFCURVE",
"181 762 OFFCURVE",
"181 771 CURVE SMOOTH",
"181 776 OFFCURVE",
"184 781 OFFCURVE",
"188 784 CURVE SMOOTH",
"323 897 LINE SMOOTH",
"327 900 OFFCURVE",
"332 902 OFFCURVE",
"336 902 CURVE SMOOTH"
);
}
);
userData = {
com.fontlab.hintData = {
hhints = (
{
position = 0;
width = 38;
},
{
position = 639;
width = 38;
}
);
vhints = (
{
position = 53;
width = 38;
},
{
position = 354;
width = 38;
}
);
};
};
width = 462;
}
);
unicode = 0134;
},
{
glyphname = K;
layers = (
{
layerId = master01;
paths = (
{
closed = 1;
nodes = (
"466 677 LINE SMOOTH",
"470 680 OFFCURVE",
"474 682 OFFCURVE",
"479 682 CURVE SMOOTH",
"488 682 OFFCURVE",
"496 673 OFFCURVE",
"496 664 CURVE SMOOTH",
"496 658 OFFCURVE",
"493 653 OFFCURVE",
"489 650 CURVE SMOOTH",
"119 335 LINE",
"509 32 LINE SMOOTH",
"515 27 OFFCURVE",
"516 22 OFFCURVE",
"516 17 CURVE SMOOTH",
"516 6 OFFCURVE",
"507 -1 OFFCURVE",
"497 -1 CURVE SMOOTH",
"493 -1 OFFCURVE",
"489 0 OFFCURVE",
"486 3 CURVE SMOOTH",
"104 301 LINE",
"104 19 LINE SMOOTH",
"104 8 OFFCURVE",
"96 0 OFFCURVE",
"85 0 CURVE SMOOTH",
"76 0 OFFCURVE",
"68 8 OFFCURVE",
"68 19 CURVE SMOOTH",
"68 664 LINE SMOOTH",
"68 673 OFFCURVE",
"76 681 OFFCURVE",
"85 681 CURVE SMOOTH",
"96 681 OFFCURVE",
"104 673 OFFCURVE",
"104 664 CURVE SMOOTH",
"104 367 LINE"
);
}
);
userData = {
com.fontlab.hintData = {
hhints = (
{
position = 0;
width = 20;
},
{
position = 662;
width = 19;
}
);
vhints = (
{
position = 68;
width = 36;
}
);
};
};
width = 560;
}
);
unicode = 004B;
},
{
glyphname = L;
layers = (
{
layerId = master01;
paths = (
{
closed = 1;
nodes = (
"87 0 LINE SMOOTH",
"77 -1 OFFCURVE",
"68 7 OFFCURVE",
"68 19 CURVE SMOOTH",
"68 662 LINE SMOOTH",
"68 673 OFFCURVE",
"76 681 OFFCURVE",
"87 681 CURVE SMOOTH",
"97 681 OFFCURVE",
"105 673 OFFCURVE",
"105 662 CURVE SMOOTH",
"105 38 LINE",
"441 62 LINE SMOOTH",
"452 63 OFFCURVE",
"461 54 OFFCURVE",
"461 43 CURVE SMOOTH",
"461 34 OFFCURVE",
"454 26 OFFCURVE",
"443 25 CURVE SMOOTH"
);
}
);
userData = {
com.fontlab.hintData = {
hhints = (
{
position = 661;
width = 20;
}
);
vhints = (
{
position = 68;
width = 37;
}
);
};
};
width = 467;
}
);
unicode = 004C;
},
{
glyphname = Lacute;
layers = (
{
layerId = master01;
paths = (
{
closed = 1;
nodes = (
"87 0 LINE SMOOTH",
"77 -1 OFFCURVE",
"68 7 OFFCURVE",
"68 19 CURVE SMOOTH",
"68 662 LINE SMOOTH",
"68 673 OFFCURVE",
"76 681 OFFCURVE",
"87 681 CURVE SMOOTH",
"97 681 OFFCURVE",
"105 673 OFFCURVE",
"105 662 CURVE SMOOTH",
"105 38 LINE",
"441 62 LINE SMOOTH",
"452 63 OFFCURVE",
"461 54 OFFCURVE",
"461 43 CURVE SMOOTH",
"461 34 OFFCURVE",
"454 26 OFFCURVE",
"443 25 CURVE SMOOTH"
);
},
{
closed = 1;
nodes = (
"185 759 LINE SMOOTH",
"178 754 OFFCURVE",
"173 752 OFFCURVE",
"169 752 CURVE SMOOTH",
"160 752 OFFCURVE",
"152 760 OFFCURVE",
"152 769 CURVE SMOOTH",
"152 772 OFFCURVE",
"152 777 OFFCURVE",
"158 782 CURVE SMOOTH",
"286 886 LINE SMOOTH",
"295 893 OFFCURVE",
"302 900 OFFCURVE",
"312 900 CURVE SMOOTH",
"323 900 OFFCURVE",
"336 887 OFFCURVE",
"336 873 CURVE SMOOTH",
"336 866 OFFCURVE",
"335 862 OFFCURVE",
"328 857 CURVE SMOOTH"
);
}
);
userData = {
com.fontlab.hintData = {
hhints = (
{
position = 661;
width = 20;
}
);
vhints = (
{
position = 68;
width = 37;
}
);
};
};
width = 467;
}
);
unicode = 0139;
},
{
glyphname = Lcaron;
layers = (
{
layerId = master01;
paths = (
{
closed = 1;
nodes = (
"140 743 OFFCURVE",
"134 745 OFFCURVE",
"130 749 CURVE SMOOTH",
"18 862 LINE SMOOTH",
"14 866 OFFCURVE",
"12 869 OFFCURVE",
"12 874 CURVE SMOOTH",
"12 883 OFFCURVE",
"20 892 OFFCURVE",
"29 892 CURVE SMOOTH",
"34 892 OFFCURVE",
"38 890 OFFCURVE",
"42 887 CURVE SMOOTH",
"147 792 LINE",
"271 888 LINE SMOOTH",
"274 890 OFFCURVE",
"278 892 OFFCURVE",
"282 892 CURVE SMOOTH",
"292 892 OFFCURVE",
"300 883 OFFCURVE",
"300 874 CURVE SMOOTH",
"300 869 OFFCURVE",
"297 864 OFFCURVE",
"293 861 CURVE SMOOTH",
"158 748 LINE SMOOTH",
"154 745 OFFCURVE",
"149 743 OFFCURVE",
"145 743 CURVE SMOOTH"
);
},
{
closed = 1;
nodes = (
"87 0 LINE SMOOTH",
"77 -1 OFFCURVE",
"68 7 OFFCURVE",
"68 19 CURVE SMOOTH",
"68 662 LINE SMOOTH",
"68 673 OFFCURVE",
"76 681 OFFCURVE",
"87 681 CURVE SMOOTH",
"97 681 OFFCURVE",
"105 673 OFFCURVE",
"105 662 CURVE SMOOTH",
"105 38 LINE",
"441 62 LINE SMOOTH",
"452 63 OFFCURVE",
"461 54 OFFCURVE",
"461 43 CURVE SMOOTH",
"461 34 OFFCURVE",
"454 26 OFFCURVE",
"443 25 CURVE SMOOTH"
);
}
);
userData = {
com.fontlab.hintData = {
hhints = (
{
position = 661;
width = 20;
}
);
vhints = (
{
position = 68;
width = 37;
}
);
};
};
width = 467;
}
);
unicode = 013D;
},
{
glyphname = Lslash;
layers = (
{
layerId = master01;
paths = (
{
closed = 1;
nodes = (
"121 358 LINE",
"121 662 LINE SMOOTH",
"121 673 OFFCURVE",
"129 681 OFFCURVE",
"139 681 CURVE SMOOTH",
"150 681 OFFCURVE",
"158 673 OFFCURVE",
"158 662 CURVE SMOOTH",
"158 379 LINE",
"231 427 LINE SMOOTH",
"234 429 OFFCURVE",
"238 430 OFFCURVE",
"241 430 CURVE SMOOTH",
"252 430 OFFCURVE",
"261 421 OFFCURVE",
"261 410 CURVE SMOOTH",
"261 404 OFFCURVE",
"258 398 OFFCURVE",
"253 395 CURVE SMOOTH",
"158 335 LINE",
"158 38 LINE",
"494 62 LINE SMOOTH",
"502 63 OFFCURVE",
"512 55 OFFCURVE",
"513 44 CURVE",
"512 34 OFFCURVE",
"506 26 OFFCURVE",
"496 25 CURVE SMOOTH",
"138 0 LINE SMOOTH",
"130 -1 OFFCURVE",
"121 9 OFFCURVE",
"121 19 CURVE SMOOTH",
"121 313 LINE",
"49 266 LINE SMOOTH",
"46 264 OFFCURVE",
"40 263 OFFCURVE",
"37 263 CURVE SMOOTH",
"29 263 OFFCURVE",
"19 269 OFFCURVE",
"19 280 CURVE SMOOTH",
"19 287 OFFCURVE",
"21 294 OFFCURVE",
"27 298 CURVE SMOOTH"
);
}
);
userData = {
com.fontlab.hintData = {
hhints = (
{
position = 661;
width = 20;
}
);
vhints = (
{
position = 121;
width = 37;
}
);
};
};
width = 518;
}
);
unicode = 0141;
},
{
glyphname = M;
layers = (
{
layerId = master01;
paths = (
{
closed = 1;
nodes = (
"415 76 LINE",
"629 670 LINE SMOOTH",
"632 678 OFFCURVE",
"638 681 OFFCURVE",
"647 681 CURVE SMOOTH",
"656 681 OFFCURVE",
"662 676 OFFCURVE",
"663 670 CURVE SMOOTH",
"805 41 LINE SMOOTH",
"808 29 OFFCURVE",
"809 21 OFFCURVE",
"809 14 CURVE SMOOTH",
"809 8 OFFCURVE",
"804 0 OFFCURVE",
"791 0 CURVE SMOOTH",
"782 0 OFFCURVE",
"775 4 OFFCURVE",
"773 14 CURVE SMOOTH",
"644 596 LINE",
"433 11 LINE SMOOTH",
"430 3 OFFCURVE",
"424 0 OFFCURVE",
"415 0 CURVE SMOOTH",
"408 0 OFFCURVE",
"401 3 OFFCURVE",
"398 12 CURVE SMOOTH",
"214 595 LINE",
"86 14 LINE SMOOTH",
"84 5 OFFCURVE",
"76 0 OFFCURVE",
"68 0 CURVE SMOOTH",
"57 0 OFFCURVE",
"50 7 OFFCURVE",
"50 15 CURVE SMOOTH",
"50 20 OFFCURVE",
"52 30 OFFCURVE",
"54 38 CURVE SMOOTH",
"193 667 LINE SMOOTH",
"195 676 OFFCURVE",
"202 681 OFFCURVE",
"211 681 CURVE SMOOTH",
"219 681 OFFCURVE",
"226 676 OFFCURVE",
"228 669 CURVE SMOOTH"
);
}
);
userData = {
com.fontlab.hintData = {
hhints = (
{
position = 0;
width = 21;
},
{
position = 661;
width = 20;
}
);
vhints = (
{
position = 773;
width = 36;
}
);
};
};
width = 847;
}
);
unicode = 004D;
},
{
glyphname = N;
layers = (
{
layerId = master01;
paths = (
{
closed = 1;
nodes = (
"106 603 LINE",
"105 19 LINE SMOOTH",
"105 8 OFFCURVE",
"96 0 OFFCURVE",
"86 0 CURVE SMOOTH",
"76 0 OFFCURVE",
"68 8 OFFCURVE",
"68 19 CURVE SMOOTH",
"69 662 LINE SMOOTH",
"69 673 OFFCURVE",
"76 681 OFFCURVE",
"86 681 CURVE SMOOTH",
"94 681 OFFCURVE",
"100 678 OFFCURVE",
"105 670 CURVE SMOOTH",
"514 77 LINE",
"514 664 LINE SMOOTH",
"514 674 OFFCURVE",
"522 682 OFFCURVE",
"532 682 CURVE SMOOTH",
"543 682 OFFCURVE",
"551 674 OFFCURVE",
"551 664 CURVE SMOOTH",
"551 19 LINE SMOOTH",
"551 8 OFFCURVE",
"543 0 OFFCURVE",
"532 0 CURVE SMOOTH",
"525 0 OFFCURVE",
"520 2 OFFCURVE",
"517 7 CURVE SMOOTH"
);
}
);
userData = {
com.fontlab.hintData = {
hhints = (
{
position = 0;
width = 21;
},
{
position = 661;
width = 20;
}
);
vhints = (
{
position = 68;
width = 37;
},
{
position = 514;
width = 37;
}
);
};
};
width = 609;
}
);
unicode = 004E;
},
{
glyphname = Nacute;
layers = (
{
layerId = master01;
paths = (
{
closed = 1;
nodes = (
"106 603 LINE",
"105 19 LINE SMOOTH",
"105 8 OFFCURVE",
"96 0 OFFCURVE",
"86 0 CURVE SMOOTH",
"76 0 OFFCURVE",
"68 8 OFFCURVE",
"68 19 CURVE SMOOTH",
"69 662 LINE SMOOTH",
"69 673 OFFCURVE",
"76 681 OFFCURVE",
"86 681 CURVE SMOOTH",
"94 681 OFFCURVE",
"100 678 OFFCURVE",
"105 670 CURVE SMOOTH",
"514 77 LINE",
"514 664 LINE SMOOTH",
"514 674 OFFCURVE",
"522 682 OFFCURVE",
"532 682 CURVE SMOOTH",
"543 682 OFFCURVE",
"551 674 OFFCURVE",
"551 664 CURVE SMOOTH",
"551 19 LINE SMOOTH",
"551 8 OFFCURVE",
"543 0 OFFCURVE",
"532 0 CURVE SMOOTH",
"525 0 OFFCURVE",
"520 2 OFFCURVE",
"517 7 CURVE SMOOTH"
);
},
{
closed = 1;
nodes = (
"272 759 LINE SMOOTH",
"265 754 OFFCURVE",
"260 752 OFFCURVE",
"256 752 CURVE SMOOTH",
"247 752 OFFCURVE",
"239 760 OFFCURVE",
"239 769 CURVE SMOOTH",
"239 772 OFFCURVE",
"239 777 OFFCURVE",
"245 782 CURVE SMOOTH",
"373 886 LINE SMOOTH",
"382 893 OFFCURVE",
"389 900 OFFCURVE",
"399 900 CURVE SMOOTH",
"410 900 OFFCURVE",
"423 887 OFFCURVE",
"423 873 CURVE SMOOTH",
"423 866 OFFCURVE",
"422 862 OFFCURVE",
"415 857 CURVE SMOOTH"
);
}
);
userData = {
com.fontlab.hintData = {
hhints = (
{
position = 0;
width = 21;
},
{
position = 661;
width = 20;
}
);
vhints = (
{
position = 68;
width = 37;
},
{
position = 514;
width = 37;
}
);
};
};
width = 609;
}
);
unicode = 0143;
},
{
glyphname = Ncaron;
layers = (
{
layerId = master01;
paths = (
{
closed = 1;
nodes = (
"525 0 OFFCURVE",
"520 2 OFFCURVE",
"517 7 CURVE SMOOTH",
"106 603 LINE",
"105 19 LINE SMOOTH",
"105 8 OFFCURVE",
"96 0 OFFCURVE",
"86 0 CURVE SMOOTH",
"76 0 OFFCURVE",
"68 8 OFFCURVE",
"68 19 CURVE SMOOTH",
"69 662 LINE SMOOTH",
"69 672 OFFCURVE",
"76 681 OFFCURVE",
"86 681 CURVE SMOOTH",
"91 681 OFFCURVE",
"98 676 OFFCURVE",
"103 673 CURVE",
"514 77 LINE",
"514 664 LINE SMOOTH",
"514 674 OFFCURVE",
"522 682 OFFCURVE",
"532 682 CURVE SMOOTH",
"543 682 OFFCURVE",
"551 674 OFFCURVE",
"551 664 CURVE SMOOTH",
"551 19 LINE SMOOTH",
"551 8 OFFCURVE",
"543 0 OFFCURVE",
"532 0 CURVE SMOOTH"
);
},
{
closed = 1;
nodes = (
"303 743 OFFCURVE",
"297 745 OFFCURVE",
"293 749 CURVE SMOOTH",
"181 862 LINE SMOOTH",
"177 866 OFFCURVE",
"175 869 OFFCURVE",
"175 874 CURVE SMOOTH",
"175 883 OFFCURVE",
"183 892 OFFCURVE",
"192 892 CURVE SMOOTH",
"197 892 OFFCURVE",
"201 890 OFFCURVE",
"205 887 CURVE SMOOTH",
"310 792 LINE",
"434 888 LINE SMOOTH",
"437 890 OFFCURVE",
"441 892 OFFCURVE",
"445 892 CURVE SMOOTH",
"455 892 OFFCURVE",
"463 883 OFFCURVE",
"463 874 CURVE SMOOTH",
"463 869 OFFCURVE",
"460 864 OFFCURVE",
"456 861 CURVE SMOOTH",
"321 748 LINE SMOOTH",
"317 745 OFFCURVE",
"312 743 OFFCURVE",
"308 743 CURVE SMOOTH"
);
}
);
userData = {
com.fontlab.hintData = {
hhints = (
{
position = 0;
width = 21;
},
{
position = 661;
width = 20;
}
);
vhints = (
{
position = 68;
width = 37;
},
{
position = 514;
width = 37;
}
);
};
};
width = 609;
}
);
unicode = 0147;
},
{
glyphname = Ntilde;
layers = (
{
layerId = master01;
paths = (
{
closed = 1;
nodes = (
"106 603 LINE",
"105 19 LINE SMOOTH",
"105 8 OFFCURVE",
"96 0 OFFCURVE",
"86 0 CURVE SMOOTH",
"76 0 OFFCURVE",
"68 8 OFFCURVE",
"68 19 CURVE SMOOTH",
"69 662 LINE SMOOTH",
"69 673 OFFCURVE",
"76 681 OFFCURVE",
"86 681 CURVE SMOOTH",
"94 681 OFFCURVE",
"100 678 OFFCURVE",
"105 670 CURVE SMOOTH",
"514 77 LINE",
"514 664 LINE SMOOTH",
"514 674 OFFCURVE",
"522 682 OFFCURVE",
"532 682 CURVE SMOOTH",
"543 682 OFFCURVE",
"551 674 OFFCURVE",
"551 664 CURVE SMOOTH",
"551 19 LINE SMOOTH",
"551 8 OFFCURVE",
"543 0 OFFCURVE",
"532 0 CURVE SMOOTH",
"525 0 OFFCURVE",
"520 2 OFFCURVE",
"517 7 CURVE SMOOTH"
);
},
{
closed = 1;
nodes = (
"464 850 OFFCURVE",
"469 855 OFFCURVE",
"478 855 CURVE SMOOTH",
"487 855 OFFCURVE",
"492 849 OFFCURVE",
"492 841 CURVE SMOOTH",
"492 803 OFFCURVE",
"443 735 OFFCURVE",
"389 735 CURVE SMOOTH",
"348 735 OFFCURVE",
"327 766 OFFCURVE",
"308 792 CURVE SMOOTH",
"282 829 OFFCURVE",
"271 842 OFFCURVE",
"251 842 CURVE SMOOTH",
"235 842 OFFCURVE",
"195 829 OFFCURVE",
"178 771 CURVE SMOOTH",
"175 762 OFFCURVE",
"170 758 OFFCURVE",
"163 758 CURVE SMOOTH",
"153 758 OFFCURVE",
"150 766 OFFCURVE",
"150 774 CURVE SMOOTH",
"150 816 OFFCURVE",
"204 869 OFFCURVE",
"251 869 CURVE SMOOTH",
"292 869 OFFCURVE",
"313 839 OFFCURVE",
"332 811 CURVE SMOOTH",
"349 786 OFFCURVE",
"370 761 OFFCURVE",
"391 761 CURVE SMOOTH",
"429 761 OFFCURVE",
"450 812 OFFCURVE",
"462 844 CURVE SMOOTH"
);
}
);
userData = {
com.fontlab.hintData = {
hhints = (
{
position = 0;
width = 21;
},
{
position = 661;
width = 20;
},
{
position = 735;
width = 26;
},
{
position = 842;
width = 27;
}
);
vhints = (
{
position = 68;
width = 37;
},
{
position = 150;
width = 28;
},
{
position = 462;
width = 30;
},
{
position = 514;
width = 37;
}
);
};
};
width = 609;
}
);
unicode = 00D1;
},
{
glyphname = O;
lastChange = "2019-10-15 22:44:34 +0000";
layers = (
{
layerId = master01;
paths = (
{
closed = 1;
nodes = (
"464 -2 OFFCURVE",
"598 167 OFFCURVE",
"598 368 CURVE SMOOTH",
"598 540 OFFCURVE",
"494 682 OFFCURVE",
"352 682 CURVE SMOOTH",
"196 682 OFFCURVE",
"62 513 OFFCURVE",
"62 312 CURVE SMOOTH",
"62 142 OFFCURVE",
"165 -2 OFFCURVE",
"308 -2 CURVE SMOOTH"
);
},
{
closed = 1;
nodes = (
"185 31 OFFCURVE",
"96 159 OFFCURVE",
"96 312 CURVE SMOOTH",
"96 500 OFFCURVE",
"213 649 OFFCURVE",
"344 649 CURVE SMOOTH",
"473 649 OFFCURVE",
"564 508 OFFCURVE",
"564 364 CURVE SMOOTH",
"564 183 OFFCURVE",
"440 31 OFFCURVE",
"308 31 CURVE SMOOTH"
);
}
);
userData = {
com.fontlab.hintData = {
hhints = (
{
position = -2;
width = 33;
},
{
position = 649;
width = 33;
}
);
vhints = (
{
position = 62;
width = 34;
},
{
position = 564;
width = 34;
}
);
};
};
width = 650;
}
);
unicode = 004F;
},
{
glyphname = Oacute;
layers = (
{
layerId = master01;
paths = (
{
closed = 1;
nodes = (
"165 -2 OFFCURVE",
"62 142 OFFCURVE",
"62 312 CURVE SMOOTH",
"62 513 OFFCURVE",
"196 682 OFFCURVE",
"352 682 CURVE SMOOTH",
"494 682 OFFCURVE",
"598 540 OFFCURVE",
"598 368 CURVE SMOOTH",
"598 167 OFFCURVE",
"464 -2 OFFCURVE",
"308 -2 CURVE SMOOTH"
);
},
{
closed = 1;
nodes = (
"213 649 OFFCURVE",
"96 500 OFFCURVE",
"96 312 CURVE SMOOTH",
"96 159 OFFCURVE",
"185 31 OFFCURVE",
"308 31 CURVE SMOOTH",
"440 31 OFFCURVE",
"564 183 OFFCURVE",
"564 364 CURVE SMOOTH",
"564 508 OFFCURVE",
"473 649 OFFCURVE",
"344 649 CURVE SMOOTH"
);
},
{
closed = 1;
nodes = (
"308 759 LINE SMOOTH",
"301 754 OFFCURVE",
"296 752 OFFCURVE",
"292 752 CURVE SMOOTH",
"283 752 OFFCURVE",
"275 760 OFFCURVE",
"275 769 CURVE SMOOTH",
"275 772 OFFCURVE",
"275 777 OFFCURVE",
"281 782 CURVE SMOOTH",
"409 886 LINE SMOOTH",
"418 893 OFFCURVE",
"425 900 OFFCURVE",
"435 900 CURVE SMOOTH",
"446 900 OFFCURVE",
"459 887 OFFCURVE",
"459 873 CURVE SMOOTH",
"459 866 OFFCURVE",
"458 862 OFFCURVE",
"451 857 CURVE SMOOTH"
);
}
);
userData = {
com.fontlab.hintData = {
hhints = (
{
position = -2;
width = 33;
},
{
position = 649;
width = 33;
}
);
vhints = (
{
position = 62;
width = 34;
},
{
position = 564;
width = 34;
}
);
};
};
width = 650;
}
);
unicode = 00D3;
},
{
glyphname = Ocircumflex;
layers = (
{
layerId = master01;
paths = (
{
closed = 1;
nodes = (
"165 -2 OFFCURVE",
"62 142 OFFCURVE",
"62 312 CURVE SMOOTH",
"62 513 OFFCURVE",
"196 682 OFFCURVE",
"352 682 CURVE SMOOTH",
"494 682 OFFCURVE",
"598 540 OFFCURVE",
"598 368 CURVE SMOOTH",
"598 167 OFFCURVE",
"464 -2 OFFCURVE",
"308 -2 CURVE SMOOTH"
);
},
{
closed = 1;
nodes = (
"213 649 OFFCURVE",
"96 500 OFFCURVE",
"96 312 CURVE SMOOTH",
"96 159 OFFCURVE",
"185 31 OFFCURVE",
"308 31 CURVE SMOOTH",
"440 31 OFFCURVE",
"564 183 OFFCURVE",
"564 364 CURVE SMOOTH",
"564 508 OFFCURVE",
"473 649 OFFCURVE",
"344 649 CURVE SMOOTH"
);
},
{
closed = 1;
nodes = (
"375 902 OFFCURVE",
"381 900 OFFCURVE",
"385 896 CURVE SMOOTH",
"497 783 LINE SMOOTH",
"501 779 OFFCURVE",
"503 776 OFFCURVE",
"503 771 CURVE SMOOTH",
"503 762 OFFCURVE",
"495 753 OFFCURVE",
"486 753 CURVE SMOOTH",
"481 753 OFFCURVE",
"477 755 OFFCURVE",
"473 758 CURVE SMOOTH",
"368 853 LINE",
"244 757 LINE SMOOTH",
"241 755 OFFCURVE",
"237 753 OFFCURVE",
"233 753 CURVE SMOOTH",
"223 753 OFFCURVE",
"215 762 OFFCURVE",
"215 771 CURVE SMOOTH",
"215 776 OFFCURVE",
"218 781 OFFCURVE",
"222 784 CURVE SMOOTH",
"357 897 LINE SMOOTH",
"361 900 OFFCURVE",
"366 902 OFFCURVE",
"370 902 CURVE SMOOTH"
);
}
);
userData = {
com.fontlab.hintData = {
hhints = (
{
position = -2;
width = 33;
},
{
position = 649;
width = 33;
}
);
vhints = (
{
position = 62;
width = 34;
},
{
position = 564;
width = 34;
}
);
};
};
width = 650;
}
);
unicode = 00D4;
},
{
glyphname = Odieresis;
layers = (
{
layerId = master01;
paths = (
{
closed = 1;
nodes = (
"165 -2 OFFCURVE",
"62 142 OFFCURVE",
"62 312 CURVE SMOOTH",
"62 513 OFFCURVE",
"196 682 OFFCURVE",
"352 682 CURVE SMOOTH",
"494 682 OFFCURVE",
"598 540 OFFCURVE",
"598 368 CURVE SMOOTH",
"598 167 OFFCURVE",
"464 -2 OFFCURVE",
"308 -2 CURVE SMOOTH"
);
},
{
closed = 1;
nodes = (
"213 649 OFFCURVE",
"96 500 OFFCURVE",
"96 312 CURVE SMOOTH",
"96 159 OFFCURVE",
"185 31 OFFCURVE",
"308 31 CURVE SMOOTH",
"440 31 OFFCURVE",
"564 183 OFFCURVE",
"564 364 CURVE SMOOTH",
"564 508 OFFCURVE",
"473 649 OFFCURVE",
"344 649 CURVE SMOOTH"
);
},
{
closed = 1;
nodes = (
"321 771 OFFCURVE",
"302 755 OFFCURVE",
"278 755 CURVE SMOOTH",
"259 755 OFFCURVE",
"242 768 OFFCURVE",
"242 785 CURVE SMOOTH",
"242 804 OFFCURVE",
"261 820 OFFCURVE",
"285 820 CURVE SMOOTH",
"303 820 OFFCURVE",
"321 807 OFFCURVE",
"321 790 CURVE SMOOTH"
);
},
{
closed = 1;
nodes = (
"485 771 OFFCURVE",
"466 755 OFFCURVE",
"442 755 CURVE SMOOTH",
"423 755 OFFCURVE",
"406 768 OFFCURVE",
"406 785 CURVE SMOOTH",
"406 804 OFFCURVE",
"425 820 OFFCURVE",
"448 820 CURVE SMOOTH",
"467 820 OFFCURVE",
"485 807 OFFCURVE",
"485 790 CURVE SMOOTH"
);
}
);
userData = {
com.fontlab.hintData = {
hhints = (
{
position = -2;
width = 33;
},
{
position = 649;
width = 33;
},
{
position = 755;
width = 65;
}
);
vhints = (
{
position = 62;
width = 34;
},
{
position = 242;
width = 79;
},
{
position = 406;
width = 79;
},
{
position = 564;
width = 34;
}
);
};
};
width = 650;
}
);
unicode = 00D6;
},
{
glyphname = Ograve;
layers = (
{
layerId = master01;
paths = (
{
closed = 1;
nodes = (
"165 -2 OFFCURVE",
"62 142 OFFCURVE",
"62 312 CURVE SMOOTH",
"62 513 OFFCURVE",
"196 682 OFFCURVE",
"352 682 CURVE SMOOTH",
"494 682 OFFCURVE",
"598 540 OFFCURVE",
"598 368 CURVE SMOOTH",
"598 167 OFFCURVE",
"464 -2 OFFCURVE",
"308 -2 CURVE SMOOTH"
);
},
{
closed = 1;
nodes = (
"213 649 OFFCURVE",
"96 500 OFFCURVE",
"96 312 CURVE SMOOTH",
"96 159 OFFCURVE",
"185 31 OFFCURVE",
"308 31 CURVE SMOOTH",
"440 31 OFFCURVE",
"564 183 OFFCURVE",
"564 364 CURVE SMOOTH",
"564 508 OFFCURVE",
"473 649 OFFCURVE",
"344 649 CURVE SMOOTH"
);
},
{
closed = 1;
nodes = (
"424 765 LINE SMOOTH",
"428 760 OFFCURVE",
"430 756 OFFCURVE",
"430 752 CURVE SMOOTH",
"430 742 OFFCURVE",
"420 736 OFFCURVE",
"411 736 CURVE SMOOTH",
"407 736 OFFCURVE",
"402 738 OFFCURVE",
"398 742 CURVE SMOOTH",
"275 868 LINE SMOOTH",
"270 874 OFFCURVE",
"267 880 OFFCURVE",
"267 887 CURVE SMOOTH",
"267 901 OFFCURVE",
"280 912 OFFCURVE",
"294 912 CURVE SMOOTH",
"302 912 OFFCURVE",
"309 909 OFFCURVE",
"315 901 CURVE SMOOTH"
);
}
);
userData = {
com.fontlab.hintData = {
hhints = (
{
position = -2;
width = 33;
},
{
position = 649;
width = 33;
}
);
vhints = (
{
position = 62;
width = 34;
},
{
position = 564;
width = 34;
}
);
};
};
width = 650;
}
);
unicode = 00D2;
},
{
glyphname = Ohungarumlaut;
layers = (
{
layerId = master01;
paths = (
{
closed = 1;
nodes = (
"165 -2 OFFCURVE",
"62 142 OFFCURVE",
"62 312 CURVE SMOOTH",
"62 513 OFFCURVE",
"196 682 OFFCURVE",
"352 682 CURVE SMOOTH",
"494 682 OFFCURVE",
"598 540 OFFCURVE",
"598 368 CURVE SMOOTH",
"598 167 OFFCURVE",
"464 -2 OFFCURVE",
"308 -2 CURVE SMOOTH"
);
},
{
closed = 1;
nodes = (
"213 649 OFFCURVE",
"96 500 OFFCURVE",
"96 312 CURVE SMOOTH",
"96 159 OFFCURVE",
"185 31 OFFCURVE",
"308 31 CURVE SMOOTH",
"440 31 OFFCURVE",
"564 183 OFFCURVE",
"564 364 CURVE SMOOTH",
"564 508 OFFCURVE",
"473 649 OFFCURVE",
"344 649 CURVE SMOOTH"
);
},
{
closed = 1;
nodes = (
"285 748 LINE SMOOTH",
"279 744 OFFCURVE",
"273 741 OFFCURVE",
"269 741 CURVE SMOOTH",
"260 741 OFFCURVE",
"252 749 OFFCURVE",
"252 758 CURVE SMOOTH",
"252 761 OFFCURVE",
"252 766 OFFCURVE",
"260 773 CURVE SMOOTH",
"386 875 LINE SMOOTH",
"393 881 OFFCURVE",
"402 889 OFFCURVE",
"410 889 CURVE SMOOTH",
"423 889 OFFCURVE",
"435 876 OFFCURVE",
"435 862 CURVE SMOOTH",
"435 856 OFFCURVE",
"435 851 OFFCURVE",
"428 846 CURVE SMOOTH"
);
},
{
closed = 1;
nodes = (
"451 748 LINE SMOOTH",
"446 744 OFFCURVE",
"440 741 OFFCURVE",
"436 741 CURVE SMOOTH",
"426 741 OFFCURVE",
"419 749 OFFCURVE",
"419 758 CURVE SMOOTH",
"419 761 OFFCURVE",
"419 766 OFFCURVE",
"426 772 CURVE SMOOTH",
"552 875 LINE SMOOTH",
"560 881 OFFCURVE",
"569 889 OFFCURVE",
"576 889 CURVE SMOOTH",
"590 889 OFFCURVE",
"601 876 OFFCURVE",
"601 862 CURVE SMOOTH",
"601 856 OFFCURVE",
"600 849 OFFCURVE",
"590 842 CURVE SMOOTH"
);
}
);
userData = {
com.fontlab.hintData = {
hhints = (
{
position = -2;
width = 33;
},
{
position = 649;
width = 33;
}
);
vhints = (
{
position = 62;
width = 34;
},
{
position = 564;
width = 34;
}
);
};
};
width = 650;
}
);
unicode = 0150;
},
{
glyphname = Oslash;
layers = (
{
layerId = master01;
paths = (
{
closed = 1;
nodes = (
"141 78 LINE",
"92 139 OFFCURVE",
"62 223 OFFCURVE",
"62 312 CURVE SMOOTH",
"62 513 OFFCURVE",
"196 682 OFFCURVE",
"352 682 CURVE SMOOTH",
"387 682 OFFCURVE",
"424 671 OFFCURVE",
"461 650 CURVE",
"508 737 LINE SMOOTH",
"511 742 OFFCURVE",
"516 745 OFFCURVE",
"523 745 CURVE SMOOTH",
"530 745 OFFCURVE",
"539 740 OFFCURVE",
"539 729 CURVE SMOOTH",
"539 726 OFFCURVE",
"538 722 OFFCURVE",
"537 720 CURVE SMOOTH",
"488 632 LINE",
"556 570 OFFCURVE",
"598 474 OFFCURVE",
"598 368 CURVE SMOOTH",
"598 167 OFFCURVE",
"464 -2 OFFCURVE",
"308 -2 CURVE SMOOTH",
"258 -2 OFFCURVE",
"209 18 OFFCURVE",
"166 53 CURVE",
"123 -25 LINE SMOOTH",
"120 -30 OFFCURVE",
"116 -33 OFFCURVE",
"110 -33 CURVE SMOOTH",
"98 -33 OFFCURVE",
"92 -26 OFFCURVE",
"92 -16 CURVE SMOOTH",
"92 -13 OFFCURVE",
"93 -9 OFFCURVE",
"95 -6 CURVE SMOOTH"
);
},
{
closed = 1;
nodes = (
"440 31 OFFCURVE",
"564 183 OFFCURVE",
"564 364 CURVE SMOOTH",
"564 448 OFFCURVE",
"529 538 OFFCURVE",
"470 599 CURVE",
"183 82 LINE",
"220 49 OFFCURVE",
"262 31 OFFCURVE",
"308 31 CURVE SMOOTH"
);
},
{
closed = 1;
nodes = (
"213 649 OFFCURVE",
"96 500 OFFCURVE",
"96 312 CURVE SMOOTH",
"96 240 OFFCURVE",
"119 169 OFFCURVE",
"159 109 CURVE",
"443 619 LINE",
"410 639 OFFCURVE",
"377 649 OFFCURVE",
"344 649 CURVE SMOOTH"
);
}
);
userData = {
com.fontlab.hintData = {
hhints = (
{
position = -2;
width = 33;
},
{
position = 649;
width = 33;
}
);
vhints = (
{
position = 62;
width = 34;
},
{
position = 564;
width = 34;
}
);
};
};
width = 650;
}
);
unicode = 00D8;
},
{
glyphname = Otilde;
layers = (
{
layerId = master01;
paths = (
{
closed = 1;
nodes = (
"165 -2 OFFCURVE",
"62 142 OFFCURVE",
"62 312 CURVE SMOOTH",
"62 513 OFFCURVE",
"196 682 OFFCURVE",
"352 682 CURVE SMOOTH",
"494 682 OFFCURVE",
"598 540 OFFCURVE",
"598 368 CURVE SMOOTH",
"598 167 OFFCURVE",
"464 -2 OFFCURVE",
"308 -2 CURVE SMOOTH"
);
},
{
closed = 1;
nodes = (
"213 649 OFFCURVE",
"96 500 OFFCURVE",
"96 312 CURVE SMOOTH",
"96 159 OFFCURVE",
"185 31 OFFCURVE",
"308 31 CURVE SMOOTH",
"440 31 OFFCURVE",
"564 183 OFFCURVE",
"564 364 CURVE SMOOTH",
"564 508 OFFCURVE",
"473 649 OFFCURVE",
"344 649 CURVE SMOOTH"
);
},
{
closed = 1;
nodes = (
"512 850 OFFCURVE",
"517 855 OFFCURVE",
"526 855 CURVE SMOOTH",
"535 855 OFFCURVE",
"540 849 OFFCURVE",
"540 841 CURVE SMOOTH",
"540 803 OFFCURVE",
"491 735 OFFCURVE",
"437 735 CURVE SMOOTH",
"396 735 OFFCURVE",
"375 766 OFFCURVE",
"356 792 CURVE SMOOTH",
"330 829 OFFCURVE",
"319 842 OFFCURVE",
"299 842 CURVE SMOOTH",
"283 842 OFFCURVE",
"243 829 OFFCURVE",
"226 771 CURVE SMOOTH",
"223 762 OFFCURVE",
"218 758 OFFCURVE",
"211 758 CURVE SMOOTH",
"201 758 OFFCURVE",
"198 766 OFFCURVE",
"198 774 CURVE SMOOTH",
"198 816 OFFCURVE",
"252 869 OFFCURVE",
"299 869 CURVE SMOOTH",
"340 869 OFFCURVE",
"361 839 OFFCURVE",
"380 811 CURVE SMOOTH",
"397 786 OFFCURVE",
"418 761 OFFCURVE",
"439 761 CURVE SMOOTH",
"477 761 OFFCURVE",
"498 812 OFFCURVE",
"510 844 CURVE SMOOTH"
);
}
);
userData = {
com.fontlab.hintData = {
hhints = (
{
position = -2;
width = 33;
},
{
position = 649;
width = 33;
},
{
position = 735;
width = 26;
},
{
position = 842;
width = 27;
}
);
vhints = (
{
position = 62;
width = 34;
},
{
position = 198;
width = 28;
},
{
position = 510;
width = 30;
},
{
position = 564;
width = 34;
}
);
};
};
width = 650;
}
);
unicode = 00D5;
},
{
glyphname = OE;
layers = (
{
layerId = master01;
paths = (
{
closed = 1;
nodes = (
"566 209 LINE",
"523 89 OFFCURVE",
"404 0 OFFCURVE",
"305 0 CURVE SMOOTH",
"162 0 OFFCURVE",
"59 144 OFFCURVE",
"59 314 CURVE SMOOTH",
"59 515 OFFCURVE",
"193 684 OFFCURVE",
"348 684 CURVE SMOOTH",
"426 684 OFFCURVE",
"531 608 OFFCURVE",
"567 496 CURVE",
"567 664 LINE SMOOTH",
"567 674 OFFCURVE",
"576 682 OFFCURVE",
"586 682 CURVE SMOOTH",
"1027 682 LINE SMOOTH",
"1038 682 OFFCURVE",
"1046 674 OFFCURVE",
"1046 664 CURVE SMOOTH",
"1046 653 OFFCURVE",
"1038 644 OFFCURVE",
"1027 644 CURVE SMOOTH",
"605 644 LINE",
"605 372 LINE",
"977 372 LINE SMOOTH",
"987 372 OFFCURVE",
"995 364 OFFCURVE",
"995 353 CURVE SMOOTH",
"995 343 OFFCURVE",
"987 334 OFFCURVE",
"977 334 CURVE SMOOTH",
"605 334 LINE",
"605 38 LINE",
"1025 38 LINE SMOOTH",
"1036 38 OFFCURVE",
"1044 30 OFFCURVE",
"1044 20 CURVE SMOOTH",
"1044 9 OFFCURVE",
"1036 0 OFFCURVE",
"1025 0 CURVE SMOOTH",
"586 0 LINE SMOOTH",
"576 0 OFFCURVE",
"567 9 OFFCURVE",
"567 20 CURVE SMOOTH"
);
},
{
closed = 1;
nodes = (
"467 33 OFFCURVE",
"561 225 OFFCURVE",
"561 366 CURVE SMOOTH",
"561 510 OFFCURVE",
"470 651 OFFCURVE",
"341 651 CURVE SMOOTH",
"209 651 OFFCURVE",
"93 502 OFFCURVE",
"93 314 CURVE SMOOTH",
"93 161 OFFCURVE",
"181 33 OFFCURVE",
"305 33 CURVE SMOOTH"
);
}
);
userData = {
com.fontlab.hintData = {
hhints = (
{
position = 0;
width = 33;
},
{
position = 334;
width = 38;
},
{
position = 644;
width = 38;
},
{
position = 651;
width = 33;
}
);
vhints = (
{
position = 59;
width = 34;
},
{
position = 567;
width = 38;
}
);
};
};
width = 1088;
}
);
unicode = 0152;
},
{
glyphname = P;
layers = (
{
layerId = master01;
paths = (
{
closed = 1;
nodes = (
"76 0 OFFCURVE",
"68 8 OFFCURVE",
"68 19 CURVE SMOOTH",
"68 650 LINE SMOOTH",
"68 674 OFFCURVE",
"70 682 OFFCURVE",
"139 682 CURVE SMOOTH",
"391 682 OFFCURVE",
"513 610 OFFCURVE",
"513 481 CURVE SMOOTH",
"513 298 OFFCURVE",
"249 246 OFFCURVE",
"105 246 CURVE",
"105 19 LINE SMOOTH",
"105 8 OFFCURVE",
"97 0 OFFCURVE",
"86 0 CURVE SMOOTH"
);
},
{
closed = 1;
nodes = (
"105 283 LINE",
"199 283 OFFCURVE",
"476 312 OFFCURVE",
"476 481 CURVE SMOOTH",
"476 586 OFFCURVE",
"360 645 OFFCURVE",
"156 645 CURVE SMOOTH",
"143 645 OFFCURVE",
"123 645 OFFCURVE",
"105 643 CURVE"
);
}
);
userData = {
com.fontlab.hintData = {
hhints = (
{
position = 0;
width = 21;
},
{
position = 246;
width = 37;
},
{
position = 645;
width = 37;
}
);
vhints = (
{
position = 68;
width = 37;
},
{
position = 476;
width = 37;
}
);
};
};
width = 537;
}
);
unicode = 0050;
},
{
glyphname = Thorn;
layers = (
{
layerId = master01;
paths = (
{
closed = 1;
nodes = (
"101 569 LINE",
"250 569 OFFCURVE",
"469 550 OFFCURVE",
"469 376 CURVE SMOOTH",
"469 202 OFFCURVE",
"246 150 OFFCURVE",
"100 147 CURVE",
"100 15 LINE SMOOTH",
"100 7 OFFCURVE",
"93 0 OFFCURVE",
"84 0 CURVE SMOOTH",
"75 0 OFFCURVE",
"68 7 OFFCURVE",
"68 16 CURVE SMOOTH",
"70 665 LINE SMOOTH",
"70 673 OFFCURVE",
"77 680 OFFCURVE",
"86 680 CURVE SMOOTH",
"95 680 OFFCURVE",
"101 673 OFFCURVE",
"101 664 CURVE SMOOTH"
);
},
{
closed = 1;
nodes = (
"101 183 LINE",
"210 184 OFFCURVE",
"437 225 OFFCURVE",
"437 376 CURVE SMOOTH",
"437 476 OFFCURVE",
"331 535 OFFCURVE",
"150 535 CURVE SMOOTH",
"135 535 OFFCURVE",
"122 535 OFFCURVE",
"101 533 CURVE"
);
}
);
userData = {
com.fontlab.hintData = {
hhints = (
{
position = 0;
width = 21;
},
{
position = 147;
width = 36;
},
{
position = 533;
width = 36;
}
);
vhints = (
{
position = 68;
width = 33;
},
{
position = 437;
width = 32;
}
);
};
};
width = 537;
}
);
unicode = 00DE;
},
{
glyphname = Q;
layers = (
{
layerId = master01;
paths = (
{
closed = 1;
nodes = (
"655 9 LINE SMOOTH",
"661 5 OFFCURVE",
"663 -1 OFFCURVE",
"663 -7 CURVE SMOOTH",
"663 -19 OFFCURVE",
"653 -25 OFFCURVE",
"644 -25 CURVE SMOOTH",
"641 -25 OFFCURVE",
"638 -25 OFFCURVE",
"633 -22 CURVE SMOOTH",
"510 60 LINE",
"455 21 OFFCURVE",
"393 -2 OFFCURVE",
"333 -2 CURVE SMOOTH",
"170 -2 OFFCURVE",
"52 141 OFFCURVE",
"52 310 CURVE SMOOTH",
"52 512 OFFCURVE",
"205 680 OFFCURVE",
"381 680 CURVE SMOOTH",
"543 680 OFFCURVE",
"661 537 OFFCURVE",
"661 367 CURVE SMOOTH",
"661 261 OFFCURVE",
"614 158 OFFCURVE",
"540 83 CURVE"
);
},
{
closed = 1;
nodes = (
"378 33 OFFCURVE",
"427 50 OFFCURVE",
"477 81 CURVE",
"383 143 LINE SMOOTH",
"378 146 OFFCURVE",
"375 152 OFFCURVE",
"375 159 CURVE SMOOTH",
"375 169 OFFCURVE",
"383 177 OFFCURVE",
"392 177 CURVE SMOOTH",
"396 177 OFFCURVE",
"401 176 OFFCURVE",
"404 174 CURVE SMOOTH",
"508 105 LINE",
"573 169 OFFCURVE",
"619 264 OFFCURVE",
"619 364 CURVE SMOOTH",
"619 507 OFFCURVE",
"516 645 OFFCURVE",
"373 645 CURVE SMOOTH",
"227 645 OFFCURVE",
"94 498 OFFCURVE",
"94 314 CURVE SMOOTH",
"94 157 OFFCURVE",
"194 33 OFFCURVE",
"333 33 CURVE SMOOTH"
);
}
);
userData = {
com.fontlab.hintData = {
hhints = (
{
position = -2;
width = 35;
},
{
position = 645;
width = 35;
}
);
vhints = (
{
position = 52;
width = 42;
},
{
position = 619;
width = 42;
}
);
};
};
width = 704;
}
);
unicode = 0051;
},
{
glyphname = R;
layers = (
{
layerId = master01;
paths = (
{
closed = 1;
nodes = (
"542 24 OFFCURVE",
"543 22 OFFCURVE",
"543 19 CURVE SMOOTH",
"543 9 OFFCURVE",
"537 0 OFFCURVE",
"524 0 CURVE SMOOTH",
"517 0 OFFCURVE",
"512 5 OFFCURVE",
"508 11 CURVE SMOOTH",
"372 241 OFFCURVE",
"259 258 OFFCURVE",
"214 258 CURVE SMOOTH",
"193 258 OFFCURVE",
"144 253 OFFCURVE",
"105 247 CURVE",
"105 19 LINE SMOOTH",
"105 8 OFFCURVE",
"96 0 OFFCURVE",
"86 0 CURVE SMOOTH",
"76 0 OFFCURVE",
"68 8 OFFCURVE",
"68 19 CURVE SMOOTH",
"68 657 LINE SMOOTH",
"68 687.118 OFFCURVE",
"80.401 688.003 OFFCURVE",
"151.892 688.003 CURVE SMOOTH",
"156.36 688.003 OFFCURVE",
"161.059 688 OFFCURVE",
"166 688 CURVE SMOOTH",
"391 688 OFFCURVE",
"517 613 OFFCURVE",
"517 482 CURVE SMOOTH",
"517 373 OFFCURVE",
"413 311 OFFCURVE",
"309 276 CURVE",
"359 246 OFFCURVE",
"473 161 OFFCURVE",
"541 27 CURVE SMOOTH"
);
},
{
closed = 1;
nodes = (
"105 285 LINE",
"261 288 OFFCURVE",
"480 342 OFFCURVE",
"480 482 CURVE SMOOTH",
"480 594 OFFCURVE",
"362 651 OFFCURVE",
"162 651 CURVE SMOOTH",
"152 651 OFFCURVE",
"120 650 OFFCURVE",
"105 649 CURVE"
);
}
);
userData = {
com.fontlab.hintData = {
hhints = (
{
position = 0;
width = 21;
},
{
position = 258;
width = 27;
},
{
position = 651;
width = 37;
}
);
vhints = (
{
position = 68;
width = 37;
},
{
position = 480;
width = 37;
}
);
};
};
width = 587;
}
);
unicode = 0052;
},
{
glyphname = Racute;
layers = (
{
layerId = master01;
paths = (
{
closed = 1;
nodes = (
"542 24 OFFCURVE",
"543 22 OFFCURVE",
"543 19 CURVE SMOOTH",
"543 9 OFFCURVE",
"537 0 OFFCURVE",
"524 0 CURVE SMOOTH",
"517 0 OFFCURVE",
"512 5 OFFCURVE",
"508 11 CURVE SMOOTH",
"372 241 OFFCURVE",
"259 258 OFFCURVE",
"214 258 CURVE SMOOTH",
"193 258 OFFCURVE",
"144 253 OFFCURVE",
"105 247 CURVE",
"105 19 LINE SMOOTH",
"105 8 OFFCURVE",
"96 0 OFFCURVE",
"86 0 CURVE SMOOTH",
"76 0 OFFCURVE",
"68 8 OFFCURVE",
"68 19 CURVE SMOOTH",
"68 657 LINE SMOOTH",
"68 687.118 OFFCURVE",
"80.401 688.003 OFFCURVE",
"151.892 688.003 CURVE SMOOTH",
"156.36 688.003 OFFCURVE",
"161.059 688 OFFCURVE",
"166 688 CURVE SMOOTH",
"391 688 OFFCURVE",
"517 613 OFFCURVE",
"517 482 CURVE SMOOTH",
"517 373 OFFCURVE",
"413 311 OFFCURVE",
"309 276 CURVE",
"359 246 OFFCURVE",
"473 161 OFFCURVE",
"541 27 CURVE SMOOTH"
);
},
{
closed = 1;
nodes = (
"105 285 LINE",
"261 288 OFFCURVE",
"480 342 OFFCURVE",
"480 482 CURVE SMOOTH",
"480 594 OFFCURVE",
"362 651 OFFCURVE",
"162 651 CURVE SMOOTH",
"152 651 OFFCURVE",
"120 650 OFFCURVE",
"105 649 CURVE"
);
},
{
closed = 1;
nodes = (
"256 759 LINE SMOOTH",
"249 754 OFFCURVE",
"244 752 OFFCURVE",
"240 752 CURVE SMOOTH",
"231 752 OFFCURVE",
"223 760 OFFCURVE",
"223 769 CURVE SMOOTH",
"223 772 OFFCURVE",
"223 777 OFFCURVE",
"229 782 CURVE SMOOTH",
"357 886 LINE SMOOTH",
"366 893 OFFCURVE",
"373 900 OFFCURVE",
"383 900 CURVE SMOOTH",
"394 900 OFFCURVE",
"407 887 OFFCURVE",
"407 873 CURVE SMOOTH",
"407 866 OFFCURVE",
"406 862 OFFCURVE",
"399 857 CURVE SMOOTH"
);
}
);
userData = {
com.fontlab.hintData = {
hhints = (
{
position = 0;
width = 21;
},
{
position = 258;
width = 27;
},
{
position = 651;
width = 37;
}
);
vhints = (
{
position = 68;
width = 37;
},
{
position = 480;
width = 37;
}
);
};
};
width = 587;
}
);
unicode = 0154;
},
{
glyphname = Rcaron;
layers = (
{
layerId = master01;
paths = (
{
closed = 1;
nodes = (
"280 743 OFFCURVE",
"274 745 OFFCURVE",
"270 749 CURVE SMOOTH",
"158 862 LINE SMOOTH",
"154 866 OFFCURVE",
"152 869 OFFCURVE",
"152 874 CURVE SMOOTH",
"152 883 OFFCURVE",
"160 892 OFFCURVE",
"169 892 CURVE SMOOTH",
"174 892 OFFCURVE",
"178 890 OFFCURVE",
"182 887 CURVE SMOOTH",
"287 792 LINE",
"411 888 LINE SMOOTH",
"414 890 OFFCURVE",
"418 892 OFFCURVE",
"422 892 CURVE SMOOTH",
"432 892 OFFCURVE",
"440 883 OFFCURVE",
"440 874 CURVE SMOOTH",
"440 869 OFFCURVE",
"437 864 OFFCURVE",
"433 861 CURVE SMOOTH",
"298 748 LINE SMOOTH",
"294 745 OFFCURVE",
"289 743 OFFCURVE",
"285 743 CURVE SMOOTH"
);
},
{
closed = 1;
nodes = (
"542 24 OFFCURVE",
"543 22 OFFCURVE",
"543 19 CURVE SMOOTH",
"543 9 OFFCURVE",
"537 0 OFFCURVE",
"524 0 CURVE SMOOTH",
"517 0 OFFCURVE",
"512 5 OFFCURVE",
"508 11 CURVE SMOOTH",
"372 241 OFFCURVE",
"259 258 OFFCURVE",
"214 258 CURVE SMOOTH",
"193 258 OFFCURVE",
"144 253 OFFCURVE",
"105 247 CURVE",
"105 19 LINE SMOOTH",
"105 8 OFFCURVE",
"96 0 OFFCURVE",
"86 0 CURVE SMOOTH",
"76 0 OFFCURVE",
"68 8 OFFCURVE",
"68 19 CURVE SMOOTH",
"68 657 LINE SMOOTH",
"68 687.118 OFFCURVE",
"80.401 688.003 OFFCURVE",
"151.892 688.003 CURVE SMOOTH",
"156.36 688.003 OFFCURVE",
"161.059 688 OFFCURVE",
"166 688 CURVE SMOOTH",
"391 688 OFFCURVE",
"517 613 OFFCURVE",
"517 482 CURVE SMOOTH",
"517 373 OFFCURVE",
"413 311 OFFCURVE",
"309 276 CURVE",
"359 246 OFFCURVE",
"473 161 OFFCURVE",
"541 27 CURVE SMOOTH"
);
},
{
closed = 1;
nodes = (
"105 285 LINE",
"261 288 OFFCURVE",
"480 342 OFFCURVE",
"480 482 CURVE SMOOTH",
"480 594 OFFCURVE",
"362 651 OFFCURVE",
"162 651 CURVE SMOOTH",
"152 651 OFFCURVE",
"120 650 OFFCURVE",
"105 649 CURVE"
);
}
);
userData = {
com.fontlab.hintData = {
hhints = (
{
position = 0;
width = 21;
},
{
position = 258;
width = 27;
},
{
position = 651;
width = 37;
}
);
vhints = (
{
position = 68;
width = 37;
},
{
position = 480;
width = 37;
}
);
};
};
width = 587;
}
);
unicode = 0158;
},
{
glyphname = S;
layers = (
{
layerId = master01;
paths = (
{
closed = 1;
nodes = (
"461 338 OFFCURVE",
"533 278 OFFCURVE",
"533 188 CURVE SMOOTH",
"533 61 OFFCURVE",
"406 0 OFFCURVE",
"304 0 CURVE SMOOTH",
"191 0 OFFCURVE",
"100 56 OFFCURVE",
"66 138 CURVE SMOOTH",
"65 141 OFFCURVE",
"63 147 OFFCURVE",
"63 151 CURVE SMOOTH",
"63 162 OFFCURVE",
"73 171 OFFCURVE",
"84 171 CURVE SMOOTH",
"95 171 OFFCURVE",
"101 165 OFFCURVE",
"104 156 CURVE SMOOTH",
"132 76 OFFCURVE",
"227 34 OFFCURVE",
"303 34 CURVE SMOOTH",
"384 34 OFFCURVE",
"490 77 OFFCURVE",
"490 188 CURVE SMOOTH",
"490 227 OFFCURVE",
"478 295 OFFCURVE",
"308 341 CURVE SMOOTH",
"211 367 OFFCURVE",
"100 419 OFFCURVE",
"100 515 CURVE SMOOTH",
"100 642 OFFCURVE",
"215 682 OFFCURVE",
"327 682 CURVE SMOOTH",
"398 682 OFFCURVE",
"519 659 OFFCURVE",
"530 553 CURVE",
"530 543 OFFCURVE",
"524 534 OFFCURVE",
"513 534 CURVE SMOOTH",
"502 534 OFFCURVE",
"496 541 OFFCURVE",
"495 549 CURVE SMOOTH",
"487 619 OFFCURVE",
"403 650 OFFCURVE",
"324 650 CURVE SMOOTH",
"230 650 OFFCURVE",
"140 619 OFFCURVE",
"140 520 CURVE SMOOTH",
"140 455 OFFCURVE",
"202 410 OFFCURVE",
"315 379 CURVE SMOOTH"
);
}
);
userData = {
com.fontlab.hintData = {
hhints = (
{
position = 0;
width = 34;
},
{
position = 650;
width = 32;
}
);
vhints = (
{
position = 100;
width = 40;
},
{
position = 490;
width = 43;
}
);
};
};
width = 588;
}
);
unicode = 0053;
},
{
glyphname = Sacute;
layers = (
{
layerId = master01;
paths = (
{
closed = 1;
nodes = (
"461 338 OFFCURVE",
"533 278 OFFCURVE",
"533 188 CURVE SMOOTH",
"533 61 OFFCURVE",
"406 0 OFFCURVE",
"304 0 CURVE SMOOTH",
"191 0 OFFCURVE",
"100 56 OFFCURVE",
"66 138 CURVE SMOOTH",
"65 141 OFFCURVE",
"63 147 OFFCURVE",
"63 151 CURVE SMOOTH",
"63 162 OFFCURVE",
"73 171 OFFCURVE",
"84 171 CURVE SMOOTH",
"95 171 OFFCURVE",
"101 165 OFFCURVE",
"104 156 CURVE SMOOTH",
"132 76 OFFCURVE",
"227 34 OFFCURVE",
"303 34 CURVE SMOOTH",
"384 34 OFFCURVE",
"490 77 OFFCURVE",
"490 188 CURVE SMOOTH",
"490 227 OFFCURVE",
"478 295 OFFCURVE",
"308 341 CURVE SMOOTH",
"211 367 OFFCURVE",
"100 419 OFFCURVE",
"100 515 CURVE SMOOTH",
"100 642 OFFCURVE",
"215 682 OFFCURVE",
"327 682 CURVE SMOOTH",
"398 682 OFFCURVE",
"519 659 OFFCURVE",
"530 553 CURVE",
"530 543 OFFCURVE",
"524 534 OFFCURVE",
"513 534 CURVE SMOOTH",
"502 534 OFFCURVE",
"496 541 OFFCURVE",
"495 549 CURVE SMOOTH",
"487 619 OFFCURVE",
"403 650 OFFCURVE",
"324 650 CURVE SMOOTH",
"230 650 OFFCURVE",
"140 619 OFFCURVE",
"140 520 CURVE SMOOTH",
"140 455 OFFCURVE",
"202 410 OFFCURVE",
"315 379 CURVE SMOOTH"
);
},
{
closed = 1;
nodes = (
"280 759 LINE SMOOTH",
"273 754 OFFCURVE",
"268 752 OFFCURVE",
"264 752 CURVE SMOOTH",
"255 752 OFFCURVE",
"247 760 OFFCURVE",
"247 769 CURVE SMOOTH",
"247 772 OFFCURVE",
"247 777 OFFCURVE",
"253 782 CURVE SMOOTH",
"381 886 LINE SMOOTH",
"390 893 OFFCURVE",
"397 900 OFFCURVE",
"407 900 CURVE SMOOTH",
"418 900 OFFCURVE",
"431 887 OFFCURVE",
"431 873 CURVE SMOOTH",
"431 866 OFFCURVE",
"430 862 OFFCURVE",
"423 857 CURVE SMOOTH"
);
}
);
userData = {
com.fontlab.hintData = {
hhints = (
{
position = 0;
width = 34;
},
{
position = 650;
width = 32;
}
);
vhints = (
{
position = 100;
width = 40;
},
{
position = 490;
width = 43;
}
);
};
};
width = 588;
}
);
unicode = 015A;
},
{
glyphname = Scaron;
layers = (
{
layerId = master01;
paths = (
{
closed = 1;
nodes = (
"319 752 OFFCURVE",
"313 754 OFFCURVE",
"309 758 CURVE SMOOTH",
"197 871 LINE SMOOTH",
"193 875 OFFCURVE",
"191 878 OFFCURVE",
"191 883 CURVE SMOOTH",
"191 892 OFFCURVE",
"199 901 OFFCURVE",
"208 901 CURVE SMOOTH",
"213 901 OFFCURVE",
"217 899 OFFCURVE",
"221 896 CURVE SMOOTH",
"326 801 LINE",
"450 897 LINE SMOOTH",
"453 899 OFFCURVE",
"457 901 OFFCURVE",
"461 901 CURVE SMOOTH",
"471 901 OFFCURVE",
"479 892 OFFCURVE",
"479 883 CURVE SMOOTH",
"479 878 OFFCURVE",
"476 873 OFFCURVE",
"472 870 CURVE SMOOTH",
"337 757 LINE SMOOTH",
"333 754 OFFCURVE",
"328 752 OFFCURVE",
"324 752 CURVE SMOOTH"
);
},
{
closed = 1;
nodes = (
"461 338 OFFCURVE",
"533 278 OFFCURVE",
"533 188 CURVE SMOOTH",
"533 61 OFFCURVE",
"406 0 OFFCURVE",
"304 0 CURVE SMOOTH",
"191 0 OFFCURVE",
"100 56 OFFCURVE",
"66 138 CURVE SMOOTH",
"65 141 OFFCURVE",
"63 147 OFFCURVE",
"63 151 CURVE SMOOTH",
"63 162 OFFCURVE",
"73 171 OFFCURVE",
"84 171 CURVE SMOOTH",
"95 171 OFFCURVE",
"101 165 OFFCURVE",
"104 156 CURVE SMOOTH",
"132 76 OFFCURVE",
"227 34 OFFCURVE",
"303 34 CURVE SMOOTH",
"384 34 OFFCURVE",
"490 77 OFFCURVE",
"490 188 CURVE SMOOTH",
"490 227 OFFCURVE",
"478 295 OFFCURVE",
"308 341 CURVE SMOOTH",
"211 367 OFFCURVE",
"100 419 OFFCURVE",
"100 515 CURVE SMOOTH",
"100 642 OFFCURVE",
"215 682 OFFCURVE",
"327 682 CURVE SMOOTH",
"398 682 OFFCURVE",
"519 659 OFFCURVE",
"530 553 CURVE",
"530 543 OFFCURVE",
"524 534 OFFCURVE",
"513 534 CURVE SMOOTH",
"502 534 OFFCURVE",
"496 541 OFFCURVE",
"495 549 CURVE SMOOTH",
"487 619 OFFCURVE",
"403 650 OFFCURVE",
"324 650 CURVE SMOOTH",
"230 650 OFFCURVE",
"140 619 OFFCURVE",
"140 520 CURVE SMOOTH",
"140 455 OFFCURVE",
"202 410 OFFCURVE",
"315 379 CURVE SMOOTH"
);
}
);
userData = {
com.fontlab.hintData = {
hhints = (
{
position = 0;
width = 34;
},
{
position = 650;
width = 32;
}
);
vhints = (
{
position = 100;
width = 40;
},
{
position = 490;
width = 43;
}
);
};
};
width = 588;
}
);
unicode = 0160;
},
{
glyphname = Scedilla;
layers = (
{
layerId = master01;
paths = (
{
closed = 1;
nodes = (
"174 14 OFFCURVE",
"96 64 OFFCURVE",
"66 138 CURVE SMOOTH",
"65 141 OFFCURVE",
"63 147 OFFCURVE",
"63 151 CURVE SMOOTH",
"63 162 OFFCURVE",
"73 171 OFFCURVE",
"84 171 CURVE SMOOTH",
"95 171 OFFCURVE",
"101 165 OFFCURVE",
"104 156 CURVE SMOOTH",
"132 76 OFFCURVE",
"227 34 OFFCURVE",
"303 34 CURVE SMOOTH",
"384 34 OFFCURVE",
"490 77 OFFCURVE",
"490 188 CURVE SMOOTH",
"490 227 OFFCURVE",
"478 295 OFFCURVE",
"308 341 CURVE SMOOTH",
"211 367 OFFCURVE",
"100 419 OFFCURVE",
"100 515 CURVE SMOOTH",
"100 642 OFFCURVE",
"215 682 OFFCURVE",
"327 682 CURVE SMOOTH",
"398 682 OFFCURVE",
"519 659 OFFCURVE",
"530 553 CURVE",
"530 543 OFFCURVE",
"524 534 OFFCURVE",
"513 534 CURVE SMOOTH",
"502 534 OFFCURVE",
"496 541 OFFCURVE",
"495 549 CURVE SMOOTH",
"487 619 OFFCURVE",
"403 650 OFFCURVE",
"324 650 CURVE SMOOTH",
"230 650 OFFCURVE",
"140 619 OFFCURVE",
"140 520 CURVE SMOOTH",
"140 455 OFFCURVE",
"202 410 OFFCURVE",
"315 379 CURVE SMOOTH",
"461 338 OFFCURVE",
"533 278 OFFCURVE",
"533 188 CURVE SMOOTH",
"533 61 OFFCURVE",
"406 0 OFFCURVE",
"304 0 CURVE SMOOTH",
"283 0 LINE",
"282 -41 LINE",
"353 -41 OFFCURVE",
"388 -78 OFFCURVE",
"388 -123 CURVE SMOOTH",
"388 -170 OFFCURVE",
"351 -209 OFFCURVE",
"304 -209 CURVE SMOOTH",
"273 -209 OFFCURVE",
"232 -189 OFFCURVE",
"232 -163 CURVE SMOOTH",
"232 -157 OFFCURVE",
"237 -154 OFFCURVE",
"242 -154 CURVE SMOOTH",
"247 -154 OFFCURVE",
"250 -159 OFFCURVE",
"254 -164 CURVE SMOOTH",
"263 -174 OFFCURVE",
"275 -187 OFFCURVE",
"304 -187 CURVE SMOOTH",
"338 -187 OFFCURVE",
"365 -159 OFFCURVE",
"365 -125 CURVE SMOOTH",
"365 -91 OFFCURVE",
"338 -64 OFFCURVE",
"304 -64 CURVE SMOOTH",
"286 -64 OFFCURVE",
"275 -70 OFFCURVE",
"268 -75 CURVE SMOOTH",
"264 -78 OFFCURVE",
"261 -79 OFFCURVE",
"259 -79 CURVE SMOOTH",
"253 -79 OFFCURVE",
"248 -75 OFFCURVE",
"248 -69 CURVE SMOOTH",
"248 -65 OFFCURVE",
"267 -8 OFFCURVE",
"270 1 CURVE"
);
}
);
userData = {
com.fontlab.hintData = {
hhints = (
{
position = -209;
width = 22;
},
{
position = -64;
width = 23;
},
{
position = 0;
width = 34;
},
{
position = 650;
width = 32;
}
);
vhints = (
{
position = 100;
width = 40;
},
{
position = 248;
width = 34;
},
{
position = 365;
width = 23;
},
{
position = 490;
width = 43;
}
);
};
};
width = 588;
}
);
unicode = 015E;
},
{
glyphname = Scircumflex;
layers = (
{
layerId = master01;
paths = (
{
closed = 1;
nodes = (
"461 338 OFFCURVE",
"533 278 OFFCURVE",
"533 188 CURVE SMOOTH",
"533 61 OFFCURVE",
"406 0 OFFCURVE",
"304 0 CURVE SMOOTH",
"191 0 OFFCURVE",
"100 56 OFFCURVE",
"66 138 CURVE SMOOTH",
"65 141 OFFCURVE",
"63 147 OFFCURVE",
"63 151 CURVE SMOOTH",
"63 162 OFFCURVE",
"73 171 OFFCURVE",
"84 171 CURVE SMOOTH",
"95 171 OFFCURVE",
"101 165 OFFCURVE",
"104 156 CURVE SMOOTH",
"132 76 OFFCURVE",
"227 34 OFFCURVE",
"303 34 CURVE SMOOTH",
"384 34 OFFCURVE",
"490 77 OFFCURVE",
"490 188 CURVE SMOOTH",
"490 227 OFFCURVE",
"478 295 OFFCURVE",
"308 341 CURVE SMOOTH",
"211 367 OFFCURVE",
"100 419 OFFCURVE",
"100 515 CURVE SMOOTH",
"100 642 OFFCURVE",
"215 682 OFFCURVE",
"327 682 CURVE SMOOTH",
"398 682 OFFCURVE",
"519 659 OFFCURVE",
"530 553 CURVE SMOOTH",
"530 543 OFFCURVE",
"524 534 OFFCURVE",
"513 534 CURVE SMOOTH",
"502 534 OFFCURVE",
"496 541 OFFCURVE",
"495 549 CURVE SMOOTH",
"487 619 OFFCURVE",
"403 650 OFFCURVE",
"324 650 CURVE SMOOTH",
"230 650 OFFCURVE",
"140 619 OFFCURVE",
"140 520 CURVE SMOOTH",
"140 455 OFFCURVE",
"202 410 OFFCURVE",
"315 379 CURVE SMOOTH"
);
},
{
closed = 1;
nodes = (
"341 902 OFFCURVE",
"347 900 OFFCURVE",
"351 896 CURVE SMOOTH",
"463 783 LINE SMOOTH",
"467 779 OFFCURVE",
"469 776 OFFCURVE",
"469 771 CURVE SMOOTH",
"469 762 OFFCURVE",
"461 753 OFFCURVE",
"452 753 CURVE SMOOTH",
"447 753 OFFCURVE",
"443 755 OFFCURVE",
"439 758 CURVE SMOOTH",
"334 853 LINE",
"210 757 LINE SMOOTH",
"207 755 OFFCURVE",
"203 753 OFFCURVE",
"199 753 CURVE SMOOTH",
"189 753 OFFCURVE",
"181 762 OFFCURVE",
"181 771 CURVE SMOOTH",
"181 776 OFFCURVE",
"184 781 OFFCURVE",
"188 784 CURVE SMOOTH",
"323 897 LINE SMOOTH",
"327 900 OFFCURVE",
"332 902 OFFCURVE",
"336 902 CURVE SMOOTH"
);
}
);
userData = {
com.fontlab.hintData = {
hhints = (
{
position = 0;
width = 34;
},
{
position = 650;
width = 32;
}
);
vhints = (
{
position = 100;
width = 40;
},
{
position = 490;
width = 43;
}
);
};
};
width = 588;
}
);
unicode = 015C;
},
{
glyphname = T;
layers = (
{
layerId = master01;
paths = (
{
closed = 1;
nodes = (
"490 681 LINE SMOOTH",
"500 681 OFFCURVE",
"509 673 OFFCURVE",
"509 662 CURVE SMOOTH",
"509 652 OFFCURVE",
"500 644 OFFCURVE",
"490 644 CURVE SMOOTH",
"271 644 LINE",
"271 19 LINE SMOOTH",
"271 8 OFFCURVE",
"263 0 OFFCURVE",
"253 0 CURVE SMOOTH",
"242 0 OFFCURVE",
"234 8 OFFCURVE",
"234 19 CURVE SMOOTH",
"234 644 LINE",
"30 644 LINE SMOOTH",
"20 644 OFFCURVE",
"11 652 OFFCURVE",
"11 662 CURVE SMOOTH",
"11 673 OFFCURVE",
"20 681 OFFCURVE",
"30 681 CURVE SMOOTH"
);
}
);
userData = {
com.fontlab.hintData = {
hhints = (
{
position = 0;
width = 21;
},
{
position = 644;
width = 37;
}
);
vhints = (
{
position = 234;
width = 37;
}
);
};
};
width = 512;
}
);
unicode = 0054;
},
{
glyphname = Tcaron;
layers = (
{
layerId = master01;
paths = (
{
closed = 1;
nodes = (
"254 743 OFFCURVE",
"248 745 OFFCURVE",
"244 749 CURVE SMOOTH",
"132 862 LINE SMOOTH",
"128 866 OFFCURVE",
"126 869 OFFCURVE",
"126 874 CURVE SMOOTH",
"126 883 OFFCURVE",
"134 892 OFFCURVE",
"143 892 CURVE SMOOTH",
"148 892 OFFCURVE",
"152 890 OFFCURVE",
"156 887 CURVE SMOOTH",
"261 792 LINE",
"385 888 LINE SMOOTH",
"388 890 OFFCURVE",
"392 892 OFFCURVE",
"396 892 CURVE SMOOTH",
"406 892 OFFCURVE",
"414 883 OFFCURVE",
"414 874 CURVE SMOOTH",
"414 869 OFFCURVE",
"411 864 OFFCURVE",
"407 861 CURVE SMOOTH",
"272 748 LINE SMOOTH",
"268 745 OFFCURVE",
"263 743 OFFCURVE",
"259 743 CURVE SMOOTH"
);
},
{
closed = 1;
nodes = (
"490 681 LINE SMOOTH",
"500 681 OFFCURVE",
"509 673 OFFCURVE",
"509 662 CURVE SMOOTH",
"509 652 OFFCURVE",
"500 644 OFFCURVE",
"490 644 CURVE SMOOTH",
"271 644 LINE",
"271 19 LINE SMOOTH",
"271 8 OFFCURVE",
"263 0 OFFCURVE",
"253 0 CURVE SMOOTH",
"242 0 OFFCURVE",
"234 8 OFFCURVE",
"234 19 CURVE SMOOTH",
"234 644 LINE",
"30 644 LINE SMOOTH",
"20 644 OFFCURVE",
"11 652 OFFCURVE",
"11 662 CURVE SMOOTH",
"11 673 OFFCURVE",
"20 681 OFFCURVE",
"30 681 CURVE SMOOTH"
);
}
);
userData = {
com.fontlab.hintData = {
hhints = (
{
position = 0;
width = 21;
},
{
position = 644;
width = 37;
}
);
vhints = (
{
position = 234;
width = 37;
}
);
};
};
width = 512;
}
);
unicode = 0164;
},
{
glyphname = U;
layers = (
{
layerId = master01;
paths = (
{
closed = 1;
nodes = (
"615.851 594.691 OFFCURVE",
"617.916 536.168 OFFCURVE",
"617.916 477.233 CURVE SMOOTH",
"617.916 408.815 OFFCURVE",
"615.133 339.84 OFFCURVE",
"606 270 CURVE SMOOTH",
"585 110 OFFCURVE",
"502 0 OFFCURVE",
"329 0 CURVE SMOOTH",
"171 0 OFFCURVE",
"78 125 OFFCURVE",
"69 367 CURVE SMOOTH",
"67.188 415.48 OFFCURVE",
"66.607 461.701 OFFCURVE",
"66.607 505.665 CURVE SMOOTH",
"66.607 558.734 OFFCURVE",
"67.453 608.512 OFFCURVE",
"68 655 CURVE SMOOTH",
"68 671 OFFCURVE",
"74 681 OFFCURVE",
"88 681 CURVE SMOOTH",
"103 681 OFFCURVE",
"106 670 OFFCURVE",
"106 654 CURVE SMOOTH",
"104.735 597.711 OFFCURVE",
"103.47 540.623 OFFCURVE",
"103.47 482.734 CURVE SMOOTH",
"103.47 449.093 OFFCURVE",
"103.897 415.182 OFFCURVE",
"105 381 CURVE SMOOTH",
"110 236 OFFCURVE",
"145 31 OFFCURVE",
"330 31 CURVE SMOOTH",
"490 31 OFFCURVE",
"554 139 OFFCURVE",
"570 277 CURVE SMOOTH",
"576.76 339.4 OFFCURVE",
"578.382 402.07 OFFCURVE",
"578.382 466.558 CURVE SMOOTH",
"578.382 526.085 OFFCURVE",
"577 587.16 OFFCURVE",
"577 651 CURVE SMOOTH",
"577 667 OFFCURVE",
"578 681 OFFCURVE",
"596 681 CURVE SMOOTH",
"611 681 OFFCURVE",
"614 668 OFFCURVE",
"614 653 CURVE SMOOTH"
);
}
);
userData = {
com.fontlab.hintData = {
hhints = (
{
position = 0;
width = 31;
},
{
position = 661;
width = 20;
}
);
vhints = (
{
position = 67;
width = 37;
},
{
position = 578;
width = 40;
}
);
};
};
width = 673;
}
);
unicode = 0055;
},
{
glyphname = Uacute;
layers = (
{
layerId = master01;
paths = (
{
closed = 1;
nodes = (
"615.851 594.691 OFFCURVE",
"617.916 536.168 OFFCURVE",
"617.916 477.233 CURVE SMOOTH",
"617.916 408.815 OFFCURVE",
"615.133 339.84 OFFCURVE",
"606 270 CURVE SMOOTH",
"585 110 OFFCURVE",
"502 0 OFFCURVE",
"329 0 CURVE SMOOTH",
"171 0 OFFCURVE",
"78 125 OFFCURVE",
"69 367 CURVE SMOOTH",
"67.188 415.48 OFFCURVE",
"66.607 461.701 OFFCURVE",
"66.607 505.665 CURVE SMOOTH",
"66.607 558.734 OFFCURVE",
"67.453 608.512 OFFCURVE",
"68 655 CURVE SMOOTH",
"68 671 OFFCURVE",
"74 681 OFFCURVE",
"88 681 CURVE SMOOTH",
"103 681 OFFCURVE",
"106 670 OFFCURVE",
"106 654 CURVE SMOOTH",
"104.735 597.711 OFFCURVE",
"103.47 540.623 OFFCURVE",
"103.47 482.734 CURVE SMOOTH",
"103.47 449.093 OFFCURVE",
"103.897 415.182 OFFCURVE",
"105 381 CURVE SMOOTH",
"110 236 OFFCURVE",
"145 31 OFFCURVE",
"330 31 CURVE SMOOTH",
"490 31 OFFCURVE",
"554 139 OFFCURVE",
"570 277 CURVE SMOOTH",
"576.76 339.4 OFFCURVE",
"578.382 402.07 OFFCURVE",
"578.382 466.558 CURVE SMOOTH",
"578.382 526.085 OFFCURVE",
"577 587.16 OFFCURVE",
"577 651 CURVE SMOOTH",
"577 667 OFFCURVE",
"578 681 OFFCURVE",
"596 681 CURVE SMOOTH",
"611 681 OFFCURVE",
"614 668 OFFCURVE",
"614 653 CURVE SMOOTH"
);
},
{
closed = 1;
nodes = (
"305 759 LINE SMOOTH",
"298 754 OFFCURVE",
"293 752 OFFCURVE",
"289 752 CURVE SMOOTH",
"280 752 OFFCURVE",
"272 760 OFFCURVE",
"272 769 CURVE SMOOTH",
"272 772 OFFCURVE",
"272 777 OFFCURVE",
"278 782 CURVE SMOOTH",
"406 886 LINE SMOOTH",
"415 893 OFFCURVE",
"422 900 OFFCURVE",
"432 900 CURVE SMOOTH",
"443 900 OFFCURVE",
"456 887 OFFCURVE",
"456 873 CURVE SMOOTH",
"456 866 OFFCURVE",
"455 862 OFFCURVE",
"448 857 CURVE SMOOTH"
);
}
);
userData = {
com.fontlab.hintData = {
hhints = (
{
position = 0;
width = 31;
},
{
position = 661;
width = 20;
}
);
vhints = (
{
position = 67;
width = 37;
},
{
position = 578;
width = 40;
}
);
};
};
width = 673;
}
);
unicode = 00DA;
},
{
glyphname = Ubreve;
layers = (
{
layerId = master01;
paths = (
{
closed = 1;
nodes = (
"615.851 594.691 OFFCURVE",
"617.916 536.168 OFFCURVE",
"617.916 477.233 CURVE SMOOTH",
"617.916 408.815 OFFCURVE",
"615.133 339.84 OFFCURVE",
"606 270 CURVE SMOOTH",
"585 110 OFFCURVE",
"502 0 OFFCURVE",
"329 0 CURVE SMOOTH",
"171 0 OFFCURVE",
"78 125 OFFCURVE",
"69 367 CURVE SMOOTH",
"67.188 415.48 OFFCURVE",
"66.607 461.701 OFFCURVE",
"66.607 505.665 CURVE SMOOTH",
"66.607 558.734 OFFCURVE",
"67.453 608.512 OFFCURVE",
"68 655 CURVE SMOOTH",
"68 671 OFFCURVE",
"74 681 OFFCURVE",
"88 681 CURVE SMOOTH",
"103 681 OFFCURVE",
"106 670 OFFCURVE",
"106 654 CURVE SMOOTH",
"104.735 597.711 OFFCURVE",
"103.47 540.623 OFFCURVE",
"103.47 482.734 CURVE SMOOTH",
"103.47 449.093 OFFCURVE",
"103.897 415.182 OFFCURVE",
"105 381 CURVE SMOOTH",
"110 236 OFFCURVE",
"145 31 OFFCURVE",
"330 31 CURVE SMOOTH",
"490 31 OFFCURVE",
"554 139 OFFCURVE",
"570 277 CURVE SMOOTH",
"576.76 339.4 OFFCURVE",
"578.382 402.07 OFFCURVE",
"578.382 466.558 CURVE SMOOTH",
"578.382 526.085 OFFCURVE",
"577 587.16 OFFCURVE",
"577 651 CURVE SMOOTH",
"577 667 OFFCURVE",
"578 681 OFFCURVE",
"596 681 CURVE SMOOTH",
"611 681 OFFCURVE",
"614 668 OFFCURVE",
"614 653 CURVE SMOOTH"
);
},
{
closed = 1;
nodes = (
"240 807 OFFCURVE",
"302 790 OFFCURVE",
"344 790 CURVE SMOOTH",
"400 790 OFFCURVE",
"440 816 OFFCURVE",
"463 868 CURVE SMOOTH",
"467 876 OFFCURVE",
"471 883 OFFCURVE",
"478 883 CURVE SMOOTH",
"482 883 OFFCURVE",
"485 880 OFFCURVE",
"485 876 CURVE SMOOTH",
"485 833 OFFCURVE",
"434 762 OFFCURVE",
"341 762 CURVE SMOOTH",
"226 762 OFFCURVE",
"187 849 OFFCURVE",
"187 869 CURVE SMOOTH",
"187 873 OFFCURVE",
"188 878 OFFCURVE",
"195 878 CURVE SMOOTH",
"201 878 OFFCURVE",
"206 870 OFFCURVE",
"209 865 CURVE SMOOTH"
);
}
);
userData = {
com.fontlab.hintData = {
hhints = (
{
position = 0;
width = 31;
},
{
position = 661;
width = 20;
},
{
position = 762;
width = 28;
}
);
vhints = (
{
position = 67;
width = 37;
},
{
position = 578;
width = 40;
}
);
};
};
width = 673;
}
);
unicode = 016C;
},
{
glyphname = Ucircumflex;
layers = (
{
layerId = master01;
paths = (
{
closed = 1;
nodes = (
"368 902 OFFCURVE",
"374 900 OFFCURVE",
"378 896 CURVE SMOOTH",
"490 783 LINE SMOOTH",
"494 779 OFFCURVE",
"496 776 OFFCURVE",
"496 771 CURVE SMOOTH",
"496 762 OFFCURVE",
"488 753 OFFCURVE",
"479 753 CURVE SMOOTH",
"474 753 OFFCURVE",
"470 755 OFFCURVE",
"466 758 CURVE SMOOTH",
"361 853 LINE",
"237 757 LINE SMOOTH",
"234 755 OFFCURVE",
"230 753 OFFCURVE",
"226 753 CURVE SMOOTH",
"216 753 OFFCURVE",
"208 762 OFFCURVE",
"208 771 CURVE SMOOTH",
"208 776 OFFCURVE",
"211 781 OFFCURVE",
"215 784 CURVE SMOOTH",
"350 897 LINE SMOOTH",
"354 900 OFFCURVE",
"359 902 OFFCURVE",
"363 902 CURVE SMOOTH"
);
},
{
closed = 1;
nodes = (
"615.851 594.691 OFFCURVE",
"617.916 536.168 OFFCURVE",
"617.916 477.233 CURVE SMOOTH",
"617.916 408.815 OFFCURVE",
"615.133 339.84 OFFCURVE",
"606 270 CURVE SMOOTH",
"585 110 OFFCURVE",
"502 0 OFFCURVE",
"329 0 CURVE SMOOTH",
"171 0 OFFCURVE",
"78 125 OFFCURVE",
"69 367 CURVE SMOOTH",
"67.188 415.48 OFFCURVE",
"66.607 461.701 OFFCURVE",
"66.607 505.665 CURVE SMOOTH",
"66.607 558.734 OFFCURVE",
"67.453 608.512 OFFCURVE",
"68 655 CURVE SMOOTH",
"68 671 OFFCURVE",
"74 681 OFFCURVE",
"88 681 CURVE SMOOTH",
"103 681 OFFCURVE",
"106 670 OFFCURVE",
"106 654 CURVE SMOOTH",
"104.735 597.711 OFFCURVE",
"103.47 540.623 OFFCURVE",
"103.47 482.734 CURVE SMOOTH",
"103.47 449.093 OFFCURVE",
"103.897 415.182 OFFCURVE",
"105 381 CURVE SMOOTH",
"110 236 OFFCURVE",
"145 31 OFFCURVE",
"330 31 CURVE SMOOTH",
"490 31 OFFCURVE",
"554 139 OFFCURVE",
"570 277 CURVE SMOOTH",
"576.76 339.4 OFFCURVE",
"578.382 402.07 OFFCURVE",
"578.382 466.558 CURVE SMOOTH",
"578.382 526.085 OFFCURVE",
"577 587.16 OFFCURVE",
"577 651 CURVE SMOOTH",
"577 667 OFFCURVE",
"578 681 OFFCURVE",
"596 681 CURVE SMOOTH",
"611 681 OFFCURVE",
"614 668 OFFCURVE",
"614 653 CURVE SMOOTH"
);
}
);
userData = {
com.fontlab.hintData = {
hhints = (
{
position = 0;
width = 31;
},
{
position = 661;
width = 20;
}
);
vhints = (
{
position = 67;
width = 37;
},
{
position = 578;
width = 40;
}
);
};
};
width = 673;
}
);
unicode = 00DB;
},
{
glyphname = Udieresis;
layers = (
{
layerId = master01;
paths = (
{
closed = 1;
nodes = (
"301 771 OFFCURVE",
"282 755 OFFCURVE",
"259 755 CURVE SMOOTH",
"239 755 OFFCURVE",
"223 768 OFFCURVE",
"223 785 CURVE SMOOTH",
"223 804 OFFCURVE",
"241 820 OFFCURVE",
"265 820 CURVE SMOOTH",
"283 820 OFFCURVE",
"301 807 OFFCURVE",
"301 790 CURVE SMOOTH"
);
},
{
closed = 1;
nodes = (
"465 771 OFFCURVE",
"446 755 OFFCURVE",
"423 755 CURVE SMOOTH",
"403 755 OFFCURVE",
"386 768 OFFCURVE",
"386 785 CURVE SMOOTH",
"386 804 OFFCURVE",
"405 820 OFFCURVE",
"429 820 CURVE SMOOTH",
"447 820 OFFCURVE",
"465 807 OFFCURVE",
"465 790 CURVE SMOOTH"
);
},
{
closed = 1;
nodes = (
"615.851 594.691 OFFCURVE",
"617.916 536.168 OFFCURVE",
"617.916 477.233 CURVE SMOOTH",
"617.916 408.815 OFFCURVE",
"615.133 339.84 OFFCURVE",
"606 270 CURVE SMOOTH",
"585 110 OFFCURVE",
"502 0 OFFCURVE",
"329 0 CURVE SMOOTH",
"171 0 OFFCURVE",
"78 125 OFFCURVE",
"69 367 CURVE SMOOTH",
"67.188 415.48 OFFCURVE",
"66.607 461.701 OFFCURVE",
"66.607 505.665 CURVE SMOOTH",
"66.607 558.734 OFFCURVE",
"67.453 608.512 OFFCURVE",
"68 655 CURVE SMOOTH",
"68 671 OFFCURVE",
"74 681 OFFCURVE",
"88 681 CURVE SMOOTH",
"103 681 OFFCURVE",
"106 670 OFFCURVE",
"106 654 CURVE SMOOTH",
"104.735 597.711 OFFCURVE",
"103.47 540.623 OFFCURVE",
"103.47 482.734 CURVE SMOOTH",
"103.47 449.093 OFFCURVE",
"103.897 415.182 OFFCURVE",
"105 381 CURVE SMOOTH",
"110 236 OFFCURVE",
"145 31 OFFCURVE",
"330 31 CURVE SMOOTH",
"490 31 OFFCURVE",
"554 139 OFFCURVE",
"570 277 CURVE SMOOTH",
"576.76 339.4 OFFCURVE",
"578.382 402.07 OFFCURVE",
"578.382 466.558 CURVE SMOOTH",
"578.382 526.085 OFFCURVE",
"577 587.16 OFFCURVE",
"577 651 CURVE SMOOTH",
"577 667 OFFCURVE",
"578 681 OFFCURVE",
"596 681 CURVE SMOOTH",
"611 681 OFFCURVE",
"614 668 OFFCURVE",
"614 653 CURVE SMOOTH"
);
}
);
userData = {
com.fontlab.hintData = {
hhints = (
{
position = 0;
width = 31;
},
{
position = 661;
width = 20;
},
{
position = 755;
width = 65;
}
);
vhints = (
{
position = 67;
width = 37;
},
{
position = 223;
width = 78;
},
{
position = 386;
width = 79;
},
{
position = 578;
width = 40;
}
);
};
};
width = 673;
}
);
unicode = 00DC;
},
{
glyphname = Ugrave;
layers = (
{
layerId = master01;
paths = (
{
closed = 1;
nodes = (
"615.851 594.691 OFFCURVE",
"617.916 536.168 OFFCURVE",
"617.916 477.233 CURVE SMOOTH",
"617.916 408.815 OFFCURVE",
"615.133 339.84 OFFCURVE",
"606 270 CURVE SMOOTH",
"585 110 OFFCURVE",
"502 0 OFFCURVE",
"329 0 CURVE SMOOTH",
"171 0 OFFCURVE",
"78 125 OFFCURVE",
"69 367 CURVE SMOOTH",
"67.188 415.48 OFFCURVE",
"66.607 461.701 OFFCURVE",
"66.607 505.665 CURVE SMOOTH",
"66.607 558.734 OFFCURVE",
"67.453 608.512 OFFCURVE",
"68 655 CURVE SMOOTH",
"68 671 OFFCURVE",
"74 681 OFFCURVE",
"88 681 CURVE SMOOTH",
"103 681 OFFCURVE",
"106 670 OFFCURVE",
"106 654 CURVE SMOOTH",
"104.735 597.711 OFFCURVE",
"103.47 540.623 OFFCURVE",
"103.47 482.734 CURVE SMOOTH",
"103.47 449.093 OFFCURVE",
"103.897 415.182 OFFCURVE",
"105 381 CURVE SMOOTH",
"110 236 OFFCURVE",
"145 31 OFFCURVE",
"330 31 CURVE SMOOTH",
"490 31 OFFCURVE",
"554 139 OFFCURVE",
"570 277 CURVE SMOOTH",
"576.76 339.4 OFFCURVE",
"578.382 402.07 OFFCURVE",
"578.382 466.558 CURVE SMOOTH",
"578.382 526.085 OFFCURVE",
"577 587.16 OFFCURVE",
"577 651 CURVE SMOOTH",
"577 667 OFFCURVE",
"578 681 OFFCURVE",
"596 681 CURVE SMOOTH",
"611 681 OFFCURVE",
"614 668 OFFCURVE",
"614 653 CURVE SMOOTH"
);
},
{
closed = 1;
nodes = (
"402 765 LINE SMOOTH",
"406 760 OFFCURVE",
"408 756 OFFCURVE",
"408 752 CURVE SMOOTH",
"408 742 OFFCURVE",
"398 736 OFFCURVE",
"389 736 CURVE SMOOTH",
"385 736 OFFCURVE",
"380 738 OFFCURVE",
"376 742 CURVE SMOOTH",
"253 868 LINE SMOOTH",
"248 874 OFFCURVE",
"245 880 OFFCURVE",
"245 887 CURVE SMOOTH",
"245 901 OFFCURVE",
"258 912 OFFCURVE",
"272 912 CURVE SMOOTH",
"280 912 OFFCURVE",
"287 909 OFFCURVE",
"293 901 CURVE SMOOTH"
);
}
);
userData = {
com.fontlab.hintData = {
hhints = (
{
position = 0;
width = 31;
},
{
position = 661;
width = 20;
}
);
vhints = (
{
position = 67;
width = 37;
},
{
position = 578;
width = 40;
}
);
};
};
width = 673;
}
);
unicode = 00D9;
},
{
glyphname = Uhungarumlaut;
layers = (
{
layerId = master01;
paths = (
{
closed = 1;
nodes = (
"615.851 594.691 OFFCURVE",
"617.916 536.168 OFFCURVE",
"617.916 477.233 CURVE SMOOTH",
"617.916 408.815 OFFCURVE",
"615.133 339.84 OFFCURVE",
"606 270 CURVE SMOOTH",
"585 110 OFFCURVE",
"502 0 OFFCURVE",
"329 0 CURVE SMOOTH",
"171 0 OFFCURVE",
"78 125 OFFCURVE",
"69 367 CURVE SMOOTH",
"67.188 415.48 OFFCURVE",
"66.607 461.701 OFFCURVE",
"66.607 505.665 CURVE SMOOTH",
"66.607 558.734 OFFCURVE",
"67.453 608.512 OFFCURVE",
"68 655 CURVE SMOOTH",
"68 671 OFFCURVE",
"74 681 OFFCURVE",
"88 681 CURVE SMOOTH",
"103 681 OFFCURVE",
"106 670 OFFCURVE",
"106 654 CURVE SMOOTH",
"104.735 597.711 OFFCURVE",
"103.47 540.623 OFFCURVE",
"103.47 482.734 CURVE SMOOTH",
"103.47 449.093 OFFCURVE",
"103.897 415.182 OFFCURVE",
"105 381 CURVE SMOOTH",
"110 236 OFFCURVE",
"145 31 OFFCURVE",
"330 31 CURVE SMOOTH",
"490 31 OFFCURVE",
"554 139 OFFCURVE",
"570 277 CURVE SMOOTH",
"576.76 339.4 OFFCURVE",
"578.382 402.07 OFFCURVE",
"578.382 466.558 CURVE SMOOTH",
"578.382 526.085 OFFCURVE",
"577 587.16 OFFCURVE",
"577 651 CURVE SMOOTH",
"577 667 OFFCURVE",
"578 681 OFFCURVE",
"596 681 CURVE SMOOTH",
"611 681 OFFCURVE",
"614 668 OFFCURVE",
"614 653 CURVE SMOOTH"
);
},
{
closed = 1;
nodes = (
"236 748 LINE SMOOTH",
"230 744 OFFCURVE",
"224 741 OFFCURVE",
"220 741 CURVE SMOOTH",
"211 741 OFFCURVE",
"203 749 OFFCURVE",
"203 758 CURVE SMOOTH",
"203 761 OFFCURVE",
"203 766 OFFCURVE",
"211 773 CURVE SMOOTH",
"337 875 LINE SMOOTH",
"344 881 OFFCURVE",
"353 889 OFFCURVE",
"361 889 CURVE SMOOTH",
"374 889 OFFCURVE",
"386 876 OFFCURVE",
"386 862 CURVE SMOOTH",
"386 856 OFFCURVE",
"386 851 OFFCURVE",
"379 846 CURVE SMOOTH"
);
},
{
closed = 1;
nodes = (
"402 748 LINE SMOOTH",
"397 744 OFFCURVE",
"391 741 OFFCURVE",
"387 741 CURVE SMOOTH",
"377 741 OFFCURVE",
"370 749 OFFCURVE",
"370 758 CURVE SMOOTH",
"370 761 OFFCURVE",
"370 766 OFFCURVE",
"377 772 CURVE SMOOTH",
"503 875 LINE SMOOTH",
"511 881 OFFCURVE",
"520 889 OFFCURVE",
"527 889 CURVE SMOOTH",
"541 889 OFFCURVE",
"552 876 OFFCURVE",
"552 862 CURVE SMOOTH",
"552 856 OFFCURVE",
"551 849 OFFCURVE",
"541 842 CURVE SMOOTH"
);
}
);
userData = {
com.fontlab.hintData = {
hhints = (
{
position = 0;
width = 31;
},
{
position = 661;
width = 20;
}
);
vhints = (
{
position = 67;
width = 37;
},
{
position = 578;
width = 40;
}
);
};
};
width = 673;
}
);
unicode = 0170;
},
{
glyphname = Uring;
layers = (
{
layerId = master01;
paths = (
{
closed = 1;
nodes = (
"615.851 594.691 OFFCURVE",
"617.916 536.168 OFFCURVE",
"617.916 477.233 CURVE SMOOTH",
"617.916 408.815 OFFCURVE",
"615.133 339.84 OFFCURVE",
"606 270 CURVE SMOOTH",
"585 110 OFFCURVE",
"502 0 OFFCURVE",
"329 0 CURVE SMOOTH",
"171 0 OFFCURVE",
"78 125 OFFCURVE",
"69 367 CURVE SMOOTH",
"67.188 415.48 OFFCURVE",
"66.607 461.701 OFFCURVE",
"66.607 505.665 CURVE SMOOTH",
"66.607 558.734 OFFCURVE",
"67.453 608.512 OFFCURVE",
"68 655 CURVE SMOOTH",
"68 671 OFFCURVE",
"74 681 OFFCURVE",
"88 681 CURVE SMOOTH",
"103 681 OFFCURVE",
"106 670 OFFCURVE",
"106 654 CURVE SMOOTH",
"104.735 597.711 OFFCURVE",
"103.47 540.623 OFFCURVE",
"103.47 482.734 CURVE SMOOTH",
"103.47 449.093 OFFCURVE",
"103.897 415.182 OFFCURVE",
"105 381 CURVE SMOOTH",
"110 236 OFFCURVE",
"145 31 OFFCURVE",
"330 31 CURVE SMOOTH",
"490 31 OFFCURVE",
"554 139 OFFCURVE",
"570 277 CURVE SMOOTH",
"576.76 339.4 OFFCURVE",
"578.382 402.07 OFFCURVE",
"578.382 466.558 CURVE SMOOTH",
"578.382 526.085 OFFCURVE",
"577 587.16 OFFCURVE",
"577 651 CURVE SMOOTH",
"577 667 OFFCURVE",
"578 681 OFFCURVE",
"596 681 CURVE SMOOTH",
"611 681 OFFCURVE",
"614 668 OFFCURVE",
"614 653 CURVE SMOOTH"
);
},
{
closed = 1;
nodes = (
"282 743 OFFCURVE",
"234 785 OFFCURVE",
"234 838 CURVE SMOOTH",
"234 902 OFFCURVE",
"299 948 OFFCURVE",
"364 948 CURVE SMOOTH",
"420 948 OFFCURVE",
"470 906 OFFCURVE",
"470 852 CURVE SMOOTH",
"470 787 OFFCURVE",
"405 743 OFFCURVE",
"341 743 CURVE SMOOTH"
);
},
{
closed = 1;
nodes = (
"298 920 OFFCURVE",
"257 873 OFFCURVE",
"257 838 CURVE SMOOTH",
"257 795 OFFCURVE",
"297 770 OFFCURVE",
"350 770 CURVE SMOOTH",
"390 770 OFFCURVE",
"447 801 OFFCURVE",
"447 850 CURVE SMOOTH",
"447 885 OFFCURVE",
"410 920 OFFCURVE",
"360 920 CURVE SMOOTH"
);
}
);
userData = {
com.fontlab.hintData = {
hhints = (
{
position = 0;
width = 31;
},
{
position = 661;
width = 20;
},
{
position = 743;
width = 27;
},
{
position = 920;
width = 28;
}
);
vhints = (
{
position = 67;
width = 37;
},
{
position = 234;
width = 23;
},
{
position = 447;
width = 23;
},
{
position = 578;
width = 40;
}
);
};
};
width = 673;
}
);
unicode = 016E;
},
{
glyphname = V;
layers = (
{
layerId = master01;
paths = (
{
closed = 1;
nodes = (
"241 0 OFFCURVE",
"233 3 OFFCURVE",
"230 12 CURVE SMOOTH",
"15 650 LINE SMOOTH",
"14 654 OFFCURVE",
"13 659 OFFCURVE",
"13 662 CURVE SMOOTH",
"13 672 OFFCURVE",
"20 680 OFFCURVE",
"32 680 CURVE SMOOTH",
"41 680 OFFCURVE",
"47 676 OFFCURVE",
"50 668 CURVE SMOOTH",
"251 74 LINE",
"484 669 LINE SMOOTH",
"487 676 OFFCURVE",
"493 680 OFFCURVE",
"501 680 CURVE SMOOTH",
"511 680 OFFCURVE",
"521 674 OFFCURVE",
"521 664 CURVE SMOOTH",
"521 658 OFFCURVE",
"520 655 OFFCURVE",
"519 652 CURVE SMOOTH",
"266 12 LINE SMOOTH",
"263 4 OFFCURVE",
"257 0 OFFCURVE",
"249 0 CURVE SMOOTH"
);
}
);
userData = {
com.fontlab.hintData = {
hhints = (
{
position = 0;
width = 21;
}
);
vhints = (
{
position = 13;
width = 37;
},
{
position = 484;
width = 37;
}
);
};
};
width = 525;
}
);
unicode = 0056;
},
{
glyphname = W;
layers = (
{
layerId = master01;
paths = (
{
closed = 1;
nodes = (
"224 78 LINE",
"415 669 LINE SMOOTH",
"418 677 OFFCURVE",
"425 681 OFFCURVE",
"433 681 CURVE SMOOTH",
"441 681 OFFCURVE",
"447 676 OFFCURVE",
"449 668 CURVE SMOOTH",
"611 79 LINE",
"823 667 LINE SMOOTH",
"827 677 OFFCURVE",
"833 681 OFFCURVE",
"842 681 CURVE SMOOTH",
"854 681 OFFCURVE",
"860 672 OFFCURVE",
"860 665 CURVE SMOOTH",
"860 660 OFFCURVE",
"859 656 OFFCURVE",
"858 653 CURVE SMOOTH",
"627 11 LINE SMOOTH",
"625 5 OFFCURVE",
"619 0 OFFCURVE",
"610 0 CURVE SMOOTH",
"600 0 OFFCURVE",
"594 4 OFFCURVE",
"592 12 CURVE SMOOTH",
"430 601 LINE",
"241 12 LINE SMOOTH",
"238 3 OFFCURVE",
"232 0 OFFCURVE",
"223 0 CURVE SMOOTH",
"216 0 OFFCURVE",
"209 4 OFFCURVE",
"207 12 CURVE SMOOTH",
"15 644 LINE SMOOTH",
"11 657 OFFCURVE",
"10 661 OFFCURVE",
"10 664 CURVE SMOOTH",
"10 674 OFFCURVE",
"18 681 OFFCURVE",
"28 681 CURVE SMOOTH",
"37 681 OFFCURVE",
"43 676 OFFCURVE",
"45 668 CURVE SMOOTH"
);
}
);
userData = {
com.fontlab.hintData = {
hhints = (
{
position = 0;
width = 21;
},
{
position = 661;
width = 20;
}
);
vhints = (
{
position = 10;
width = 35;
},
{
position = 823;
width = 37;
}
);
};
};
width = 857;
}
);
unicode = 0057;
},
{
glyphname = X;
layers = (
{
layerId = master01;
paths = (
{
closed = 1;
nodes = (
"344 316 LINE",
"85 6 LINE SMOOTH",
"82 2 OFFCURVE",
"76 0 OFFCURVE",
"71 0 CURVE SMOOTH",
"60 0 OFFCURVE",
"52 9 OFFCURVE",
"52 19 CURVE SMOOTH",
"52 23 OFFCURVE",
"54 28 OFFCURVE",
"57 31 CURVE SMOOTH",
"322 346 LINE",
"78 651 LINE SMOOTH",
"76 654 OFFCURVE",
"73 659 OFFCURVE",
"73 664 CURVE SMOOTH",
"73 673 OFFCURVE",
"83 681 OFFCURVE",
"93 681 CURVE SMOOTH",
"98 681 OFFCURVE",
"103 680 OFFCURVE",
"107 675 CURVE SMOOTH",
"345 375 LINE",
"597 675 LINE SMOOTH",
"601 680 OFFCURVE",
"606 681 OFFCURVE",
"611 681 CURVE SMOOTH",
"621 681 OFFCURVE",
"630 673 OFFCURVE",
"630 664 CURVE SMOOTH",
"630 659 OFFCURVE",
"629 655 OFFCURVE",
"625 650 CURVE SMOOTH",
"369 345 LINE",
"620 30 LINE SMOOTH",
"622 27 OFFCURVE",
"623 23 OFFCURVE",
"623 19 CURVE SMOOTH",
"623 8 OFFCURVE",
"615 0 OFFCURVE",
"606 0 CURVE SMOOTH",
"601 0 OFFCURVE",
"596 1 OFFCURVE",
"592 6 CURVE SMOOTH"
);
}
);
userData = {
com.fontlab.hintData = {
hhints = (
{
position = 0;
width = 21;
},
{
position = 661;
width = 20;
}
);
};
};
width = 671;
}
);
unicode = 0058;
},
{
glyphname = Y;
layers = (
{
layerId = master01;
paths = (
{
closed = 1;
nodes = (
"581 681 OFFCURVE",
"590 674 OFFCURVE",
"590 664 CURVE SMOOTH",
"590 660 OFFCURVE",
"589 656 OFFCURVE",
"583 646 CURVE SMOOTH",
"205 9 LINE SMOOTH",
"201 2 OFFCURVE",
"196 0 OFFCURVE",
"191 0 CURVE SMOOTH",
"179 0 OFFCURVE",
"171 9 OFFCURVE",
"171 17 CURVE SMOOTH",
"171 23 OFFCURVE",
"173 27 OFFCURVE",
"176 32 CURVE SMOOTH",
"282 210 LINE",
"26 649 LINE SMOOTH",
"24 653 OFFCURVE",
"21 659 OFFCURVE",
"21 664 CURVE SMOOTH",
"21 675 OFFCURVE",
"31 681 OFFCURVE",
"41 681 CURVE SMOOTH",
"46 681 OFFCURVE",
"52 678 OFFCURVE",
"55 672 CURVE SMOOTH",
"304 246 LINE",
"556 672 LINE SMOOTH",
"559 678 OFFCURVE",
"565 681 OFFCURVE",
"571 681 CURVE SMOOTH"
);
}
);
userData = {
com.fontlab.hintData = {
hhints = (
{
position = 0;
width = 21;
},
{
position = 661;
width = 20;
}
);
};
};
width = 583;
}
);
unicode = 0059;
},
{
glyphname = Yacute;
layers = (
{
layerId = master01;
paths = (
{
closed = 1;
nodes = (
"581 681 OFFCURVE",
"590 674 OFFCURVE",
"590 664 CURVE SMOOTH",
"590 660 OFFCURVE",
"589 656 OFFCURVE",
"583 646 CURVE SMOOTH",
"205 9 LINE SMOOTH",
"201 2 OFFCURVE",
"196 0 OFFCURVE",
"191 0 CURVE SMOOTH",
"179 0 OFFCURVE",
"171 9 OFFCURVE",
"171 17 CURVE SMOOTH",
"171 23 OFFCURVE",
"173 27 OFFCURVE",
"176 32 CURVE SMOOTH",
"282 210 LINE",
"26 649 LINE SMOOTH",
"24 653 OFFCURVE",
"21 659 OFFCURVE",
"21 664 CURVE SMOOTH",
"21 675 OFFCURVE",
"31 681 OFFCURVE",
"41 681 CURVE SMOOTH",
"46 681 OFFCURVE",
"52 678 OFFCURVE",
"55 672 CURVE SMOOTH",
"304 246 LINE",
"556 672 LINE SMOOTH",
"559 678 OFFCURVE",
"565 681 OFFCURVE",
"571 681 CURVE SMOOTH"
);
},
{
closed = 1;
nodes = (
"257 759 LINE SMOOTH",
"250 754 OFFCURVE",
"245 752 OFFCURVE",
"241 752 CURVE SMOOTH",
"232 752 OFFCURVE",
"224 760 OFFCURVE",
"224 769 CURVE SMOOTH",
"224 772 OFFCURVE",
"224 777 OFFCURVE",
"230 782 CURVE SMOOTH",
"358 886 LINE SMOOTH",
"367 893 OFFCURVE",
"374 900 OFFCURVE",
"384 900 CURVE SMOOTH",
"395 900 OFFCURVE",
"408 887 OFFCURVE",
"408 873 CURVE SMOOTH",
"408 866 OFFCURVE",
"407 862 OFFCURVE",
"400 857 CURVE SMOOTH"
);
}
);
userData = {
com.fontlab.hintData = {
hhints = (
{
position = 0;
width = 21;
},
{
position = 661;
width = 20;
}
);
};
};
width = 583;
}
);
unicode = 00DD;
},
{
glyphname = Ydieresis;
layers = (
{
layerId = master01;
paths = (
{
closed = 1;
nodes = (
"260 760 OFFCURVE",
"242 745 OFFCURVE",
"218 745 CURVE SMOOTH",
"198 745 OFFCURVE",
"182 757 OFFCURVE",
"182 775 CURVE SMOOTH",
"182 793 OFFCURVE",
"201 810 OFFCURVE",
"224 810 CURVE SMOOTH",
"243 810 OFFCURVE",
"260 796 OFFCURVE",
"260 780 CURVE SMOOTH"
);
},
{
closed = 1;
nodes = (
"424 760 OFFCURVE",
"406 745 OFFCURVE",
"382 745 CURVE SMOOTH",
"362 745 OFFCURVE",
"346 757 OFFCURVE",
"346 775 CURVE SMOOTH",
"346 793 OFFCURVE",
"364 810 OFFCURVE",
"388 810 CURVE SMOOTH",
"407 810 OFFCURVE",
"424 796 OFFCURVE",
"424 780 CURVE SMOOTH"
);
},
{
closed = 1;
nodes = (
"581 681 OFFCURVE",
"590 674 OFFCURVE",
"590 664 CURVE SMOOTH",
"590 660 OFFCURVE",
"589 656 OFFCURVE",
"583 646 CURVE SMOOTH",
"205 9 LINE SMOOTH",
"201 2 OFFCURVE",
"196 0 OFFCURVE",
"191 0 CURVE SMOOTH",
"179 0 OFFCURVE",
"171 9 OFFCURVE",
"171 17 CURVE SMOOTH",
"171 23 OFFCURVE",
"173 27 OFFCURVE",
"176 32 CURVE SMOOTH",
"282 210 LINE",
"26 649 LINE SMOOTH",
"24 653 OFFCURVE",
"21 659 OFFCURVE",
"21 664 CURVE SMOOTH",
"21 675 OFFCURVE",
"31 681 OFFCURVE",
"41 681 CURVE SMOOTH",
"46 681 OFFCURVE",
"52 678 OFFCURVE",
"55 672 CURVE SMOOTH",
"304 246 LINE",
"556 672 LINE SMOOTH",
"559 678 OFFCURVE",
"565 681 OFFCURVE",
"571 681 CURVE SMOOTH"
);
}
);
userData = {
com.fontlab.hintData = {
hhints = (
{
position = 0;
width = 21;
},
{
position = 661;
width = 20;
},
{
position = 745;
width = 65;
}
);
vhints = (
{
position = 182;
width = 78;
},
{
position = 346;
width = 78;
}
);
};
};
width = 583;
}
);
unicode = 0178;
},
{
glyphname = Z;
layers = (
{
layerId = master01;
paths = (
{
closed = 1;
nodes = (
"550 41 LINE SMOOTH",
"560 41 OFFCURVE",
"569 32 OFFCURVE",
"569 21 CURVE SMOOTH",
"569 9 OFFCURVE",
"560 0 OFFCURVE",
"550 0 CURVE SMOOTH",
"74 0 LINE SMOOTH",
"61 0 OFFCURVE",
"51 8 OFFCURVE",
"50 22 CURVE SMOOTH",
"50 28 OFFCURVE",
"52 35 OFFCURVE",
"56 40 CURVE SMOOTH",
"538 638 LINE",
"87 638 LINE SMOOTH",
"77 638 OFFCURVE",
"67 647 OFFCURVE",
"67 659 CURVE SMOOTH",
"67 671 OFFCURVE",
"77 680 OFFCURVE",
"87 680 CURVE SMOOTH",
"563 680 LINE SMOOTH",
"576 680 OFFCURVE",
"587 670 OFFCURVE",
"587 657 CURVE SMOOTH",
"587 652 OFFCURVE",
"584 645 OFFCURVE",
"581 641 CURVE SMOOTH",
"98 41 LINE"
);
}
);
userData = {
com.fontlab.hintData = {
hhints = (
{
position = 0;
width = 41;
},
{
position = 638;
width = 42;
}
);
};
};
width = 629;
}
);
unicode = 005A;
},
{
glyphname = Zacute;
layers = (
{
layerId = master01;
paths = (
{
closed = 1;
nodes = (
"550 41 LINE SMOOTH",
"560 41 OFFCURVE",
"569 32 OFFCURVE",
"569 21 CURVE SMOOTH",
"569 9 OFFCURVE",
"560 0 OFFCURVE",
"550 0 CURVE SMOOTH",
"74 0 LINE SMOOTH",
"61 0 OFFCURVE",
"51 8 OFFCURVE",
"50 22 CURVE SMOOTH",
"50 28 OFFCURVE",
"52 35 OFFCURVE",
"56 40 CURVE SMOOTH",
"538 638 LINE",
"87 638 LINE SMOOTH",
"77 638 OFFCURVE",
"67 647 OFFCURVE",
"67 659 CURVE SMOOTH",
"67 671 OFFCURVE",
"77 680 OFFCURVE",
"87 680 CURVE SMOOTH",
"563 680 LINE SMOOTH",
"576 680 OFFCURVE",
"587 670 OFFCURVE",
"587 657 CURVE SMOOTH",
"587 652 OFFCURVE",
"584 645 OFFCURVE",
"581 641 CURVE SMOOTH",
"98 41 LINE"
);
},
{
closed = 1;
nodes = (
"289 759 LINE SMOOTH",
"282 754 OFFCURVE",
"277 752 OFFCURVE",
"273 752 CURVE SMOOTH",
"264 752 OFFCURVE",
"256 760 OFFCURVE",
"256 769 CURVE SMOOTH",
"256 772 OFFCURVE",
"256 777 OFFCURVE",
"262 782 CURVE SMOOTH",
"390 886 LINE SMOOTH",
"399 893 OFFCURVE",
"406 900 OFFCURVE",
"416 900 CURVE SMOOTH",
"427 900 OFFCURVE",
"440 887 OFFCURVE",
"440 873 CURVE SMOOTH",
"440 866 OFFCURVE",
"439 862 OFFCURVE",
"432 857 CURVE SMOOTH"
);
}
);
userData = {
com.fontlab.hintData = {
hhints = (
{
position = 0;
width = 41;
},
{
position = 638;
width = 42;
}
);
};
};
width = 629;
}
);
unicode = 0179;
},
{
glyphname = Zcaron;
layers = (
{
layerId = master01;
paths = (
{
closed = 1;
nodes = (
"550 41 LINE SMOOTH",
"560 41 OFFCURVE",
"569 32 OFFCURVE",
"569 21 CURVE SMOOTH",
"569 9 OFFCURVE",
"560 0 OFFCURVE",
"550 0 CURVE SMOOTH",
"74 0 LINE SMOOTH",
"61 0 OFFCURVE",
"51 8 OFFCURVE",
"50 22 CURVE SMOOTH",
"50 28 OFFCURVE",
"52 35 OFFCURVE",
"56 40 CURVE SMOOTH",
"538 638 LINE",
"87 638 LINE SMOOTH",
"77 638 OFFCURVE",
"67 647 OFFCURVE",
"67 659 CURVE SMOOTH",
"67 671 OFFCURVE",
"77 680 OFFCURVE",
"87 680 CURVE SMOOTH",
"563 680 LINE SMOOTH",
"576 680 OFFCURVE",
"587 670 OFFCURVE",
"587 657 CURVE SMOOTH",
"587 652 OFFCURVE",
"584 645 OFFCURVE",
"581 641 CURVE SMOOTH",
"98 41 LINE"
);
},
{
closed = 1;
nodes = (
"307 743 OFFCURVE",
"301 745 OFFCURVE",
"297 749 CURVE SMOOTH",
"185 862 LINE SMOOTH",
"181 866 OFFCURVE",
"179 869 OFFCURVE",
"179 874 CURVE SMOOTH",
"179 883 OFFCURVE",
"187 892 OFFCURVE",
"196 892 CURVE SMOOTH",
"201 892 OFFCURVE",
"205 890 OFFCURVE",
"209 887 CURVE SMOOTH",
"314 792 LINE",
"438 888 LINE SMOOTH",
"441 890 OFFCURVE",
"445 892 OFFCURVE",
"449 892 CURVE SMOOTH",
"459 892 OFFCURVE",
"467 883 OFFCURVE",
"467 874 CURVE SMOOTH",
"467 869 OFFCURVE",
"464 864 OFFCURVE",
"460 861 CURVE SMOOTH",
"325 748 LINE SMOOTH",
"321 745 OFFCURVE",
"316 743 OFFCURVE",
"312 743 CURVE SMOOTH"
);
}
);
userData = {
com.fontlab.hintData = {
hhints = (
{
position = 0;
width = 41;
},
{
position = 638;
width = 42;
}
);
};
};
width = 629;
}
);
unicode = 017D;
},
{
glyphname = Zdotaccent;
layers = (
{
layerId = master01;
paths = (
{
closed = 1;
nodes = (
"373 771 OFFCURVE",
"355 755 OFFCURVE",
"331 755 CURVE SMOOTH",
"312 755 OFFCURVE",
"295 768 OFFCURVE",
"295 785 CURVE SMOOTH",
"295 804 OFFCURVE",
"314 820 OFFCURVE",
"337 820 CURVE SMOOTH",
"356 820 OFFCURVE",
"373 807 OFFCURVE",
"373 790 CURVE SMOOTH"
);
},
{
closed = 1;
nodes = (
"550 41 LINE SMOOTH",
"560 41 OFFCURVE",
"569 32 OFFCURVE",
"569 21 CURVE SMOOTH",
"569 9 OFFCURVE",
"560 0 OFFCURVE",
"550 0 CURVE SMOOTH",
"74 0 LINE SMOOTH",
"61 0 OFFCURVE",
"51 8 OFFCURVE",
"50 22 CURVE SMOOTH",
"50 28 OFFCURVE",
"52 35 OFFCURVE",
"56 40 CURVE SMOOTH",
"538 638 LINE",
"87 638 LINE SMOOTH",
"77 638 OFFCURVE",
"67 647 OFFCURVE",
"67 659 CURVE SMOOTH",
"67 671 OFFCURVE",
"77 680 OFFCURVE",
"87 680 CURVE SMOOTH",
"563 680 LINE SMOOTH",
"576 680 OFFCURVE",
"587 670 OFFCURVE",
"587 657 CURVE SMOOTH",
"587 652 OFFCURVE",
"584 645 OFFCURVE",
"581 641 CURVE SMOOTH",
"98 41 LINE"
);
}
);
userData = {
com.fontlab.hintData = {
hhints = (
{
position = 0;
width = 41;
},
{
position = 638;
width = 42;
},
{
position = 755;
width = 65;
}
);
vhints = (
{
position = 295;
width = 78;
}
);
};
};
width = 629;
}
);
unicode = 017B;
},
{
glyphname = uni0162;
layers = (
{
layerId = master01;
paths = (
{
closed = 1;
nodes = (
"246 -113 LINE",
"237 -105 OFFCURVE",
"232 -94 OFFCURVE",
"232 -85 CURVE SMOOTH",
"232 -65 OFFCURVE",
"247 -49 OFFCURVE",
"263 -49 CURVE SMOOTH",
"276 -49 OFFCURVE",
"286 -61 OFFCURVE",
"286 -72 CURVE SMOOTH",
"286 -90 OFFCURVE",
"283 -97 OFFCURVE",
"268 -135 CURVE SMOOTH",
"252 -175 OFFCURVE",
"241 -204 OFFCURVE",
"230 -204 CURVE SMOOTH",
"223 -204 OFFCURVE",
"217 -199 OFFCURVE",
"217 -194 CURVE SMOOTH",
"217 -191 OFFCURVE",
"217 -189 OFFCURVE",
"219 -184 CURVE SMOOTH"
);
},
{
closed = 1;
nodes = (
"490 681 LINE SMOOTH",
"500 681 OFFCURVE",
"509 673 OFFCURVE",
"509 662 CURVE SMOOTH",
"509 652 OFFCURVE",
"500 644 OFFCURVE",
"490 644 CURVE SMOOTH",
"271 644 LINE",
"271 19 LINE SMOOTH",
"271 8 OFFCURVE",
"263 0 OFFCURVE",
"253 0 CURVE SMOOTH",
"242 0 OFFCURVE",
"234 8 OFFCURVE",
"234 19 CURVE SMOOTH",
"234 644 LINE",
"30 644 LINE SMOOTH",
"20 644 OFFCURVE",
"11 652 OFFCURVE",
"11 662 CURVE SMOOTH",
"11 673 OFFCURVE",
"20 681 OFFCURVE",
"30 681 CURVE SMOOTH"
);
}
);
userData = {
com.fontlab.hintData = {
hhints = (
{
position = -204;
width = 21;
},
{
position = 0;
width = 21;
},
{
position = 644;
width = 37;
}
);
vhints = (
{
position = 217;
width = 51;
},
{
position = 232;
width = 54;
},
{
position = 234;
width = 37;
}
);
};
};
width = 512;
}
);
unicode = 0162;
},
{
glyphname = a;
layers = (
{
layerId = master01;
paths = (
{
closed = 1;
nodes = (
"438 21 LINE SMOOTH",
"438 9 OFFCURVE",
"430 0 OFFCURVE",
"419 0 CURVE SMOOTH",
"407 0 OFFCURVE",
"400 10 OFFCURVE",
"400 23 CURVE SMOOTH",
"400 66 LINE",
"357 39 OFFCURVE",
"293 8 OFFCURVE",
"238 8 CURVE SMOOTH",
"132 8 OFFCURVE",
"52 95 OFFCURVE",
"52 223 CURVE SMOOTH",
"52 327 OFFCURVE",
"117 515 OFFCURVE",
"291 515 CURVE SMOOTH",
"352 515 OFFCURVE",
"413 489 OFFCURVE",
"438 476 CURVE"
);
},
{
closed = 1;
nodes = (
"402 452 LINE",
"380 463 OFFCURVE",
"331 478 OFFCURVE",
"294 478 CURVE SMOOTH",
"144 478 OFFCURVE",
"91 316 OFFCURVE",
"91 225 CURVE SMOOTH",
"91 148 OFFCURVE",
"129 45 OFFCURVE",
"236 45 CURVE SMOOTH",
"301 45 OFFCURVE",
"372 93 OFFCURVE",
"398 110 CURVE"
);
}
);
userData = {
com.fontlab.hintData = {
hhints = (
{
position = 0;
width = 21;
},
{
position = 8;
width = 37;
},
{
position = 478;
width = 37;
}
);
vhints = (
{
position = 52;
width = 39;
},
{
position = 400;
width = 38;
}
);
};
};
width = 495;
}
);
unicode = 0061;
},
{
glyphname = aacute;
layers = (
{
layerId = master01;
paths = (
{
closed = 1;
nodes = (
"438 21 LINE SMOOTH",
"438 9 OFFCURVE",
"430 0 OFFCURVE",
"419 0 CURVE SMOOTH",
"407 0 OFFCURVE",
"400 10 OFFCURVE",
"400 23 CURVE SMOOTH",
"400 66 LINE",
"357 39 OFFCURVE",
"293 8 OFFCURVE",
"238 8 CURVE SMOOTH",
"132 8 OFFCURVE",
"52 95 OFFCURVE",
"52 223 CURVE SMOOTH",
"52 327 OFFCURVE",
"117 515 OFFCURVE",
"291 515 CURVE SMOOTH",
"352 515 OFFCURVE",
"413 489 OFFCURVE",
"438 476 CURVE"
);
},
{
closed = 1;
nodes = (
"402 452 LINE",
"380 463 OFFCURVE",
"331 478 OFFCURVE",
"294 478 CURVE SMOOTH",
"144 478 OFFCURVE",
"91 316 OFFCURVE",
"91 225 CURVE SMOOTH",
"91 148 OFFCURVE",
"129 45 OFFCURVE",
"236 45 CURVE SMOOTH",
"301 45 OFFCURVE",
"372 93 OFFCURVE",
"398 110 CURVE"
);
},
{
closed = 1;
nodes = (
"273 594 LINE SMOOTH",
"266 589 OFFCURVE",
"261 587 OFFCURVE",
"257 587 CURVE SMOOTH",
"248 587 OFFCURVE",
"240 595 OFFCURVE",
"240 604 CURVE SMOOTH",
"240 607 OFFCURVE",
"240 612 OFFCURVE",
"246 617 CURVE SMOOTH",
"374 721 LINE SMOOTH",
"383 728 OFFCURVE",
"390 735 OFFCURVE",
"400 735 CURVE SMOOTH",
"411 735 OFFCURVE",
"424 722 OFFCURVE",
"424 708 CURVE SMOOTH",
"424 701 OFFCURVE",
"423 697 OFFCURVE",
"416 692 CURVE SMOOTH"
);
}
);
userData = {
com.fontlab.hintData = {
hhints = (
{
position = 0;
width = 21;
},
{
position = 8;
width = 37;
},
{
position = 478;
width = 37;
}
);
vhints = (
{
position = 52;
width = 39;
},
{
position = 400;
width = 38;
}
);
};
};
width = 495;
}
);
unicode = 00E1;
},
{
glyphname = abreve;
layers = (
{
layerId = master01;
paths = (
{
closed = 1;
nodes = (
"438 21 LINE SMOOTH",
"438 9 OFFCURVE",
"430 0 OFFCURVE",
"419 0 CURVE SMOOTH",
"407 0 OFFCURVE",
"400 10 OFFCURVE",
"400 23 CURVE SMOOTH",
"400 66 LINE",
"357 39 OFFCURVE",
"293 8 OFFCURVE",
"238 8 CURVE SMOOTH",
"132 8 OFFCURVE",
"52 95 OFFCURVE",
"52 223 CURVE SMOOTH",
"52 327 OFFCURVE",
"117 515 OFFCURVE",
"291 515 CURVE SMOOTH",
"352 515 OFFCURVE",
"413 489 OFFCURVE",
"438 476 CURVE"
);
},
{
closed = 1;
nodes = (
"402 452 LINE",
"380 463 OFFCURVE",
"331 478 OFFCURVE",
"294 478 CURVE SMOOTH",
"144 478 OFFCURVE",
"91 316 OFFCURVE",
"91 225 CURVE SMOOTH",
"91 148 OFFCURVE",
"129 45 OFFCURVE",
"236 45 CURVE SMOOTH",
"301 45 OFFCURVE",
"372 93 OFFCURVE",
"398 110 CURVE"
);
},
{
closed = 1;
nodes = (
"186 627 OFFCURVE",
"248 610 OFFCURVE",
"290 610 CURVE SMOOTH",
"346 610 OFFCURVE",
"386 636 OFFCURVE",
"409 688 CURVE SMOOTH",
"413 696 OFFCURVE",
"417 703 OFFCURVE",
"424 703 CURVE SMOOTH",
"428 703 OFFCURVE",
"431 700 OFFCURVE",
"431 696 CURVE SMOOTH",
"431 653 OFFCURVE",
"380 582 OFFCURVE",
"287 582 CURVE SMOOTH",
"172 582 OFFCURVE",
"133 669 OFFCURVE",
"133 689 CURVE SMOOTH",
"133 693 OFFCURVE",
"134 698 OFFCURVE",
"141 698 CURVE SMOOTH",
"147 698 OFFCURVE",
"152 690 OFFCURVE",
"155 685 CURVE SMOOTH"
);
}
);
userData = {
com.fontlab.hintData = {
hhints = (
{
position = 0;
width = 21;
},
{
position = 8;
width = 37;
},
{
position = 478;
width = 37;
},
{
position = 582;
width = 28;
}
);
vhints = (
{
position = 52;
width = 39;
},
{
position = 400;
width = 38;
}
);
};
};
width = 495;
}
);
unicode = 0103;
},
{
glyphname = acircumflex;
layers = (
{
layerId = master01;
paths = (
{
closed = 1;
nodes = (
"315 748 OFFCURVE",
"321 746 OFFCURVE",
"325 742 CURVE SMOOTH",
"437 629 LINE SMOOTH",
"441 625 OFFCURVE",
"443 622 OFFCURVE",
"443 617 CURVE SMOOTH",
"443 608 OFFCURVE",
"435 599 OFFCURVE",
"426 599 CURVE SMOOTH",
"421 599 OFFCURVE",
"417 601 OFFCURVE",
"413 604 CURVE SMOOTH",
"308 699 LINE",
"184 603 LINE SMOOTH",
"181 601 OFFCURVE",
"177 599 OFFCURVE",
"173 599 CURVE SMOOTH",
"163 599 OFFCURVE",
"155 608 OFFCURVE",
"155 617 CURVE SMOOTH",
"155 622 OFFCURVE",
"158 627 OFFCURVE",
"162 630 CURVE SMOOTH",
"297 743 LINE SMOOTH",
"301 746 OFFCURVE",
"306 748 OFFCURVE",
"310 748 CURVE SMOOTH"
);
},
{
closed = 1;
nodes = (
"438 21 LINE SMOOTH",
"438 9 OFFCURVE",
"430 0 OFFCURVE",
"419 0 CURVE SMOOTH",
"407 0 OFFCURVE",
"400 10 OFFCURVE",
"400 23 CURVE SMOOTH",
"400 66 LINE",
"357 39 OFFCURVE",
"293 8 OFFCURVE",
"238 8 CURVE SMOOTH",
"132 8 OFFCURVE",
"52 95 OFFCURVE",
"52 223 CURVE SMOOTH",
"52 327 OFFCURVE",
"117 515 OFFCURVE",
"291 515 CURVE SMOOTH",
"352 515 OFFCURVE",
"413 489 OFFCURVE",
"438 476 CURVE"
);
},
{
closed = 1;
nodes = (
"402 452 LINE",
"380 463 OFFCURVE",
"331 478 OFFCURVE",
"294 478 CURVE SMOOTH",
"144 478 OFFCURVE",
"91 316 OFFCURVE",
"91 225 CURVE SMOOTH",
"91 148 OFFCURVE",
"129 45 OFFCURVE",
"236 45 CURVE SMOOTH",
"301 45 OFFCURVE",
"372 93 OFFCURVE",
"398 110 CURVE"
);
}
);
userData = {
com.fontlab.hintData = {
hhints = (
{
position = 0;
width = 21;
},
{
position = 8;
width = 37;
},
{
position = 478;
width = 37;
}
);
vhints = (
{
position = 52;
width = 39;
},
{
position = 400;
width = 38;
}
);
};
};
width = 495;
}
);
unicode = 00E2;
},
{
glyphname = adieresis;
layers = (
{
layerId = master01;
paths = (
{
closed = 1;
nodes = (
"243 616 OFFCURVE",
"224 600 OFFCURVE",
"200 600 CURVE SMOOTH",
"181 600 OFFCURVE",
"164 613 OFFCURVE",
"164 630 CURVE SMOOTH",
"164 649 OFFCURVE",
"183 666 OFFCURVE",
"207 666 CURVE SMOOTH",
"225 666 OFFCURVE",
"243 652 OFFCURVE",
"243 636 CURVE SMOOTH"
);
},
{
closed = 1;
nodes = (
"409 616 OFFCURVE",
"390 600 OFFCURVE",
"366 600 CURVE SMOOTH",
"346 600 OFFCURVE",
"330 613 OFFCURVE",
"330 630 CURVE SMOOTH",
"330 649 OFFCURVE",
"348 666 OFFCURVE",
"372 666 CURVE SMOOTH",
"391 666 OFFCURVE",
"409 652 OFFCURVE",
"409 636 CURVE SMOOTH"
);
},
{
closed = 1;
nodes = (
"438 21 LINE SMOOTH",
"438 9 OFFCURVE",
"430 0 OFFCURVE",
"419 0 CURVE SMOOTH",
"407 0 OFFCURVE",
"400 10 OFFCURVE",
"400 23 CURVE SMOOTH",
"400 66 LINE",
"357 39 OFFCURVE",
"293 8 OFFCURVE",
"238 8 CURVE SMOOTH",
"132 8 OFFCURVE",
"52 95 OFFCURVE",
"52 223 CURVE SMOOTH",
"52 327 OFFCURVE",
"117 515 OFFCURVE",
"291 515 CURVE SMOOTH",
"352 515 OFFCURVE",
"413 489 OFFCURVE",
"438 476 CURVE"
);
},
{
closed = 1;
nodes = (
"402 452 LINE",
"380 463 OFFCURVE",
"331 478 OFFCURVE",
"294 478 CURVE SMOOTH",
"144 478 OFFCURVE",
"91 316 OFFCURVE",
"91 225 CURVE SMOOTH",
"91 148 OFFCURVE",
"129 45 OFFCURVE",
"236 45 CURVE SMOOTH",
"301 45 OFFCURVE",
"372 93 OFFCURVE",
"398 110 CURVE"
);
}
);
userData = {
com.fontlab.hintData = {
hhints = (
{
position = 0;
width = 21;
},
{
position = 8;
width = 37;
},
{
position = 478;
width = 37;
},
{
position = 600;
width = 66;
}
);
vhints = (
{
position = 52;
width = 39;
},
{
position = 164;
width = 79;
},
{
position = 330;
width = 79;
},
{
position = 400;
width = 38;
}
);
};
};
width = 495;
}
);
unicode = 00E4;
},
{
glyphname = agrave;
layers = (
{
layerId = master01;
paths = (
{
closed = 1;
nodes = (
"438 21 LINE SMOOTH",
"438 9 OFFCURVE",
"430 0 OFFCURVE",
"419 0 CURVE SMOOTH",
"407 0 OFFCURVE",
"400 10 OFFCURVE",
"400 23 CURVE SMOOTH",
"400 66 LINE",
"357 39 OFFCURVE",
"293 8 OFFCURVE",
"238 8 CURVE SMOOTH",
"132 8 OFFCURVE",
"52 95 OFFCURVE",
"52 223 CURVE SMOOTH",
"52 327 OFFCURVE",
"117 515 OFFCURVE",
"291 515 CURVE SMOOTH",
"352 515 OFFCURVE",
"413 489 OFFCURVE",
"438 476 CURVE"
);
},
{
closed = 1;
nodes = (
"402 452 LINE",
"380 463 OFFCURVE",
"331 478 OFFCURVE",
"294 478 CURVE SMOOTH",
"144 478 OFFCURVE",
"91 316 OFFCURVE",
"91 225 CURVE SMOOTH",
"91 148 OFFCURVE",
"129 45 OFFCURVE",
"236 45 CURVE SMOOTH",
"301 45 OFFCURVE",
"372 93 OFFCURVE",
"398 110 CURVE"
);
},
{
closed = 1;
nodes = (
"365 611 LINE SMOOTH",
"369 606 OFFCURVE",
"371 602 OFFCURVE",
"371 598 CURVE SMOOTH",
"371 588 OFFCURVE",
"361 582 OFFCURVE",
"352 582 CURVE SMOOTH",
"348 582 OFFCURVE",
"343 584 OFFCURVE",
"339 588 CURVE SMOOTH",
"216 714 LINE SMOOTH",
"211 720 OFFCURVE",
"208 726 OFFCURVE",
"208 733 CURVE SMOOTH",
"208 747 OFFCURVE",
"221 758 OFFCURVE",
"235 758 CURVE SMOOTH",
"243 758 OFFCURVE",
"250 755 OFFCURVE",
"256 747 CURVE SMOOTH"
);
}
);
userData = {
com.fontlab.hintData = {
hhints = (
{
position = 0;
width = 21;
},
{
position = 8;
width = 37;
},
{
position = 478;
width = 37;
}
);
vhints = (
{
position = 52;
width = 39;
},
{
position = 400;
width = 38;
}
);
};
};
width = 495;
}
);
unicode = 00E0;
},
{
glyphname = aogonek;
layers = (
{
layerId = master01;
paths = (
{
closed = 1;
nodes = (
"400 66 LINE",
"357 39 OFFCURVE",
"293 8 OFFCURVE",
"238 8 CURVE SMOOTH",
"132 8 OFFCURVE",
"52 95 OFFCURVE",
"52 223 CURVE SMOOTH",
"52 327 OFFCURVE",
"117 515 OFFCURVE",
"291 515 CURVE SMOOTH",
"352 515 OFFCURVE",
"413 489 OFFCURVE",
"438 476 CURVE",
"438 21 LINE SMOOTH",
"438 5 OFFCURVE",
"422 -3 OFFCURVE",
"410 -12 CURVE SMOOTH",
"382 -33 OFFCURVE",
"344 -61 OFFCURVE",
"344 -110 CURVE SMOOTH",
"344 -149 OFFCURVE",
"374 -174 OFFCURVE",
"412 -174 CURVE SMOOTH",
"435 -174 OFFCURVE",
"458 -166 OFFCURVE",
"480 -150 CURVE SMOOTH",
"483 -148 OFFCURVE",
"486 -147 OFFCURVE",
"489 -147 CURVE SMOOTH",
"496 -147 OFFCURVE",
"504 -154 OFFCURVE",
"504 -162 CURVE SMOOTH",
"504 -186 OFFCURVE",
"445 -206 OFFCURVE",
"411 -206 CURVE SMOOTH",
"354 -206 OFFCURVE",
"313 -164 OFFCURVE",
"313 -109 CURVE SMOOTH",
"313 -53 OFFCURVE",
"356 -8 OFFCURVE",
"400 19 CURVE"
);
},
{
closed = 1;
nodes = (
"402 452 LINE",
"380 463 OFFCURVE",
"331 478 OFFCURVE",
"294 478 CURVE SMOOTH",
"144 478 OFFCURVE",
"91 316 OFFCURVE",
"91 225 CURVE SMOOTH",
"91 148 OFFCURVE",
"129 45 OFFCURVE",
"236 45 CURVE SMOOTH",
"301 45 OFFCURVE",
"372 93 OFFCURVE",
"398 110 CURVE"
);
}
);
userData = {
com.fontlab.hintData = {
hhints = (
{
position = -206;
width = 32;
},
{
position = 8;
width = 37;
},
{
position = 478;
width = 37;
}
);
vhints = (
{
position = 52;
width = 39;
},
{
position = 313;
width = 31;
},
{
position = 400;
width = 38;
}
);
};
};
width = 495;
}
);
unicode = 0105;
},
{
glyphname = aring;
layers = (
{
layerId = master01;
paths = (
{
closed = 1;
nodes = (
"235 587 OFFCURVE",
"186 629 OFFCURVE",
"186 683 CURVE SMOOTH",
"186 747 OFFCURVE",
"251 794 OFFCURVE",
"317 794 CURVE SMOOTH",
"374 794 OFFCURVE",
"424 751 OFFCURVE",
"424 697 CURVE SMOOTH",
"424 631 OFFCURVE",
"359 587 OFFCURVE",
"294 587 CURVE SMOOTH"
);
},
{
closed = 1;
nodes = (
"250 766 OFFCURVE",
"209 718 OFFCURVE",
"209 683 CURVE SMOOTH",
"209 640 OFFCURVE",
"249 614 OFFCURVE",
"303 614 CURVE SMOOTH",
"344 614 OFFCURVE",
"401 645 OFFCURVE",
"401 695 CURVE SMOOTH",
"401 730 OFFCURVE",
"364 766 OFFCURVE",
"313 766 CURVE SMOOTH"
);
},
{
closed = 1;
nodes = (
"438 21 LINE SMOOTH",
"438 9 OFFCURVE",
"430 0 OFFCURVE",
"419 0 CURVE SMOOTH",
"407 0 OFFCURVE",
"400 10 OFFCURVE",
"400 23 CURVE SMOOTH",
"400 66 LINE",
"357 39 OFFCURVE",
"293 8 OFFCURVE",
"238 8 CURVE SMOOTH",
"132 8 OFFCURVE",
"52 95 OFFCURVE",
"52 223 CURVE SMOOTH",
"52 327 OFFCURVE",
"117 515 OFFCURVE",
"291 515 CURVE SMOOTH",
"352 515 OFFCURVE",
"413 489 OFFCURVE",
"438 476 CURVE"
);
},
{
closed = 1;
nodes = (
"402 452 LINE",
"380 463 OFFCURVE",
"331 478 OFFCURVE",
"294 478 CURVE SMOOTH",
"144 478 OFFCURVE",
"91 316 OFFCURVE",
"91 225 CURVE SMOOTH",
"91 148 OFFCURVE",
"129 45 OFFCURVE",
"236 45 CURVE SMOOTH",
"301 45 OFFCURVE",
"372 93 OFFCURVE",
"398 110 CURVE"
);
}
);
userData = {
com.fontlab.hintData = {
hhints = (
{
position = 0;
width = 21;
},
{
position = 8;
width = 37;
},
{
position = 478;
width = 37;
},
{
position = 587;
width = 27;
},
{
position = 766;
width = 28;
}
);
vhints = (
{
position = 52;
width = 39;
},
{
position = 186;
width = 23;
},
{
position = 400;
width = 38;
},
{
position = 401;
width = 23;
}
);
};
};
width = 495;
}
);
unicode = 00E5;
},
{
glyphname = atilde;
layers = (
{
layerId = master01;
paths = (
{
closed = 1;
nodes = (
"438 21 LINE SMOOTH",
"438 9 OFFCURVE",
"430 0 OFFCURVE",
"419 0 CURVE SMOOTH",
"407 0 OFFCURVE",
"400 10 OFFCURVE",
"400 23 CURVE SMOOTH",
"400 66 LINE",
"357 39 OFFCURVE",
"293 8 OFFCURVE",
"238 8 CURVE SMOOTH",
"132 8 OFFCURVE",
"52 95 OFFCURVE",
"52 223 CURVE SMOOTH",
"52 327 OFFCURVE",
"117 515 OFFCURVE",
"291 515 CURVE SMOOTH",
"352 515 OFFCURVE",
"413 489 OFFCURVE",
"438 476 CURVE"
);
},
{
closed = 1;
nodes = (
"402 452 LINE",
"380 463 OFFCURVE",
"331 478 OFFCURVE",
"294 478 CURVE SMOOTH",
"144 478 OFFCURVE",
"91 316 OFFCURVE",
"91 225 CURVE SMOOTH",
"91 148 OFFCURVE",
"129 45 OFFCURVE",
"236 45 CURVE SMOOTH",
"301 45 OFFCURVE",
"372 93 OFFCURVE",
"398 110 CURVE"
);
},
{
closed = 1;
nodes = (
"410 696 OFFCURVE",
"415 701 OFFCURVE",
"424 701 CURVE SMOOTH",
"433 701 OFFCURVE",
"438 695 OFFCURVE",
"438 687 CURVE SMOOTH",
"438 649 OFFCURVE",
"389 581 OFFCURVE",
"335 581 CURVE SMOOTH",
"294 581 OFFCURVE",
"273 612 OFFCURVE",
"254 638 CURVE SMOOTH",
"228 675 OFFCURVE",
"217 688 OFFCURVE",
"197 688 CURVE SMOOTH",
"181 688 OFFCURVE",
"141 675 OFFCURVE",
"124 617 CURVE SMOOTH",
"121 608 OFFCURVE",
"116 604 OFFCURVE",
"109 604 CURVE SMOOTH",
"99 604 OFFCURVE",
"96 612 OFFCURVE",
"96 620 CURVE SMOOTH",
"96 662 OFFCURVE",
"150 715 OFFCURVE",
"197 715 CURVE SMOOTH",
"238 715 OFFCURVE",
"259 685 OFFCURVE",
"278 657 CURVE SMOOTH",
"295 632 OFFCURVE",
"316 607 OFFCURVE",
"337 607 CURVE SMOOTH",
"375 607 OFFCURVE",
"396 658 OFFCURVE",
"408 690 CURVE SMOOTH"
);
}
);
userData = {
com.fontlab.hintData = {
hhints = (
{
position = 0;
width = 21;
},
{
position = 8;
width = 37;
},
{
position = 478;
width = 37;
},
{
position = 581;
width = 26;
},
{
position = 688;
width = 27;
}
);
vhints = (
{
position = 52;
width = 39;
},
{
position = 96;
width = 28;
},
{
position = 400;
width = 38;
},
{
position = 408;
width = 30;
}
);
};
};
width = 495;
}
);
unicode = 00E3;
},
{
glyphname = ae;
layers = (
{
layerId = master01;
paths = (
{
closed = 1;
nodes = (
"766 98 OFFCURVE",
"768 100 OFFCURVE",
"773 100 CURVE SMOOTH",
"782 100 OFFCURVE",
"789 93 OFFCURVE",
"789 85 CURVE SMOOTH",
"789 79 OFFCURVE",
"788 77 OFFCURVE",
"784 72 CURVE SMOOTH",
"751 32 OFFCURVE",
"684 0 OFFCURVE",
"624 0 CURVE SMOOTH",
"547 0 OFFCURVE",
"478 34 OFFCURVE",
"421 104 CURVE",
"421 18 LINE SMOOTH",
"421 9 OFFCURVE",
"412 0 OFFCURVE",
"403 0 CURVE SMOOTH",
"392 0 OFFCURVE",
"384 9 OFFCURVE",
"384 18 CURVE SMOOTH",
"384 64 LINE",
"343 38 OFFCURVE",
"281 8 OFFCURVE",
"229 8 CURVE SMOOTH",
"127 8 OFFCURVE",
"49 85 OFFCURVE",
"49 213 CURVE SMOOTH",
"49 379 OFFCURVE",
"154 498 OFFCURVE",
"273 498 CURVE SMOOTH",
"327 498 OFFCURVE",
"393 475 OFFCURVE",
"420 462 CURVE",
"420 374 LINE",
"463 444 OFFCURVE",
"546 482 OFFCURVE",
"606 482 CURVE SMOOTH",
"724 482 OFFCURVE",
"780 400 OFFCURVE",
"780 358 CURVE SMOOTH",
"780 352 OFFCURVE",
"775 345 OFFCURVE",
"763 338 CURVE SMOOTH",
"431 147 LINE",
"475 65 OFFCURVE",
"543 33 OFFCURVE",
"631 33 CURVE SMOOTH",
"680 33 OFFCURVE",
"733 60 OFFCURVE",
"763 95 CURVE SMOOTH"
);
},
{
closed = 1;
nodes = (
"387 438 LINE",
"367 447 OFFCURVE",
"318 464 OFFCURVE",
"281 464 CURVE SMOOTH",
"135 464 OFFCURVE",
"84 304 OFFCURVE",
"84 216 CURVE SMOOTH",
"84 120 OFFCURVE",
"136 43 OFFCURVE",
"225 43 CURVE SMOOTH",
"281 43 OFFCURVE",
"352 81 OFFCURVE",
"382 106 CURVE"
);
},
{
closed = 1;
nodes = (
"499 448 OFFCURVE",
"416 355 OFFCURVE",
"416 228 CURVE SMOOTH",
"416 217 OFFCURVE",
"416 207 OFFCURVE",
"421 179 CURVE",
"748 362 LINE",
"717 424 OFFCURVE",
"678 448 OFFCURVE",
"606 448 CURVE SMOOTH"
);
}
);
userData = {
com.fontlab.hintData = {
hhints = (
{
position = 0;
width = 33;
},
{
position = 8;
width = 35;
},
{
position = 448;
width = 34;
},
{
position = 464;
width = 34;
}
);
vhints = (
{
position = 49;
width = 35;
},
{
position = 384;
width = 37;
}
);
};
};
width = 822;
}
);
unicode = 00E6;
},
{
glyphname = b;
layers = (
{
layerId = master01;
paths = (
{
closed = 1;
nodes = (
"428 491 OFFCURVE",
"473 374 OFFCURVE",
"473 272 CURVE SMOOTH",
"473 126 OFFCURVE",
"410 7 OFFCURVE",
"257 7 CURVE SMOOTH",
"204 7 OFFCURVE",
"143 26 OFFCURVE",
"104 42 CURVE",
"104 17 LINE SMOOTH",
"104 8 OFFCURVE",
"96 0 OFFCURVE",
"86 0 CURVE SMOOTH",
"76 0 OFFCURVE",
"67 7 OFFCURVE",
"67 17 CURVE SMOOTH",
"67 683 LINE SMOOTH",
"67 692 OFFCURVE",
"76 698 OFFCURVE",
"86 698 CURVE SMOOTH",
"96 698 OFFCURVE",
"104 692 OFFCURVE",
"104 683 CURVE SMOOTH",
"104 388 LINE",
"158 451 OFFCURVE",
"233 491 OFFCURVE",
"302 491 CURVE SMOOTH"
);
},
{
closed = 1;
nodes = (
"387 42 OFFCURVE",
"438 133 OFFCURVE",
"438 272 CURVE SMOOTH",
"438 348 OFFCURVE",
"409 453 OFFCURVE",
"306 453 CURVE SMOOTH",
"190 453 OFFCURVE",
"104 383 OFFCURVE",
"104 296 CURVE SMOOTH",
"104 74 LINE",
"125 65 OFFCURVE",
"188 42 OFFCURVE",
"249 42 CURVE SMOOTH"
);
}
);
userData = {
com.fontlab.hintData = {
hhints = (
{
position = 0;
width = 21;
},
{
position = 7;
width = 35;
},
{
position = 453;
width = 38;
}
);
vhints = (
{
position = 67;
width = 37;
},
{
position = 438;
width = 35;
}
);
};
};
width = 514;
}
);
unicode = 0062;
},
{
glyphname = c;
layers = (
{
layerId = master01;
paths = (
{
closed = 1;
nodes = (
"458 103 OFFCURVE",
"454 97 OFFCURVE",
"451 93 CURVE SMOOTH",
"417 43 OFFCURVE",
"351 3 OFFCURVE",
"277 0 CURVE SMOOTH",
"273.518 -0.18 OFFCURVE",
"270.043 -0.269 OFFCURVE",
"266.576 -0.269 CURVE SMOOTH",
"154.555 -0.269 OFFCURVE",
"52 92.782 OFFCURVE",
"52 215 CURVE SMOOTH",
"52 263 OFFCURVE",
"66 308 OFFCURVE",
"76 334 CURVE SMOOTH",
"104 401 OFFCURVE",
"180 500 OFFCURVE",
"273 500 CURVE SMOOTH",
"345 500 OFFCURVE",
"383 474 OFFCURVE",
"421 430 CURVE SMOOTH",
"424 427 OFFCURVE",
"426 422 OFFCURVE",
"426 418 CURVE SMOOTH",
"426 408 OFFCURVE",
"418 400 OFFCURVE",
"409 400 CURVE SMOOTH",
"404 400 OFFCURVE",
"399 402 OFFCURVE",
"396 405 CURVE SMOOTH",
"366 441 OFFCURVE",
"332 467 OFFCURVE",
"275 467 CURVE SMOOTH",
"201 467 OFFCURVE",
"133 386 OFFCURVE",
"108 323 CURVE SMOOTH",
"92 281 OFFCURVE",
"87 246 OFFCURVE",
"87 217 CURVE SMOOTH",
"87 75 OFFCURVE",
"214 33 OFFCURVE",
"263 33 CURVE SMOOTH",
"342 33 OFFCURVE",
"391 71 OFFCURVE",
"421 111 CURVE SMOOTH",
"425 117 OFFCURVE",
"431 124 OFFCURVE",
"440 124 CURVE SMOOTH",
"449 124 OFFCURVE",
"458 117 OFFCURVE",
"458 108 CURVE SMOOTH"
);
}
);
userData = {
com.fontlab.hintData = {
hhints = (
{
position = 0;
width = 33;
},
{
position = 467;
width = 33;
}
);
vhints = (
{
position = 52;
width = 35;
}
);
};
};
width = 499;
}
);
unicode = 0063;
},
{
glyphname = cacute;
layers = (
{
layerId = master01;
paths = (
{
closed = 1;
nodes = (
"458 103 OFFCURVE",
"454 97 OFFCURVE",
"451 93 CURVE SMOOTH",
"417 43 OFFCURVE",
"351 3 OFFCURVE",
"277 0 CURVE SMOOTH",
"273.518 -0.18 OFFCURVE",
"270.043 -0.269 OFFCURVE",
"266.576 -0.269 CURVE SMOOTH",
"154.555 -0.269 OFFCURVE",
"52 92.782 OFFCURVE",
"52 215 CURVE SMOOTH",
"52 263 OFFCURVE",
"66 308 OFFCURVE",
"76 334 CURVE SMOOTH",
"104 401 OFFCURVE",
"180 500 OFFCURVE",
"273 500 CURVE SMOOTH",
"345 500 OFFCURVE",
"383 474 OFFCURVE",
"421 430 CURVE SMOOTH",
"424 427 OFFCURVE",
"426 422 OFFCURVE",
"426 418 CURVE SMOOTH",
"426 408 OFFCURVE",
"418 400 OFFCURVE",
"409 400 CURVE SMOOTH",
"404 400 OFFCURVE",
"399 402 OFFCURVE",
"396 405 CURVE SMOOTH",
"366 441 OFFCURVE",
"332 467 OFFCURVE",
"275 467 CURVE SMOOTH",
"201 467 OFFCURVE",
"133 386 OFFCURVE",
"108 323 CURVE SMOOTH",
"92 281 OFFCURVE",
"87 246 OFFCURVE",
"87 217 CURVE SMOOTH",
"87 75 OFFCURVE",
"214 33 OFFCURVE",
"263 33 CURVE SMOOTH",
"342 33 OFFCURVE",
"391 71 OFFCURVE",
"421 111 CURVE SMOOTH",
"425 117 OFFCURVE",
"431 124 OFFCURVE",
"440 124 CURVE SMOOTH",
"449 124 OFFCURVE",
"458 117 OFFCURVE",
"458 108 CURVE SMOOTH"
);
},
{
closed = 1;
nodes = (
"246 594 LINE SMOOTH",
"239 589 OFFCURVE",
"234 587 OFFCURVE",
"230 587 CURVE SMOOTH",
"221 587 OFFCURVE",
"213 595 OFFCURVE",
"213 604 CURVE SMOOTH",
"213 607 OFFCURVE",
"213 612 OFFCURVE",
"219 617 CURVE SMOOTH",
"347 721 LINE SMOOTH",
"356 728 OFFCURVE",
"363 735 OFFCURVE",
"373 735 CURVE SMOOTH",
"384 735 OFFCURVE",
"397 722 OFFCURVE",
"397 708 CURVE SMOOTH",
"397 701 OFFCURVE",
"396 697 OFFCURVE",
"389 692 CURVE SMOOTH"
);
}
);
userData = {
com.fontlab.hintData = {
hhints = (
{
position = 0;
width = 33;
},
{
position = 467;
width = 33;
}
);
vhints = (
{
position = 52;
width = 35;
}
);
};
};
width = 499;
}
);
unicode = 0107;
},
{
glyphname = ccaron;
layers = (
{
layerId = master01;
paths = (
{
closed = 1;
nodes = (
"267 589 OFFCURVE",
"261 591 OFFCURVE",
"257 595 CURVE SMOOTH",
"145 708 LINE SMOOTH",
"141 712 OFFCURVE",
"139 715 OFFCURVE",
"139 720 CURVE SMOOTH",
"139 729 OFFCURVE",
"147 738 OFFCURVE",
"156 738 CURVE SMOOTH",
"161 738 OFFCURVE",
"165 736 OFFCURVE",
"169 733 CURVE SMOOTH",
"274 638 LINE",
"398 734 LINE SMOOTH",
"401 736 OFFCURVE",
"405 738 OFFCURVE",
"409 738 CURVE SMOOTH",
"419 738 OFFCURVE",
"427 729 OFFCURVE",
"427 720 CURVE SMOOTH",
"427 715 OFFCURVE",
"424 710 OFFCURVE",
"420 707 CURVE SMOOTH",
"285 594 LINE SMOOTH",
"281 591 OFFCURVE",
"276 589 OFFCURVE",
"272 589 CURVE SMOOTH"
);
},
{
closed = 1;
nodes = (
"458 103 OFFCURVE",
"454 97 OFFCURVE",
"451 93 CURVE SMOOTH",
"417 43 OFFCURVE",
"351 3 OFFCURVE",
"277 0 CURVE SMOOTH",
"273.518 -0.18 OFFCURVE",
"270.043 -0.269 OFFCURVE",
"266.576 -0.269 CURVE SMOOTH",
"154.555 -0.269 OFFCURVE",
"52 92.782 OFFCURVE",
"52 215 CURVE SMOOTH",
"52 263 OFFCURVE",
"66 308 OFFCURVE",
"76 334 CURVE SMOOTH",
"104 401 OFFCURVE",
"180 500 OFFCURVE",
"273 500 CURVE SMOOTH",
"345 500 OFFCURVE",
"383 474 OFFCURVE",
"421 430 CURVE SMOOTH",
"424 427 OFFCURVE",
"426 422 OFFCURVE",
"426 418 CURVE SMOOTH",
"426 408 OFFCURVE",
"418 400 OFFCURVE",
"409 400 CURVE SMOOTH",
"404 400 OFFCURVE",
"399 402 OFFCURVE",
"396 405 CURVE SMOOTH",
"366 441 OFFCURVE",
"332 467 OFFCURVE",
"275 467 CURVE SMOOTH",
"201 467 OFFCURVE",
"133 386 OFFCURVE",
"108 323 CURVE SMOOTH",
"92 281 OFFCURVE",
"87 246 OFFCURVE",
"87 217 CURVE SMOOTH",
"87 75 OFFCURVE",
"214 33 OFFCURVE",
"263 33 CURVE SMOOTH",
"342 33 OFFCURVE",
"391 71 OFFCURVE",
"421 111 CURVE SMOOTH",
"425 117 OFFCURVE",
"431 124 OFFCURVE",
"440 124 CURVE SMOOTH",
"449 124 OFFCURVE",
"458 117 OFFCURVE",
"458 108 CURVE SMOOTH"
);
}
);
userData = {
com.fontlab.hintData = {
hhints = (
{
position = 0;
width = 33;
},
{
position = 467;
width = 33;
}
);
vhints = (
{
position = 52;
width = 35;
}
);
};
};
width = 499;
}
);
unicode = 010D;
},
{
glyphname = ccedilla;
layers = (
{
layerId = master01;
paths = (
{
closed = 1;
nodes = (
"246 0 LINE",
"142 17 OFFCURVE",
"52 100 OFFCURVE",
"52 215 CURVE SMOOTH",
"52 263 OFFCURVE",
"66 308 OFFCURVE",
"76 334 CURVE SMOOTH",
"104 401 OFFCURVE",
"180 500 OFFCURVE",
"273 500 CURVE SMOOTH",
"345 500 OFFCURVE",
"383 474 OFFCURVE",
"421 430 CURVE SMOOTH",
"424 427 OFFCURVE",
"426 422 OFFCURVE",
"426 418 CURVE SMOOTH",
"426 408 OFFCURVE",
"418 400 OFFCURVE",
"409 400 CURVE SMOOTH",
"404 400 OFFCURVE",
"399 402 OFFCURVE",
"396 405 CURVE SMOOTH",
"366 441 OFFCURVE",
"332 467 OFFCURVE",
"275 467 CURVE SMOOTH",
"201 467 OFFCURVE",
"133 386 OFFCURVE",
"108 323 CURVE SMOOTH",
"92 281 OFFCURVE",
"87 246 OFFCURVE",
"87 217 CURVE SMOOTH",
"87 75 OFFCURVE",
"214 33 OFFCURVE",
"263 33 CURVE SMOOTH",
"342 33 OFFCURVE",
"391 71 OFFCURVE",
"421 111 CURVE SMOOTH",
"425 117 OFFCURVE",
"431 124 OFFCURVE",
"440 124 CURVE SMOOTH",
"449 124 OFFCURVE",
"458 117 OFFCURVE",
"458 108 CURVE SMOOTH",
"458 103 OFFCURVE",
"454 97 OFFCURVE",
"451 93 CURVE SMOOTH",
"417 43 OFFCURVE",
"351 3 OFFCURVE",
"277 0 CURVE",
"260 0 LINE",
"259 -41 LINE",
"330 -41 OFFCURVE",
"365 -78 OFFCURVE",
"365 -123 CURVE SMOOTH",
"365 -170 OFFCURVE",
"328 -209 OFFCURVE",
"281 -209 CURVE SMOOTH",
"250 -209 OFFCURVE",
"209 -189 OFFCURVE",
"209 -163 CURVE SMOOTH",
"209 -157 OFFCURVE",
"214 -154 OFFCURVE",
"219 -154 CURVE SMOOTH",
"224 -154 OFFCURVE",
"227 -159 OFFCURVE",
"231 -164 CURVE SMOOTH",
"240 -174 OFFCURVE",
"252 -187 OFFCURVE",
"281 -187 CURVE SMOOTH",
"315 -187 OFFCURVE",
"342 -159 OFFCURVE",
"342 -125 CURVE SMOOTH",
"342 -91 OFFCURVE",
"315 -64 OFFCURVE",
"281 -64 CURVE SMOOTH",
"263 -64 OFFCURVE",
"252 -70 OFFCURVE",
"245 -75 CURVE SMOOTH",
"241 -78 OFFCURVE",
"238 -79 OFFCURVE",
"236 -79 CURVE SMOOTH",
"230 -79 OFFCURVE",
"225 -75 OFFCURVE",
"225 -69 CURVE SMOOTH",
"225 -65 OFFCURVE",
"240 -18 OFFCURVE",
"243 -9 CURVE SMOOTH"
);
}
);
userData = {
com.fontlab.hintData = {
hhints = (
{
position = -209;
width = 22;
},
{
position = -64;
width = 23;
},
{
position = 0;
width = 33;
},
{
position = 467;
width = 33;
}
);
vhints = (
{
position = 52;
width = 35;
},
{
position = 225;
width = 34;
},
{
position = 342;
width = 23;
}
);
};
};
width = 499;
}
);
unicode = 00E7;
},
{
glyphname = ccircumflex;
layers = (
{
layerId = master01;
paths = (
{
closed = 1;
nodes = (
"458 103 OFFCURVE",
"454 97 OFFCURVE",
"451 93 CURVE SMOOTH",
"417 43 OFFCURVE",
"351 3 OFFCURVE",
"277 0 CURVE SMOOTH",
"273.518 -0.18 OFFCURVE",
"270.043 -0.269 OFFCURVE",
"266.576 -0.269 CURVE SMOOTH",
"154.555 -0.269 OFFCURVE",
"52 92.782 OFFCURVE",
"52 215 CURVE SMOOTH",
"52 263 OFFCURVE",
"66 308 OFFCURVE",
"76 334 CURVE SMOOTH",
"104 401 OFFCURVE",
"180 500 OFFCURVE",
"273 500 CURVE SMOOTH",
"345 500 OFFCURVE",
"383 474 OFFCURVE",
"421 430 CURVE SMOOTH",
"424 427 OFFCURVE",
"426 422 OFFCURVE",
"426 418 CURVE SMOOTH",
"426 408 OFFCURVE",
"418 400 OFFCURVE",
"409 400 CURVE SMOOTH",
"404 400 OFFCURVE",
"399 402 OFFCURVE",
"396 405 CURVE SMOOTH",
"366 441 OFFCURVE",
"332 467 OFFCURVE",
"275 467 CURVE SMOOTH",
"201 467 OFFCURVE",
"133 386 OFFCURVE",
"108 323 CURVE SMOOTH",
"92 281 OFFCURVE",
"87 246 OFFCURVE",
"87 217 CURVE SMOOTH",
"87 75 OFFCURVE",
"214 33 OFFCURVE",
"263 33 CURVE SMOOTH",
"342 33 OFFCURVE",
"391 71 OFFCURVE",
"421 111 CURVE SMOOTH",
"425 117 OFFCURVE",
"431 124 OFFCURVE",
"440 124 CURVE SMOOTH",
"449 124 OFFCURVE",
"458 117 OFFCURVE",
"458 108 CURVE SMOOTH"
);
},
{
closed = 1;
nodes = (
"295 748 OFFCURVE",
"301 746 OFFCURVE",
"305 742 CURVE SMOOTH",
"417 629 LINE SMOOTH",
"421 625 OFFCURVE",
"423 622 OFFCURVE",
"423 617 CURVE SMOOTH",
"423 608 OFFCURVE",
"415 599 OFFCURVE",
"406 599 CURVE SMOOTH",
"401 599 OFFCURVE",
"397 601 OFFCURVE",
"393 604 CURVE SMOOTH",
"288 699 LINE",
"164 603 LINE SMOOTH",
"161 601 OFFCURVE",
"157 599 OFFCURVE",
"153 599 CURVE SMOOTH",
"143 599 OFFCURVE",
"135 608 OFFCURVE",
"135 617 CURVE SMOOTH",
"135 622 OFFCURVE",
"138 627 OFFCURVE",
"142 630 CURVE SMOOTH",
"277 743 LINE SMOOTH",
"281 746 OFFCURVE",
"286 748 OFFCURVE",
"290 748 CURVE SMOOTH"
);
}
);
userData = {
com.fontlab.hintData = {
hhints = (
{
position = 0;
width = 33;
},
{
position = 467;
width = 33;
}
);
vhints = (
{
position = 52;
width = 35;
}
);
};
};
width = 499;
}
);
unicode = 0109;
},
{
glyphname = d;
layers = (
{
layerId = master01;
paths = (
{
closed = 1;
nodes = (
"448 18 LINE SMOOTH",
"448 7 OFFCURVE",
"439 0 OFFCURVE",
"428 0 CURVE SMOOTH",
"416 0 OFFCURVE",
"410 9 OFFCURVE",
"410 22 CURVE SMOOTH",
"412 96 LINE",
"368 55 OFFCURVE",
"300 4 OFFCURVE",
"222 4 CURVE SMOOTH",
"106 4 OFFCURVE",
"53 116 OFFCURVE",
"53 225 CURVE SMOOTH",
"53 368 OFFCURVE",
"111 498 OFFCURVE",
"266 498 CURVE SMOOTH",
"323 498 OFFCURVE",
"380 478 OFFCURVE",
"420 461 CURVE",
"425 686 LINE SMOOTH",
"425 696 OFFCURVE",
"435 705 OFFCURVE",
"445 705 CURVE SMOOTH",
"456 705 OFFCURVE",
"464 695 OFFCURVE",
"464 685 CURVE SMOOTH"
);
},
{
closed = 1;
nodes = (
"90 148 OFFCURVE",
"118 34 OFFCURVE",
"222 34 CURVE SMOOTH",
"336 34 OFFCURVE",
"413 122 OFFCURVE",
"414 157 CURVE SMOOTH",
"419 419 LINE",
"397 430 OFFCURVE",
"331 463 OFFCURVE",
"268 463 CURVE SMOOTH",
"118 463 OFFCURVE",
"90 323 OFFCURVE",
"90 228 CURVE SMOOTH"
);
}
);
userData = {
com.fontlab.hintData = {
hhints = (
{
position = 0;
width = 21;
},
{
position = 4;
width = 30;
},
{
position = 463;
width = 35;
}
);
vhints = (
{
position = 53;
width = 37;
},
{
position = 412;
width = 36;
},
{
position = 420;
width = 44;
}
);
};
};
width = 520;
}
);
unicode = 0064;
},
{
glyphname = eth;
layers = (
{
layerId = master01;
paths = (
{
closed = 1;
nodes = (
"351 505 OFFCURVE",
"430 381 OFFCURVE",
"430 256 CURVE SMOOTH",
"430 129 OFFCURVE",
"348 1 OFFCURVE",
"214 1 CURVE SMOOTH",
"123 1 OFFCURVE",
"52 71 OFFCURVE",
"52 175 CURVE SMOOTH",
"52 332 OFFCURVE",
"171 428 OFFCURVE",
"345 435 CURVE",
"309 495 OFFCURVE",
"267 545 OFFCURVE",
"232 585 CURVE",
"185 559 OFFCURVE",
"149 535 OFFCURVE",
"131 523 CURVE SMOOTH",
"116 513 OFFCURVE",
"109 509 OFFCURVE",
"104 509 CURVE SMOOTH",
"100 509 OFFCURVE",
"96 513 OFFCURVE",
"96 517 CURVE SMOOTH",
"96 521 OFFCURVE",
"97 524 OFFCURVE",
"107 532 CURVE SMOOTH",
"118 541 OFFCURVE",
"138 553 OFFCURVE",
"163 568 CURVE SMOOTH",
"217 601 LINE",
"208 611 OFFCURVE",
"190 628 OFFCURVE",
"182 634 CURVE SMOOTH",
"169 645 OFFCURVE",
"161 651 OFFCURVE",
"161 658 CURVE SMOOTH",
"161 667 OFFCURVE",
"169 674 OFFCURVE",
"176 674 CURVE SMOOTH",
"181 674 OFFCURVE",
"183 673 OFFCURVE",
"188 670 CURVE SMOOTH",
"190 669 OFFCURVE",
"205 658 OFFCURVE",
"246 616 CURVE",
"282 636 OFFCURVE",
"361 678 OFFCURVE",
"373 678 CURVE SMOOTH",
"378 678 OFFCURVE",
"382 675 OFFCURVE",
"382 668 CURVE SMOOTH",
"382 665 OFFCURVE",
"380 663 OFFCURVE",
"378 662 CURVE SMOOTH",
"343 645 OFFCURVE",
"292 619 OFFCURVE",
"260 601 CURVE"
);
},
{
closed = 1;
nodes = (
"330 33 OFFCURVE",
"397 144 OFFCURVE",
"397 259 CURVE SMOOTH",
"397 305 OFFCURVE",
"382 355 OFFCURVE",
"360 402 CURVE",
"218 402 OFFCURVE",
"85 341 OFFCURVE",
"85 174 CURVE SMOOTH",
"85 88 OFFCURVE",
"140 33 OFFCURVE",
"214 33 CURVE SMOOTH"
);
}
);
userData = {
com.fontlab.hintData = {
hhints = (
{
position = 1;
width = 32;
},
{
position = 402;
width = 33;
},
{
position = 662;
width = 16;
}
);
vhints = (
{
position = 52;
width = 33;
},
{
position = 397;
width = 33;
}
);
};
};
width = 472;
}
);
unicode = 00F0;
},
{
glyphname = dcaron;
layers = (
{
layerId = master01;
paths = (
{
closed = 1;
nodes = (
"550 634 LINE",
"541 642 OFFCURVE",
"536 653 OFFCURVE",
"536 662 CURVE SMOOTH",
"536 682 OFFCURVE",
"551 698 OFFCURVE",
"567 698 CURVE SMOOTH",
"580 698 OFFCURVE",
"590 686 OFFCURVE",
"590 675 CURVE SMOOTH",
"590 657 OFFCURVE",
"587 650 OFFCURVE",
"572 612 CURVE SMOOTH",
"556 572 OFFCURVE",
"545 543 OFFCURVE",
"534 543 CURVE SMOOTH",
"527 543 OFFCURVE",
"521 548 OFFCURVE",
"521 553 CURVE SMOOTH",
"521 556 OFFCURVE",
"521 558 OFFCURVE",
"523 563 CURVE SMOOTH"
);
},
{
closed = 1;
nodes = (
"448 18 LINE SMOOTH",
"448 7 OFFCURVE",
"439 0 OFFCURVE",
"428 0 CURVE SMOOTH",
"416 0 OFFCURVE",
"410 9 OFFCURVE",
"410 22 CURVE SMOOTH",
"412 96 LINE",
"368 55 OFFCURVE",
"300 4 OFFCURVE",
"222 4 CURVE SMOOTH",
"106 4 OFFCURVE",
"53 116 OFFCURVE",
"53 225 CURVE SMOOTH",
"53 368 OFFCURVE",
"111 498 OFFCURVE",
"266 498 CURVE SMOOTH",
"323 498 OFFCURVE",
"380 478 OFFCURVE",
"420 461 CURVE",
"425 686 LINE SMOOTH",
"425 696 OFFCURVE",
"435 705 OFFCURVE",
"445 705 CURVE SMOOTH",
"456 705 OFFCURVE",
"464 695 OFFCURVE",
"464 685 CURVE SMOOTH"
);
},
{
closed = 1;
nodes = (
"90 148 OFFCURVE",
"118 34 OFFCURVE",
"222 34 CURVE SMOOTH",
"336 34 OFFCURVE",
"413 122 OFFCURVE",
"414 157 CURVE SMOOTH",
"419 419 LINE",
"397 430 OFFCURVE",
"331 463 OFFCURVE",
"268 463 CURVE SMOOTH",
"118 463 OFFCURVE",
"90 323 OFFCURVE",
"90 228 CURVE SMOOTH"
);
}
);
userData = {
com.fontlab.hintData = {
hhints = (
{
position = 0;
width = 21;
},
{
position = 4;
width = 30;
},
{
position = 463;
width = 35;
}
);
vhints = (
{
position = 53;
width = 37;
},
{
position = 412;
width = 36;
},
{
position = 420;
width = 44;
},
{
position = 521;
width = 51;
},
{
position = 536;
width = 54;
}
);
};
};
width = 535;
}
);
unicode = 010F;
},
{
glyphname = dcroat;
layers = (
{
layerId = master01;
paths = (
{
closed = 1;
nodes = (
"462 607 LINE",
"540 607 LINE SMOOTH",
"548 607 OFFCURVE",
"556 600 OFFCURVE",
"556 592 CURVE SMOOTH",
"556 582 OFFCURVE",
"548 575 OFFCURVE",
"540 575 CURVE SMOOTH",
"461 575 LINE",
"448 18 LINE SMOOTH",
"448 7 OFFCURVE",
"439 0 OFFCURVE",
"428 0 CURVE SMOOTH",
"416 0 OFFCURVE",
"410 9 OFFCURVE",
"410 22 CURVE SMOOTH",
"412 96 LINE",
"368 55 OFFCURVE",
"300 4 OFFCURVE",
"222 4 CURVE SMOOTH",
"106 4 OFFCURVE",
"53 116 OFFCURVE",
"53 225 CURVE SMOOTH",
"53 368 OFFCURVE",
"111 498 OFFCURVE",
"266 498 CURVE SMOOTH",
"323 498 OFFCURVE",
"380 478 OFFCURVE",
"420 461 CURVE",
"422 575 LINE",
"336 575 LINE SMOOTH",
"326 575 OFFCURVE",
"319 582 OFFCURVE",
"319 592 CURVE SMOOTH",
"319 600 OFFCURVE",
"326 607 OFFCURVE",
"336 607 CURVE SMOOTH",
"423 607 LINE",
"425 686 LINE SMOOTH",
"425 696 OFFCURVE",
"435 705 OFFCURVE",
"445 705 CURVE SMOOTH",
"456 705 OFFCURVE",
"464 695 OFFCURVE",
"464 685 CURVE SMOOTH"
);
},
{
closed = 1;
nodes = (
"90 148 OFFCURVE",
"118 34 OFFCURVE",
"222 34 CURVE SMOOTH",
"336 34 OFFCURVE",
"413 122 OFFCURVE",
"414 157 CURVE SMOOTH",
"419 419 LINE",
"397 430 OFFCURVE",
"331 463 OFFCURVE",
"268 463 CURVE SMOOTH",
"118 463 OFFCURVE",
"90 323 OFFCURVE",
"90 228 CURVE SMOOTH"
);
}
);
userData = {
com.fontlab.hintData = {
hhints = (
{
position = 0;
width = 21;
},
{
position = 4;
width = 30;
},
{
position = 463;
width = 35;
},
{
position = 575;
width = 32;
}
);
vhints = (
{
position = 53;
width = 37;
},
{
position = 412;
width = 36;
},
{
position = 422;
width = 39;
}
);
};
};
width = 547;
}
);
unicode = 0111;
},
{
glyphname = e;
layers = (
{
layerId = master01;
paths = (
{
closed = 1;
nodes = (
"470 79 OFFCURVE",
"468 75 OFFCURVE",
"465 72 CURVE SMOOTH",
"430 32 OFFCURVE",
"363 0 OFFCURVE",
"302 0 CURVE SMOOTH",
"149 0 OFFCURVE",
"53 114 OFFCURVE",
"53 238 CURVE SMOOTH",
"53 376 OFFCURVE",
"141 499 OFFCURVE",
"276 499 CURVE SMOOTH",
"403 499 OFFCURVE",
"461 413 OFFCURVE",
"461 371 CURVE SMOOTH",
"461 365 OFFCURVE",
"455 357 OFFCURVE",
"443 350 CURVE SMOOTH",
"102 155 LINE",
"146 74 OFFCURVE",
"213 33 OFFCURVE",
"301 33 CURVE SMOOTH",
"349 33 OFFCURVE",
"414 60 OFFCURVE",
"443 95 CURVE SMOOTH",
"446 98 OFFCURVE",
"449 100 OFFCURVE",
"453 100 CURVE SMOOTH",
"463 100 OFFCURVE",
"470 93 OFFCURVE",
"470 83 CURVE SMOOTH"
);
},
{
closed = 1;
nodes = (
"164 465 OFFCURVE",
"85 364 OFFCURVE",
"85 237 CURVE SMOOTH",
"85 225 OFFCURVE",
"85 216 OFFCURVE",
"91 188 CURVE",
"427 373 LINE",
"404 432 OFFCURVE",
"358 465 OFFCURVE",
"276 465 CURVE SMOOTH"
);
}
);
userData = {
com.fontlab.hintData = {
hhints = (
{
position = 0;
width = 33;
},
{
position = 465;
width = 34;
}
);
vhints = (
{
position = 53;
width = 32;
}
);
};
};
width = 511;
}
);
unicode = 0065;
},
{
glyphname = eacute;
layers = (
{
layerId = master01;
paths = (
{
closed = 1;
nodes = (
"470 79 OFFCURVE",
"468 75 OFFCURVE",
"465 72 CURVE SMOOTH",
"430 32 OFFCURVE",
"363 0 OFFCURVE",
"302 0 CURVE SMOOTH",
"149 0 OFFCURVE",
"53 114 OFFCURVE",
"53 238 CURVE SMOOTH",
"53 376 OFFCURVE",
"141 499 OFFCURVE",
"276 499 CURVE SMOOTH",
"403 499 OFFCURVE",
"461 413 OFFCURVE",
"461 371 CURVE SMOOTH",
"461 365 OFFCURVE",
"455 357 OFFCURVE",
"443 350 CURVE SMOOTH",
"102 155 LINE",
"146 74 OFFCURVE",
"213 33 OFFCURVE",
"301 33 CURVE SMOOTH",
"349 33 OFFCURVE",
"414 60 OFFCURVE",
"443 95 CURVE SMOOTH",
"446 98 OFFCURVE",
"449 100 OFFCURVE",
"453 100 CURVE SMOOTH",
"463 100 OFFCURVE",
"470 93 OFFCURVE",
"470 83 CURVE SMOOTH"
);
},
{
closed = 1;
nodes = (
"164 465 OFFCURVE",
"85 364 OFFCURVE",
"85 237 CURVE SMOOTH",
"85 225 OFFCURVE",
"85 216 OFFCURVE",
"91 188 CURVE",
"427 373 LINE",
"404 432 OFFCURVE",
"358 465 OFFCURVE",
"276 465 CURVE SMOOTH"
);
},
{
closed = 1;
nodes = (
"248 594 LINE SMOOTH",
"241 589 OFFCURVE",
"236 587 OFFCURVE",
"232 587 CURVE SMOOTH",
"223 587 OFFCURVE",
"215 595 OFFCURVE",
"215 604 CURVE SMOOTH",
"215 607 OFFCURVE",
"215 612 OFFCURVE",
"221 617 CURVE SMOOTH",
"349 721 LINE SMOOTH",
"358 728 OFFCURVE",
"365 735 OFFCURVE",
"375 735 CURVE SMOOTH",
"386 735 OFFCURVE",
"399 722 OFFCURVE",
"399 708 CURVE SMOOTH",
"399 701 OFFCURVE",
"398 697 OFFCURVE",
"391 692 CURVE SMOOTH"
);
}
);
userData = {
com.fontlab.hintData = {
hhints = (
{
position = 0;
width = 33;
},
{
position = 465;
width = 34;
}
);
vhints = (
{
position = 53;
width = 32;
}
);
};
};
width = 511;
}
);
unicode = 00E9;
},
{
glyphname = ecaron;
layers = (
{
layerId = master01;
paths = (
{
closed = 1;
nodes = (
"470 79 OFFCURVE",
"468 75 OFFCURVE",
"465 72 CURVE SMOOTH",
"430 32 OFFCURVE",
"363 0 OFFCURVE",
"302 0 CURVE SMOOTH",
"149 0 OFFCURVE",
"53 114 OFFCURVE",
"53 238 CURVE SMOOTH",
"53 376 OFFCURVE",
"141 499 OFFCURVE",
"276 499 CURVE SMOOTH",
"403 499 OFFCURVE",
"461 413 OFFCURVE",
"461 371 CURVE SMOOTH",
"461 365 OFFCURVE",
"455 357 OFFCURVE",
"443 350 CURVE SMOOTH",
"102 155 LINE",
"146 74 OFFCURVE",
"213 33 OFFCURVE",
"301 33 CURVE SMOOTH",
"349 33 OFFCURVE",
"414 60 OFFCURVE",
"443 95 CURVE SMOOTH",
"446 98 OFFCURVE",
"449 100 OFFCURVE",
"453 100 CURVE SMOOTH",
"463 100 OFFCURVE",
"470 93 OFFCURVE",
"470 83 CURVE SMOOTH"
);
},
{
closed = 1;
nodes = (
"164 465 OFFCURVE",
"85 364 OFFCURVE",
"85 237 CURVE SMOOTH",
"85 225 OFFCURVE",
"85 216 OFFCURVE",
"91 188 CURVE",
"427 373 LINE",
"404 432 OFFCURVE",
"358 465 OFFCURVE",
"276 465 CURVE SMOOTH"
);
},
{
closed = 1;
nodes = (
"268 589 OFFCURVE",
"262 591 OFFCURVE",
"258 595 CURVE SMOOTH",
"146 708 LINE SMOOTH",
"142 712 OFFCURVE",
"140 715 OFFCURVE",
"140 720 CURVE SMOOTH",
"140 729 OFFCURVE",
"148 738 OFFCURVE",
"157 738 CURVE SMOOTH",
"162 738 OFFCURVE",
"166 736 OFFCURVE",
"170 733 CURVE SMOOTH",
"275 638 LINE",
"399 734 LINE SMOOTH",
"402 736 OFFCURVE",
"406 738 OFFCURVE",
"410 738 CURVE SMOOTH",
"420 738 OFFCURVE",
"428 729 OFFCURVE",
"428 720 CURVE SMOOTH",
"428 715 OFFCURVE",
"425 710 OFFCURVE",
"421 707 CURVE SMOOTH",
"286 594 LINE SMOOTH",
"282 591 OFFCURVE",
"277 589 OFFCURVE",
"273 589 CURVE SMOOTH"
);
}
);
userData = {
com.fontlab.hintData = {
hhints = (
{
position = 0;
width = 33;
},
{
position = 465;
width = 34;
}
);
vhints = (
{
position = 53;
width = 32;
}
);
};
};
width = 511;
}
);
unicode = 011B;
},
{
glyphname = ecircumflex;
layers = (
{
layerId = master01;
paths = (
{
closed = 1;
nodes = (
"470 79 OFFCURVE",
"468 75 OFFCURVE",
"465 72 CURVE SMOOTH",
"430 32 OFFCURVE",
"363 0 OFFCURVE",
"302 0 CURVE SMOOTH",
"149 0 OFFCURVE",
"53 114 OFFCURVE",
"53 238 CURVE SMOOTH",
"53 376 OFFCURVE",
"141 499 OFFCURVE",
"276 499 CURVE SMOOTH",
"403 499 OFFCURVE",
"461 413 OFFCURVE",
"461 371 CURVE SMOOTH",
"461 365 OFFCURVE",
"455 357 OFFCURVE",
"443 350 CURVE SMOOTH",
"102 155 LINE",
"146 74 OFFCURVE",
"213 33 OFFCURVE",
"301 33 CURVE SMOOTH",
"349 33 OFFCURVE",
"414 60 OFFCURVE",
"443 95 CURVE SMOOTH",
"446 98 OFFCURVE",
"449 100 OFFCURVE",
"453 100 CURVE SMOOTH",
"463 100 OFFCURVE",
"470 93 OFFCURVE",
"470 83 CURVE SMOOTH"
);
},
{
closed = 1;
nodes = (
"164 465 OFFCURVE",
"85 364 OFFCURVE",
"85 237 CURVE SMOOTH",
"85 225 OFFCURVE",
"85 216 OFFCURVE",
"91 188 CURVE",
"427 373 LINE",
"404 432 OFFCURVE",
"358 465 OFFCURVE",
"276 465 CURVE SMOOTH"
);
},
{
closed = 1;
nodes = (
"307 748 OFFCURVE",
"313 746 OFFCURVE",
"317 742 CURVE SMOOTH",
"429 629 LINE SMOOTH",
"433 625 OFFCURVE",
"435 622 OFFCURVE",
"435 617 CURVE SMOOTH",
"435 608 OFFCURVE",
"427 599 OFFCURVE",
"418 599 CURVE SMOOTH",
"413 599 OFFCURVE",
"409 601 OFFCURVE",
"405 604 CURVE SMOOTH",
"300 699 LINE",
"176 603 LINE SMOOTH",
"173 601 OFFCURVE",
"169 599 OFFCURVE",
"165 599 CURVE SMOOTH",
"155 599 OFFCURVE",
"147 608 OFFCURVE",
"147 617 CURVE SMOOTH",
"147 622 OFFCURVE",
"150 627 OFFCURVE",
"154 630 CURVE SMOOTH",
"289 743 LINE SMOOTH",
"293 746 OFFCURVE",
"298 748 OFFCURVE",
"302 748 CURVE SMOOTH"
);
}
);
userData = {
com.fontlab.hintData = {
hhints = (
{
position = 0;
width = 33;
},
{
position = 465;
width = 34;
}
);
vhints = (
{
position = 53;
width = 32;
}
);
};
};
width = 511;
}
);
unicode = 00EA;
},
{
glyphname = edieresis;
layers = (
{
layerId = master01;
paths = (
{
closed = 1;
nodes = (
"470 79 OFFCURVE",
"468 75 OFFCURVE",
"465 72 CURVE SMOOTH",
"430 32 OFFCURVE",
"363 0 OFFCURVE",
"302 0 CURVE SMOOTH",
"149 0 OFFCURVE",
"53 114 OFFCURVE",
"53 238 CURVE SMOOTH",
"53 376 OFFCURVE",
"141 499 OFFCURVE",
"276 499 CURVE SMOOTH",
"403 499 OFFCURVE",
"461 413 OFFCURVE",
"461 371 CURVE SMOOTH",
"461 365 OFFCURVE",
"455 357 OFFCURVE",
"443 350 CURVE SMOOTH",
"102 155 LINE",
"146 74 OFFCURVE",
"213 33 OFFCURVE",
"301 33 CURVE SMOOTH",
"349 33 OFFCURVE",
"414 60 OFFCURVE",
"443 95 CURVE SMOOTH",
"446 98 OFFCURVE",
"449 100 OFFCURVE",
"453 100 CURVE SMOOTH",
"463 100 OFFCURVE",
"470 93 OFFCURVE",
"470 83 CURVE SMOOTH"
);
},
{
closed = 1;
nodes = (
"164 465 OFFCURVE",
"85 364 OFFCURVE",
"85 237 CURVE SMOOTH",
"85 225 OFFCURVE",
"85 216 OFFCURVE",
"91 188 CURVE",
"427 373 LINE",
"404 432 OFFCURVE",
"358 465 OFFCURVE",
"276 465 CURVE SMOOTH"
);
},
{
closed = 1;
nodes = (
"249 616 OFFCURVE",
"230 600 OFFCURVE",
"206 600 CURVE SMOOTH",
"186 600 OFFCURVE",
"170 613 OFFCURVE",
"170 630 CURVE SMOOTH",
"170 649 OFFCURVE",
"189 666 OFFCURVE",
"213 666 CURVE SMOOTH",
"231 666 OFFCURVE",
"249 652 OFFCURVE",
"249 636 CURVE SMOOTH"
);
},
{
closed = 1;
nodes = (
"415 616 OFFCURVE",
"396 600 OFFCURVE",
"372 600 CURVE SMOOTH",
"352 600 OFFCURVE",
"335 613 OFFCURVE",
"335 630 CURVE SMOOTH",
"335 649 OFFCURVE",
"354 666 OFFCURVE",
"378 666 CURVE SMOOTH",
"397 666 OFFCURVE",
"415 652 OFFCURVE",
"415 636 CURVE SMOOTH"
);
}
);
userData = {
com.fontlab.hintData = {
hhints = (
{
position = 0;
width = 33;
},
{
position = 465;
width = 34;
},
{
position = 600;
width = 66;
}
);
vhints = (
{
position = 53;
width = 32;
},
{
position = 170;
width = 79;
},
{
position = 335;
width = 80;
}
);
};
};
width = 511;
}
);
unicode = 00EB;
},
{
glyphname = egrave;
layers = (
{
layerId = master01;
paths = (
{
closed = 1;
nodes = (
"470 79 OFFCURVE",
"468 75 OFFCURVE",
"465 72 CURVE SMOOTH",
"430 32 OFFCURVE",
"363 0 OFFCURVE",
"302 0 CURVE SMOOTH",
"149 0 OFFCURVE",
"53 114 OFFCURVE",
"53 238 CURVE SMOOTH",
"53 376 OFFCURVE",
"141 499 OFFCURVE",
"276 499 CURVE SMOOTH",
"403 499 OFFCURVE",
"461 413 OFFCURVE",
"461 371 CURVE SMOOTH",
"461 365 OFFCURVE",
"455 357 OFFCURVE",
"443 350 CURVE SMOOTH",
"102 155 LINE",
"146 74 OFFCURVE",
"213 33 OFFCURVE",
"301 33 CURVE SMOOTH",
"349 33 OFFCURVE",
"414 60 OFFCURVE",
"443 95 CURVE SMOOTH",
"446 98 OFFCURVE",
"449 100 OFFCURVE",
"453 100 CURVE SMOOTH",
"463 100 OFFCURVE",
"470 93 OFFCURVE",
"470 83 CURVE SMOOTH"
);
},
{
closed = 1;
nodes = (
"164 465 OFFCURVE",
"85 364 OFFCURVE",
"85 237 CURVE SMOOTH",
"85 225 OFFCURVE",
"85 216 OFFCURVE",
"91 188 CURVE",
"427 373 LINE",
"404 432 OFFCURVE",
"358 465 OFFCURVE",
"276 465 CURVE SMOOTH"
);
},
{
closed = 1;
nodes = (
"351 611 LINE SMOOTH",
"355 606 OFFCURVE",
"357 602 OFFCURVE",
"357 598 CURVE SMOOTH",
"357 588 OFFCURVE",
"347 582 OFFCURVE",
"338 582 CURVE SMOOTH",
"334 582 OFFCURVE",
"329 584 OFFCURVE",
"325 588 CURVE SMOOTH",
"202 714 LINE SMOOTH",
"197 720 OFFCURVE",
"194 726 OFFCURVE",
"194 733 CURVE SMOOTH",
"194 747 OFFCURVE",
"207 758 OFFCURVE",
"221 758 CURVE SMOOTH",
"229 758 OFFCURVE",
"236 755 OFFCURVE",
"242 747 CURVE SMOOTH"
);
}
);
userData = {
com.fontlab.hintData = {
hhints = (
{
position = 0;
width = 33;
},
{
position = 465;
width = 34;
}
);
vhints = (
{
position = 53;
width = 32;
}
);
};
};
width = 511;
}
);
unicode = 00E8;
},
{
glyphname = eogonek;
layers = (
{
layerId = master01;
paths = (
{
closed = 1;
nodes = (
"265 -209 OFFCURVE",
"224 -167 OFFCURVE",
"224 -112 CURVE SMOOTH",
"224 -65 OFFCURVE",
"254 -27 OFFCURVE",
"289 0 CURVE",
"143 6 OFFCURVE",
"53 117 OFFCURVE",
"53 238 CURVE SMOOTH",
"53 376 OFFCURVE",
"141 499 OFFCURVE",
"276 499 CURVE SMOOTH",
"403 499 OFFCURVE",
"461 413 OFFCURVE",
"461 371 CURVE SMOOTH",
"461 365 OFFCURVE",
"455 357 OFFCURVE",
"443 350 CURVE SMOOTH",
"102 155 LINE",
"146 74 OFFCURVE",
"213 33 OFFCURVE",
"301 33 CURVE SMOOTH",
"349 33 OFFCURVE",
"414 60 OFFCURVE",
"443 95 CURVE SMOOTH",
"446 98 OFFCURVE",
"449 100 OFFCURVE",
"453 100 CURVE SMOOTH",
"463 100 OFFCURVE",
"470 93 OFFCURVE",
"470 83 CURVE SMOOTH",
"470 79 OFFCURVE",
"468 75 OFFCURVE",
"465 72 CURVE SMOOTH",
"445 50 OFFCURVE",
"411 34 OFFCURVE",
"376 17 CURVE SMOOTH",
"317 -12 OFFCURVE",
"255 -44 OFFCURVE",
"255 -113 CURVE SMOOTH",
"255 -152 OFFCURVE",
"285 -177 OFFCURVE",
"323 -177 CURVE SMOOTH",
"346 -177 OFFCURVE",
"369 -169 OFFCURVE",
"391 -153 CURVE SMOOTH",
"394 -151 OFFCURVE",
"397 -150 OFFCURVE",
"400 -150 CURVE SMOOTH",
"407 -150 OFFCURVE",
"415 -157 OFFCURVE",
"415 -165 CURVE SMOOTH",
"415 -189 OFFCURVE",
"356 -209 OFFCURVE",
"322 -209 CURVE SMOOTH"
);
},
{
closed = 1;
nodes = (
"164 465 OFFCURVE",
"85 364 OFFCURVE",
"85 237 CURVE SMOOTH",
"85 225 OFFCURVE",
"85 216 OFFCURVE",
"91 188 CURVE",
"427 373 LINE",
"404 432 OFFCURVE",
"358 465 OFFCURVE",
"276 465 CURVE SMOOTH"
);
}
);
userData = {
com.fontlab.hintData = {
hhints = (
{
position = -209;
width = 32;
},
{
position = 0;
width = 33;
},
{
position = 465;
width = 34;
}
);
vhints = (
{
position = 53;
width = 32;
},
{
position = 224;
width = 31;
}
);
};
};
width = 511;
}
);
unicode = 0119;
},
{
glyphname = f;
layers = (
{
layerId = master01;
paths = (
{
closed = 1;
nodes = (
"128 501 LINE",
"128 650 OFFCURVE",
"187 699 OFFCURVE",
"327 699 CURVE SMOOTH",
"343 699 OFFCURVE",
"357 696 OFFCURVE",
"357 683 CURVE SMOOTH",
"357 673 OFFCURVE",
"351 665 OFFCURVE",
"339 665 CURVE SMOOTH",
"206 665 OFFCURVE",
"165 646 OFFCURVE",
"165 501 CURVE",
"319 500 LINE SMOOTH",
"327 500 OFFCURVE",
"335 493 OFFCURVE",
"335 485 CURVE SMOOTH",
"335 475 OFFCURVE",
"328 468 OFFCURVE",
"319 468 CURVE SMOOTH",
"165 468 LINE",
"165 17 LINE SMOOTH",
"165 7 OFFCURVE",
"157 0 OFFCURVE",
"146 0 CURVE SMOOTH",
"136 0 OFFCURVE",
"128 7 OFFCURVE",
"128 17 CURVE SMOOTH",
"128 468 LINE",
"39 468 LINE SMOOTH",
"30 468 OFFCURVE",
"22 475 OFFCURVE",
"22 485 CURVE SMOOTH",
"22 494 OFFCURVE",
"30 501 OFFCURVE",
"37 501 CURVE SMOOTH"
);
}
);
userData = {
com.fontlab.hintData = {
hhints = (
{
position = 0;
width = 21;
},
{
position = 468;
width = 33;
},
{
position = 665;
width = 34;
}
);
vhints = (
{
position = 128;
width = 37;
}
);
};
};
width = 361;
}
);
unicode = 0066;
},
{
glyphname = g;
layers = (
{
layerId = master01;
paths = (
{
closed = 1;
nodes = (
"105 -175 OFFCURVE",
"99 -168 OFFCURVE",
"99 -159 CURVE SMOOTH",
"99 -149 OFFCURVE",
"107 -141 OFFCURVE",
"118 -141 CURVE SMOOTH",
"121 -141 OFFCURVE",
"131 -143 OFFCURVE",
"139 -145 CURVE SMOOTH",
"156 -149 OFFCURVE",
"186 -155 OFFCURVE",
"239 -155 CURVE SMOOTH",
"361 -155 OFFCURVE",
"401 -89 OFFCURVE",
"405 14 CURVE SMOOTH",
"408 102 LINE",
"380 51 OFFCURVE",
"313 -1 OFFCURVE",
"249 -1 CURVE SMOOTH",
"132 -1 OFFCURVE",
"53 105 OFFCURVE",
"53 241 CURVE SMOOTH",
"53 374 OFFCURVE",
"155 500 OFFCURVE",
"290 500 CURVE SMOOTH",
"336 500 OFFCURVE",
"384 481 OFFCURVE",
"416 458 CURVE",
"416 494 OFFCURVE",
"418 512 OFFCURVE",
"439 512 CURVE SMOOTH",
"445 512 OFFCURVE",
"454 507 OFFCURVE",
"454 492 CURVE SMOOTH",
"443 9 LINE SMOOTH",
"440 -130 OFFCURVE",
"355 -193 OFFCURVE",
"240 -193 CURVE SMOOTH",
"192 -193 OFFCURVE",
"146 -184 OFFCURVE",
"114 -177 CURVE SMOOTH"
);
},
{
closed = 1;
nodes = (
"412 424 LINE",
"386 447 OFFCURVE",
"337 464 OFFCURVE",
"294 464 CURVE SMOOTH",
"179 464 OFFCURVE",
"85 367 OFFCURVE",
"85 237 CURVE SMOOTH",
"85 157 OFFCURVE",
"128 33 OFFCURVE",
"241 33 CURVE SMOOTH",
"317 33 OFFCURVE",
"412 88 OFFCURVE",
"412 268 CURVE SMOOTH"
);
}
);
userData = {
com.fontlab.hintData = {
hhints = (
{
position = -193;
width = 38;
},
{
position = -177;
width = 36;
},
{
position = -1;
width = 34;
},
{
position = 464;
width = 36;
}
);
vhints = (
{
position = 53;
width = 32;
},
{
position = 405;
width = 38;
},
{
position = 412;
width = 42;
}
);
};
};
width = 511;
}
);
unicode = 0067;
},
{
glyphname = gcircumflex;
layers = (
{
layerId = master01;
paths = (
{
closed = 1;
nodes = (
"105 -175 OFFCURVE",
"99 -168 OFFCURVE",
"99 -159 CURVE SMOOTH",
"99 -149 OFFCURVE",
"107 -141 OFFCURVE",
"118 -141 CURVE SMOOTH",
"121 -141 OFFCURVE",
"131 -143 OFFCURVE",
"139 -145 CURVE SMOOTH",
"156 -149 OFFCURVE",
"186 -155 OFFCURVE",
"239 -155 CURVE SMOOTH",
"361 -155 OFFCURVE",
"401 -89 OFFCURVE",
"405 14 CURVE SMOOTH",
"408 102 LINE",
"380 51 OFFCURVE",
"313 -1 OFFCURVE",
"249 -1 CURVE SMOOTH",
"132 -1 OFFCURVE",
"53 105 OFFCURVE",
"53 241 CURVE SMOOTH",
"53 374 OFFCURVE",
"155 500 OFFCURVE",
"290 500 CURVE SMOOTH",
"336 500 OFFCURVE",
"384 481 OFFCURVE",
"416 458 CURVE",
"416 494 OFFCURVE",
"418 512 OFFCURVE",
"439 512 CURVE SMOOTH",
"445 512 OFFCURVE",
"454 507 OFFCURVE",
"454 492 CURVE SMOOTH",
"443 9 LINE SMOOTH",
"440 -130 OFFCURVE",
"355 -193 OFFCURVE",
"240 -193 CURVE SMOOTH",
"192 -193 OFFCURVE",
"146 -184 OFFCURVE",
"114 -177 CURVE SMOOTH"
);
},
{
closed = 1;
nodes = (
"412 424 LINE",
"386 447 OFFCURVE",
"337 464 OFFCURVE",
"294 464 CURVE SMOOTH",
"179 464 OFFCURVE",
"85 367 OFFCURVE",
"85 237 CURVE SMOOTH",
"85 157 OFFCURVE",
"128 33 OFFCURVE",
"241 33 CURVE SMOOTH",
"317 33 OFFCURVE",
"412 88 OFFCURVE",
"412 268 CURVE SMOOTH"
);
},
{
closed = 1;
nodes = (
"305 748 OFFCURVE",
"311 746 OFFCURVE",
"315 742 CURVE SMOOTH",
"427 629 LINE SMOOTH",
"431 625 OFFCURVE",
"433 622 OFFCURVE",
"433 617 CURVE SMOOTH",
"433 608 OFFCURVE",
"425 599 OFFCURVE",
"416 599 CURVE SMOOTH",
"411 599 OFFCURVE",
"407 601 OFFCURVE",
"403 604 CURVE SMOOTH",
"298 699 LINE",
"174 603 LINE SMOOTH",
"171 601 OFFCURVE",
"167 599 OFFCURVE",
"163 599 CURVE SMOOTH",
"153 599 OFFCURVE",
"145 608 OFFCURVE",
"145 617 CURVE SMOOTH",
"145 622 OFFCURVE",
"148 627 OFFCURVE",
"152 630 CURVE SMOOTH",
"287 743 LINE SMOOTH",
"291 746 OFFCURVE",
"296 748 OFFCURVE",
"300 748 CURVE SMOOTH"
);
}
);
userData = {
com.fontlab.hintData = {
hhints = (
{
position = -193;
width = 38;
},
{
position = -177;
width = 36;
},
{
position = -1;
width = 34;
},
{
position = 464;
width = 36;
}
);
vhints = (
{
position = 53;
width = 32;
},
{
position = 405;
width = 38;
},
{
position = 412;
width = 42;
}
);
};
};
width = 511;
}
);
unicode = 011D;
},
{
glyphname = h;
layers = (
{
layerId = master01;
paths = (
{
closed = 1;
nodes = (
"105 311 LINE",
"142 394 OFFCURVE",
"242 502 OFFCURVE",
"324 502 CURVE SMOOTH",
"419 502 OFFCURVE",
"451 387 OFFCURVE",
"451 158 CURVE SMOOTH",
"451 91 OFFCURVE",
"451 50 OFFCURVE",
"448 19 CURVE SMOOTH",
"447 8 OFFCURVE",
"441 0 OFFCURVE",
"430 0 CURVE SMOOTH",
"422 0 OFFCURVE",
"413 8 OFFCURVE",
"413 18 CURVE SMOOTH",
"413 22 OFFCURVE",
"414 36 OFFCURVE",
"414 45 CURVE SMOOTH",
"415 70 OFFCURVE",
"415 108 OFFCURVE",
"415 150 CURVE SMOOTH",
"415 431 OFFCURVE",
"361 466 OFFCURVE",
"319 466 CURVE SMOOTH",
"225 466 OFFCURVE",
"140 326 OFFCURVE",
"122 288 CURVE SMOOTH",
"110 261 OFFCURVE",
"105 225 OFFCURVE",
"105 191 CURVE SMOOTH",
"105 20 LINE SMOOTH",
"105 6 OFFCURVE",
"97 -1 OFFCURVE",
"86 -1 CURVE SMOOTH",
"76 -1 OFFCURVE",
"68 7 OFFCURVE",
"68 18 CURVE SMOOTH",
"68 678 LINE SMOOTH",
"68 689 OFFCURVE",
"76 698 OFFCURVE",
"86 698 CURVE SMOOTH",
"98 698 OFFCURVE",
"105 689 OFFCURVE",
"105 678 CURVE SMOOTH"
);
}
);
userData = {
com.fontlab.hintData = {
hhints = (
{
position = -1;
width = 22;
},
{
position = 466;
width = 36;
}
);
vhints = (
{
position = 68;
width = 37;
},
{
position = 415;
width = 36;
}
);
};
};
width = 493;
}
);
unicode = 0068;
},
{
glyphname = hcircumflex;
layers = (
{
layerId = master01;
paths = (
{
closed = 1;
nodes = (
"105 311 LINE",
"142 394 OFFCURVE",
"242 502 OFFCURVE",
"324 502 CURVE SMOOTH",
"419 502 OFFCURVE",
"451 387 OFFCURVE",
"451 158 CURVE SMOOTH",
"451 91 OFFCURVE",
"451 50 OFFCURVE",
"448 19 CURVE SMOOTH",
"447 8 OFFCURVE",
"441 0 OFFCURVE",
"430 0 CURVE SMOOTH",
"422 0 OFFCURVE",
"413 8 OFFCURVE",
"413 18 CURVE SMOOTH",
"413 22 OFFCURVE",
"414 36 OFFCURVE",
"414 45 CURVE SMOOTH",
"415 70 OFFCURVE",
"415 108 OFFCURVE",
"415 150 CURVE SMOOTH",
"415 431 OFFCURVE",
"361 466 OFFCURVE",
"319 466 CURVE SMOOTH",
"225 466 OFFCURVE",
"140 326 OFFCURVE",
"122 288 CURVE SMOOTH",
"110 261 OFFCURVE",
"105 225 OFFCURVE",
"105 191 CURVE SMOOTH",
"105 20 LINE SMOOTH",
"105 6 OFFCURVE",
"97 -1 OFFCURVE",
"86 -1 CURVE SMOOTH",
"76 -1 OFFCURVE",
"68 7 OFFCURVE",
"68 18 CURVE SMOOTH",
"68 678 LINE SMOOTH",
"68 689 OFFCURVE",
"76 698 OFFCURVE",
"86 698 CURVE SMOOTH",
"98 698 OFFCURVE",
"105 689 OFFCURVE",
"105 678 CURVE SMOOTH"
);
},
{
closed = 1;
nodes = (
"261 902 OFFCURVE",
"267 900 OFFCURVE",
"271 896 CURVE SMOOTH",
"383 783 LINE SMOOTH",
"387 779 OFFCURVE",
"389 776 OFFCURVE",
"389 771 CURVE SMOOTH",
"389 762 OFFCURVE",
"381 753 OFFCURVE",
"372 753 CURVE SMOOTH",
"367 753 OFFCURVE",
"363 755 OFFCURVE",
"359 758 CURVE SMOOTH",
"254 853 LINE",
"130 757 LINE SMOOTH",
"127 755 OFFCURVE",
"123 753 OFFCURVE",
"119 753 CURVE SMOOTH",
"109 753 OFFCURVE",
"101 762 OFFCURVE",
"101 771 CURVE SMOOTH",
"101 776 OFFCURVE",
"104 781 OFFCURVE",
"108 784 CURVE SMOOTH",
"243 897 LINE SMOOTH",
"247 900 OFFCURVE",
"252 902 OFFCURVE",
"256 902 CURVE SMOOTH"
);
}
);
userData = {
com.fontlab.hintData = {
hhints = (
{
position = -1;
width = 22;
},
{
position = 466;
width = 36;
}
);
vhints = (
{
position = 68;
width = 37;
},
{
position = 415;
width = 36;
}
);
};
};
width = 493;
}
);
unicode = 0125;
},
{
glyphname = i;
layers = (
{
layerId = master01;
paths = (
{
closed = 1;
nodes = (
"111 20 LINE SMOOTH",
"111 9 OFFCURVE",
"101 0 OFFCURVE",
"91 0 CURVE SMOOTH",
"80 0 OFFCURVE",
"71 9 OFFCURVE",
"71 20 CURVE SMOOTH",
"77 476 LINE SMOOTH",
"77 487 OFFCURVE",
"87 496 OFFCURVE",
"97 496 CURVE SMOOTH",
"108 496 OFFCURVE",
"117 487 OFFCURVE",
"117 476 CURVE SMOOTH"
);
},
{
closed = 1;
nodes = (
"88 610 OFFCURVE",
"79 618 OFFCURVE",
"79 628 CURVE SMOOTH",
"80 671 LINE SMOOTH",
"80 680 OFFCURVE",
"89 689 OFFCURVE",
"99 689 CURVE SMOOTH",
"109 689 OFFCURVE",
"117 679 OFFCURVE",
"117 670 CURVE SMOOTH",
"116 627 LINE SMOOTH",
"116 616 OFFCURVE",
"107 610 OFFCURVE",
"97 610 CURVE SMOOTH"
);
}
);
userData = {
com.fontlab.hintData = {
hhints = (
{
position = 0;
width = 21;
},
{
position = 610;
width = 79;
}
);
vhints = (
{
position = 77;
width = 40;
}
);
};
};
width = 184;
}
);
unicode = 0069;
},
{
glyphname = iacute;
layers = (
{
layerId = master01;
paths = (
{
closed = 1;
nodes = (
"111 20 LINE SMOOTH",
"111 9 OFFCURVE",
"101 0 OFFCURVE",
"91 0 CURVE SMOOTH",
"80 0 OFFCURVE",
"71 9 OFFCURVE",
"71 20 CURVE SMOOTH",
"77 476 LINE SMOOTH",
"77 487 OFFCURVE",
"87 496 OFFCURVE",
"97 496 CURVE SMOOTH",
"107 496 OFFCURVE",
"117 487 OFFCURVE",
"117 476 CURVE SMOOTH"
);
},
{
closed = 1;
nodes = (
"42 594 LINE SMOOTH",
"35 589 OFFCURVE",
"30 587 OFFCURVE",
"26 587 CURVE SMOOTH",
"17 587 OFFCURVE",
"9 595 OFFCURVE",
"9 604 CURVE SMOOTH",
"9 607 OFFCURVE",
"9 612 OFFCURVE",
"15 617 CURVE SMOOTH",
"143 721 LINE SMOOTH",
"152 728 OFFCURVE",
"159 735 OFFCURVE",
"169 735 CURVE SMOOTH",
"180 735 OFFCURVE",
"193 722 OFFCURVE",
"193 708 CURVE SMOOTH",
"193 701 OFFCURVE",
"192 697 OFFCURVE",
"185 692 CURVE SMOOTH"
);
}
);
userData = {
com.fontlab.hintData = {
hhints = (
{
position = 0;
width = 21;
}
);
vhints = (
{
position = 71;
width = 40;
}
);
};
};
width = 184;
}
);
unicode = 00ED;
},
{
glyphname = icircumflex;
layers = (
{
layerId = master01;
paths = (
{
closed = 1;
nodes = (
"135 20 LINE SMOOTH",
"135 9 OFFCURVE",
"126 0 OFFCURVE",
"115 0 CURVE SMOOTH",
"105 0 OFFCURVE",
"96 9 OFFCURVE",
"96 20 CURVE SMOOTH",
"102 476 LINE SMOOTH",
"102 487 OFFCURVE",
"111 496 OFFCURVE",
"122 496 CURVE SMOOTH",
"132 496 OFFCURVE",
"141 487 OFFCURVE",
"141 476 CURVE SMOOTH"
);
},
{
closed = 1;
nodes = (
"139 748 OFFCURVE",
"145 746 OFFCURVE",
"149 742 CURVE SMOOTH",
"261 629 LINE SMOOTH",
"265 625 OFFCURVE",
"267 622 OFFCURVE",
"267 617 CURVE SMOOTH",
"267 608 OFFCURVE",
"259 599 OFFCURVE",
"250 599 CURVE SMOOTH",
"245 599 OFFCURVE",
"241 601 OFFCURVE",
"237 604 CURVE SMOOTH",
"132 699 LINE",
"8 603 LINE SMOOTH",
"5 601 OFFCURVE",
"1 599 OFFCURVE",
"-3 599 CURVE SMOOTH",
"-13 599 OFFCURVE",
"-21 608 OFFCURVE",
"-21 617 CURVE SMOOTH",
"-21 622 OFFCURVE",
"-18 627 OFFCURVE",
"-14 630 CURVE SMOOTH",
"121 743 LINE SMOOTH",
"125 746 OFFCURVE",
"130 748 OFFCURVE",
"134 748 CURVE SMOOTH"
);
}
);
userData = {
com.fontlab.hintData = {
hhints = (
{
position = 0;
width = 21;
}
);
vhints = (
{
position = 96;
width = 39;
}
);
};
};
width = 224;
}
);
unicode = 00EE;
},
{
glyphname = idieresis;
layers = (
{
layerId = master01;
paths = (
{
closed = 1;
nodes = (
"140 20 LINE SMOOTH",
"140 9 OFFCURVE",
"131 0 OFFCURVE",
"120 0 CURVE SMOOTH",
"110 0 OFFCURVE",
"101 9 OFFCURVE",
"101 20 CURVE SMOOTH",
"107 476 LINE SMOOTH",
"107 487 OFFCURVE",
"116 496 OFFCURVE",
"127 496 CURVE SMOOTH",
"137 496 OFFCURVE",
"146 487 OFFCURVE",
"146 476 CURVE SMOOTH"
);
},
{
closed = 1;
nodes = (
"87 616 OFFCURVE",
"68 600 OFFCURVE",
"44 600 CURVE SMOOTH",
"25 600 OFFCURVE",
"8 613 OFFCURVE",
"8 630 CURVE SMOOTH",
"8 649 OFFCURVE",
"27 666 OFFCURVE",
"51 666 CURVE SMOOTH",
"69 666 OFFCURVE",
"87 652 OFFCURVE",
"87 636 CURVE SMOOTH"
);
},
{
closed = 1;
nodes = (
"253 616 OFFCURVE",
"234 600 OFFCURVE",
"210 600 CURVE SMOOTH",
"190 600 OFFCURVE",
"174 613 OFFCURVE",
"174 630 CURVE SMOOTH",
"174 649 OFFCURVE",
"192 666 OFFCURVE",
"216 666 CURVE SMOOTH",
"235 666 OFFCURVE",
"253 652 OFFCURVE",
"253 636 CURVE SMOOTH"
);
}
);
userData = {
com.fontlab.hintData = {
hhints = (
{
position = 0;
width = 21;
},
{
position = 600;
width = 66;
}
);
vhints = (
{
position = 8;
width = 79;
},
{
position = 101;
width = 39;
},
{
position = 174;
width = 79;
}
);
};
};
width = 248;
}
);
unicode = 00EF;
},
{
glyphname = igrave;
layers = (
{
layerId = master01;
paths = (
{
closed = 1;
nodes = (
"111 20 LINE SMOOTH",
"111 9 OFFCURVE",
"101 0 OFFCURVE",
"91 0 CURVE SMOOTH",
"80 0 OFFCURVE",
"71 9 OFFCURVE",
"71 20 CURVE SMOOTH",
"77 476 LINE SMOOTH",
"77 487 OFFCURVE",
"87 496 OFFCURVE",
"97 496 CURVE SMOOTH",
"107 496 OFFCURVE",
"117 487 OFFCURVE",
"117 476 CURVE SMOOTH"
);
},
{
closed = 1;
nodes = (
"176 611 LINE SMOOTH",
"180 606 OFFCURVE",
"182 602 OFFCURVE",
"182 598 CURVE SMOOTH",
"182 588 OFFCURVE",
"172 582 OFFCURVE",
"163 582 CURVE SMOOTH",
"159 582 OFFCURVE",
"154 584 OFFCURVE",
"150 588 CURVE SMOOTH",
"27 714 LINE SMOOTH",
"22 720 OFFCURVE",
"19 726 OFFCURVE",
"19 733 CURVE SMOOTH",
"19 747 OFFCURVE",
"32 758 OFFCURVE",
"46 758 CURVE SMOOTH",
"54 758 OFFCURVE",
"61 755 OFFCURVE",
"67 747 CURVE SMOOTH"
);
}
);
userData = {
com.fontlab.hintData = {
hhints = (
{
position = 0;
width = 21;
}
);
vhints = (
{
position = 71;
width = 40;
}
);
};
};
width = 184;
}
);
unicode = 00EC;
},
{
glyphname = j;
layers = (
{
layerId = master01;
paths = (
{
closed = 1;
nodes = (
"258 -13 LINE SMOOTH",
"259 -75 OFFCURVE",
"238 -189 OFFCURVE",
"142 -189 CURVE SMOOTH",
"51 -189 OFFCURVE",
"4 -73 OFFCURVE",
"-7 -47 CURVE SMOOTH",
"-8 -44 OFFCURVE",
"-9 -42 OFFCURVE",
"-9 -38 CURVE SMOOTH",
"-9 -28 OFFCURVE",
"0 -21 OFFCURVE",
"11 -21 CURVE SMOOTH",
"19 -21 OFFCURVE",
"25 -24 OFFCURVE",
"30 -36 CURVE SMOOTH",
"50 -87 OFFCURVE",
"87 -156 OFFCURVE",
"142 -156 CURVE SMOOTH",
"217 -156 OFFCURVE",
"220 -42 OFFCURVE",
"220 -18 CURVE SMOOTH",
"213 482 LINE SMOOTH",
"213 493 OFFCURVE",
"221 502 OFFCURVE",
"233 502 CURVE SMOOTH",
"243 502 OFFCURVE",
"253 497 OFFCURVE",
"253 483 CURVE SMOOTH"
);
},
{
closed = 1;
nodes = (
"255 698 OFFCURVE",
"262 690 OFFCURVE",
"260 676 CURVE SMOOTH",
"255 633 LINE SMOOTH",
"254 623 OFFCURVE",
"245 618 OFFCURVE",
"235 618 CURVE SMOOTH",
"224 618 OFFCURVE",
"217 627 OFFCURVE",
"218 635 CURVE SMOOTH",
"224 685 LINE SMOOTH",
"225 695 OFFCURVE",
"234 698 OFFCURVE",
"241 698 CURVE SMOOTH"
);
}
);
userData = {
com.fontlab.hintData = {
hhints = (
{
position = -189;
width = 33;
},
{
position = 482;
width = 20;
},
{
position = 618;
width = 80;
}
);
vhints = (
{
position = -9;
width = 39;
},
{
position = 218;
width = 37;
},
{
position = 220;
width = 38;
}
);
};
};
width = 323;
}
);
unicode = 006A;
},
{
glyphname = jcircumflex;
layers = (
{
layerId = master01;
paths = (
{
closed = 1;
nodes = (
"258 -13 LINE SMOOTH",
"259 -75 OFFCURVE",
"238 -189 OFFCURVE",
"142 -189 CURVE SMOOTH",
"51 -189 OFFCURVE",
"4 -73 OFFCURVE",
"-7 -47 CURVE SMOOTH",
"-8 -44 OFFCURVE",
"-9 -42 OFFCURVE",
"-9 -38 CURVE SMOOTH",
"-9 -28 OFFCURVE",
"0 -21 OFFCURVE",
"11 -21 CURVE SMOOTH",
"19 -21 OFFCURVE",
"25 -24 OFFCURVE",
"30 -36 CURVE SMOOTH",
"50 -87 OFFCURVE",
"87 -156 OFFCURVE",
"142 -156 CURVE SMOOTH",
"217 -156 OFFCURVE",
"220 -42 OFFCURVE",
"220 -18 CURVE SMOOTH",
"213 482 LINE SMOOTH",
"213 493 OFFCURVE",
"221 502 OFFCURVE",
"233 502 CURVE SMOOTH",
"243 502 OFFCURVE",
"253 497 OFFCURVE",
"253 483 CURVE SMOOTH"
);
},
{
closed = 1;
nodes = (
"245 748 OFFCURVE",
"251 746 OFFCURVE",
"255 742 CURVE SMOOTH",
"367 629 LINE SMOOTH",
"371 625 OFFCURVE",
"373 622 OFFCURVE",
"373 617 CURVE SMOOTH",
"373 608 OFFCURVE",
"365 599 OFFCURVE",
"356 599 CURVE SMOOTH",
"351 599 OFFCURVE",
"347 601 OFFCURVE",
"343 604 CURVE SMOOTH",
"238 699 LINE",
"114 603 LINE SMOOTH",
"111 601 OFFCURVE",
"107 599 OFFCURVE",
"103 599 CURVE SMOOTH",
"93 599 OFFCURVE",
"85 608 OFFCURVE",
"85 617 CURVE SMOOTH",
"85 622 OFFCURVE",
"88 627 OFFCURVE",
"92 630 CURVE SMOOTH",
"227 743 LINE SMOOTH",
"231 746 OFFCURVE",
"236 748 OFFCURVE",
"240 748 CURVE SMOOTH"
);
}
);
userData = {
com.fontlab.hintData = {
hhints = (
{
position = -189;
width = 33;
},
{
position = 482;
width = 20;
}
);
vhints = (
{
position = -9;
width = 39;
},
{
position = 213;
width = 40;
},
{
position = 220;
width = 38;
}
);
};
};
width = 323;
}
);
unicode = 0135;
},
{
glyphname = k;
layers = (
{
layerId = master01;
paths = (
{
closed = 1;
nodes = (
"343 177 OFFCURVE",
"415 88 OFFCURVE",
"455 35 CURVE SMOOTH",
"458 31 OFFCURVE",
"461 27 OFFCURVE",
"461 20 CURVE SMOOTH",
"461 12 OFFCURVE",
"454 2 OFFCURVE",
"443 2 CURVE SMOOTH",
"436 2 OFFCURVE",
"432 4 OFFCURVE",
"428 9 CURVE SMOOTH",
"362 96 OFFCURVE",
"249 241 OFFCURVE",
"216 281 CURVE",
"173 247 OFFCURVE",
"134 218 OFFCURVE",
"107 202 CURVE",
"107 19 LINE SMOOTH",
"107 8 OFFCURVE",
"99 0 OFFCURVE",
"88 0 CURVE SMOOTH",
"78 0 OFFCURVE",
"70 8 OFFCURVE",
"70 19 CURVE SMOOTH",
"68 680 LINE SMOOTH",
"68 690 OFFCURVE",
"76 698 OFFCURVE",
"86 698 CURVE SMOOTH",
"98 698 OFFCURVE",
"105 689 OFFCURVE",
"105 678 CURVE SMOOTH",
"106 235 LINE",
"174 279 OFFCURVE",
"314 405 OFFCURVE",
"394 511 CURVE SMOOTH",
"397 516 OFFCURVE",
"403 519 OFFCURVE",
"409 519 CURVE SMOOTH",
"419 519 OFFCURVE",
"427 511 OFFCURVE",
"427 501 CURVE SMOOTH",
"427 497 OFFCURVE",
"425 493 OFFCURVE",
"423 491 CURVE SMOOTH",
"378 432 OFFCURVE",
"290 344 OFFCURVE",
"243 301 CURVE"
);
}
);
userData = {
com.fontlab.hintData = {
hhints = (
{
position = 0;
width = 21;
}
);
vhints = (
{
position = 70;
width = 37;
}
);
};
};
width = 484;
}
);
unicode = 006B;
},
